<svg width="56" height="36" viewBox="0 0 56 36" fill="none" xmlns="http://www.w3.org/2000/svg">
<path fill-rule="evenodd" clip-rule="evenodd" d="M51.0367 1.44789L37.7657 5.55182L39.1563 9.5618C39.3681 10.1723 39.0584 10.8408 38.4558 11.0741L29.1843 14.663L25.7758 16.6108L25.5022 17.3627C25.4101 17.6156 25.2357 17.8303 25.0069 17.9722L19.9415 21.1129C19.8776 21.1526 19.8101 21.1861 19.74 21.2131L18.5433 21.6734L17.8704 22.2945C17.2149 22.8995 16.1519 22.6033 15.9038 21.7464L15.0508 18.8002L14.1557 18.278L13.6933 18.2202C13.335 18.1754 13.0159 17.9717 12.8245 17.6655L12.4568 17.0771C12.4066 16.9967 12.366 16.9106 12.3361 16.8207L12.2625 16.6002L4.28405 19.3223L2.06951 24.1365L2.35824 27.7917C2.3774 28.0343 2.32237 28.2769 2.20043 28.4875L1.47355 29.7428L8.9236 34.0513L10.5471 30.548C10.6266 30.3763 10.7457 30.2259 10.8945 30.109L15.0861 26.8156L16.8411 23.2081C16.9438 22.9969 17.1063 22.8205 17.3084 22.7007L25.6413 17.7627C25.7175 17.7176 25.7983 17.681 25.8825 17.6537L53.6147 8.64839L51.0367 1.44789ZM50.806 0.0538371C51.4195 -0.13591 52.0738 0.191104 52.2902 0.795781L55.0022 8.37048C55.2303 9.00764 54.8867 9.70729 54.243 9.91631L26.336 18.9784L18.0737 23.8745L16.3249 27.4694C16.2454 27.6327 16.13 27.7759 15.9872 27.8881L11.7971 31.1802L10.1018 34.8386C9.80514 35.4787 9.02297 35.7261 8.41225 35.3729L0.59944 30.8545C0.0255097 30.5226 -0.170496 29.7882 0.161736 29.2144L0.957686 27.8398L0.66975 24.1948C0.653599 23.9904 0.690123 23.7852 0.775835 23.5988L3.04803 18.6593C3.18547 18.3605 3.43949 18.1312 3.75074 18.025L12.0011 15.2102C12.6314 14.9952 13.3163 15.3345 13.5269 15.9663L13.6566 16.3553L13.9613 16.8428L14.3699 16.8939C14.5307 16.914 14.6858 16.9665 14.8257 17.0481L15.8253 17.6312C16.0914 17.7864 16.2877 18.0381 16.3733 18.334L17.1586 21.0463L17.6219 20.6187C17.7333 20.5157 17.8633 20.4349 18.005 20.3804L19.2198 19.9132L24.2103 16.8188L24.4852 16.0632C24.5824 15.7963 24.771 15.5726 25.0175 15.4317L28.5027 13.44C28.5548 13.4103 28.609 13.3845 28.6649 13.3628L37.7704 9.83816L36.3752 5.81506C36.1528 5.17384 36.506 4.47595 37.1544 4.27544L50.806 0.0538371Z" fill="#EE0000"/>
</svg>
