<svg width="56" height="35" viewBox="0 0 56 35" fill="none" xmlns="http://www.w3.org/2000/svg">
<path fill-rule="evenodd" clip-rule="evenodd" d="M42.3492 1.43443C41.8779 1.60672 41.3677 1.79306 40.827 1.99055C37.8397 3.08162 33.9205 4.51308 30.4764 5.79527C28.4138 6.56313 26.5252 7.27616 25.1107 7.82977C24.4029 8.10682 23.8185 8.34211 23.3922 8.52344C23.1785 8.61434 23.0103 8.68924 22.8885 8.74747C22.777 8.80076 22.737 8.82401 22.737 8.82401C22.737 8.82401 22.7402 8.82127 22.7462 8.81663C22.6308 8.90613 22.4792 9.0242 22.3014 9.16262C21.1849 10.0322 19.0368 11.7053 18.3348 12.144C18.2022 12.2268 18.0088 12.3925 17.709 12.6588C17.6883 12.6772 17.6672 12.696 17.6458 12.715C17.3781 12.953 17.0571 13.2385 16.7022 13.5164C15.9459 14.1088 14.9453 14.7423 13.7762 14.8592C12.9672 14.9401 12.4617 15.2336 12.1031 15.5831C11.7249 15.9517 11.4792 16.4101 11.237 16.8945C11.0891 17.1904 10.752 17.5849 10.3988 17.9679C10.0201 18.3786 9.5414 18.8607 9.03303 19.3555C8.02253 20.3392 6.87226 21.3951 6.10255 22.0842L3.38248 25.8361L2.03463 28.8123L12.4539 22.3884C13.082 22.0011 13.9075 22.2672 14.1914 22.9483L14.6935 24.1535L20.4096 22.508L26.7764 19.1373C27.0047 19.0164 27.2695 18.9698 27.5334 19.0146C28.6889 19.2107 30.4252 19.5946 32.055 20.1449C32.87 20.42 33.6732 20.7417 34.3694 21.1098C35.0555 21.4726 35.6887 21.9066 36.1145 22.4271C36.5315 22.9367 37.0504 23.6536 37.625 24.4472C37.6732 24.5139 37.7218 24.5811 37.7709 24.6487C38.4104 25.5316 39.1249 26.5121 39.8823 27.4662C40.6405 28.4215 41.4316 29.3375 42.2203 30.0928C43.0156 30.8545 43.7723 31.4171 44.4571 31.7076C46.0301 32.375 47.3907 32.8072 48.4733 32.9523C49.5802 33.1006 50.2325 32.9286 50.58 32.61C50.8963 32.3201 51.2236 31.7797 51.5168 31.1209C51.7784 30.5332 51.9845 29.9166 52.1174 29.4466C51.8495 29.1603 51.5057 28.8123 51.1679 28.5084C50.9806 28.34 50.8026 28.1917 50.6456 28.0769C50.4796 27.9555 50.3728 27.8981 50.3235 27.8796C49.9118 27.7252 48.7003 27.2211 47.6268 26.531C47.0933 26.188 46.552 25.7729 46.1644 25.3012C45.7821 24.8358 45.4617 24.2027 45.6308 23.484C45.7024 23.1797 45.8008 22.8607 45.8878 22.5785C45.9247 22.4589 45.9595 22.3458 45.9894 22.2434C46.1006 21.8626 46.1606 21.5778 46.1565 21.3467C46.153 21.1446 46.1016 21.0031 45.9778 20.8707C45.8344 20.7173 45.5429 20.5237 44.9523 20.3487C44.6588 20.2617 44.2959 20.1611 43.8839 20.0469C42.5288 19.6712 40.6425 19.1482 38.9441 18.4783C37.8334 18.0402 36.7529 17.5212 35.9197 16.9078C35.1042 16.3075 34.3992 15.523 34.296 14.5249L34.2882 14.4497C34.2199 13.79 34.1599 13.2105 34.1459 12.7176C34.1314 12.2066 34.1627 11.72 34.3212 11.2779C34.6678 10.3111 35.5113 9.83322 36.7059 9.43503C37.7357 9.09177 39.7592 8.5286 41.7725 7.96826C42.0714 7.88507 42.3701 7.80194 42.6653 7.7196C43.8145 7.39902 44.9158 7.08907 45.7892 6.82943C46.6961 6.55987 47.2769 6.36697 47.4504 6.2802C48.1038 5.95351 48.7406 5.92983 49.3425 6.21201C49.8844 6.46602 50.3314 6.93965 50.7289 7.43653L50.7331 7.44187C51.1313 7.93961 51.637 8.57174 52.1676 8.99617C52.4326 9.20817 52.6559 9.3281 52.8298 9.37202C52.9775 9.40929 53.0772 9.39191 53.1803 9.32317C53.7014 8.97577 53.7495 8.7644 53.7517 8.68831C53.7551 8.57147 53.6764 8.29431 53.1704 7.78828C52.3624 6.98032 49.5809 3.97255 48.0412 2.29851L45.0997 3.30481C44.6571 3.45622 44.1669 3.33665 43.8437 2.99845L42.3492 1.43443ZM41.9965 0.0727354C42.4528 -0.0940942 42.9478 0.0344207 43.271 0.372652L44.7676 1.93879L47.7115 0.93164C48.1599 0.778238 48.6586 0.90153 48.9825 1.25384C50.5138 2.91939 53.363 6.00106 54.1603 6.79833C54.7185 7.35657 55.172 7.99855 55.1511 8.72829C55.1291 9.49878 54.5968 10.0614 53.9569 10.488C53.4795 10.8063 52.9624 10.8494 52.4872 10.7294C52.0383 10.6161 51.6327 10.3612 51.293 10.0894C50.6388 9.56606 50.0517 8.8315 49.6743 8.35946L49.6357 8.3111C49.2592 7.84047 48.9805 7.58846 48.7483 7.47965C48.5763 7.39902 48.3907 7.37533 48.0765 7.5324C47.7663 7.68751 47.041 7.9179 46.1881 8.1714C45.3019 8.43483 44.19 8.74771 43.0414 9.06812C42.7444 9.15098 42.4452 9.23426 42.1469 9.31729C40.1233 9.88057 38.1417 10.4322 37.1487 10.7632C36.0212 11.139 35.7521 11.4351 35.6391 11.7503C35.5678 11.9491 35.5326 12.2306 35.5453 12.6779C35.5578 13.1173 35.613 13.6506 35.6848 14.3449L35.6885 14.3809C35.7304 14.7858 36.0414 15.259 36.7497 15.7804C37.4403 16.2887 38.3916 16.7554 39.4578 17.176C41.0787 17.8153 42.8495 18.3065 44.2011 18.6814C44.6331 18.8013 45.0223 18.9092 45.35 19.0063C46.0656 19.2184 46.6207 19.5084 47.0004 19.9144C47.3996 20.3414 47.5478 20.8348 47.5563 21.3221C47.5644 21.7803 47.449 22.2394 47.3334 22.6356C47.2907 22.7818 47.2486 22.9182 47.2079 23.0498C47.1282 23.3077 47.0542 23.547 46.9936 23.8047C46.9692 23.9084 46.9875 24.0976 47.2461 24.4124C47.4995 24.7207 47.9016 25.0433 48.3839 25.3534C49.3422 25.9694 50.4528 26.4329 50.8151 26.5687C51.0441 26.6546 51.273 26.8013 51.4721 26.9469C51.6801 27.099 51.8962 27.2805 52.1042 27.4676C52.5206 27.8422 52.9339 28.2662 53.2307 28.588C53.5021 28.8824 53.6088 29.2972 53.5022 29.6912C53.3576 30.2261 53.1161 30.9705 52.7959 31.6901C52.4842 32.3905 52.0622 33.1505 51.526 33.642C50.7126 34.3877 49.5265 34.5059 48.2873 34.3398C47.0236 34.1705 45.53 33.6836 43.9103 32.9964C42.9987 32.6097 42.0984 31.9145 41.252 31.1039C40.3989 30.287 39.5634 29.3164 38.7857 28.3366C38.0071 27.3557 37.2765 26.3528 36.637 25.47C36.5914 25.4069 36.5462 25.3445 36.5016 25.2829C35.9148 24.4724 35.4202 23.7893 35.031 23.3136C34.7772 23.0034 34.333 22.6742 33.715 22.3475C33.1071 22.0261 32.3793 21.732 31.6072 21.4713C30.0956 20.961 28.4713 20.5975 27.3702 20.407L21.0464 23.755C20.9733 23.7937 20.8963 23.8247 20.8169 23.8476L14.9095 25.5482C14.3236 25.7169 13.7043 25.4194 13.4698 24.8566L12.9892 23.7031L1.37639 30.8628C0.62041 31.3289 -0.28217 30.5344 0.0842152 29.7254L2.11553 25.24C2.14891 25.1663 2.18964 25.0962 2.23712 25.0307L4.98162 21.2452C5.03094 21.1771 5.0873 21.114 5.15226 21.0559C5.91234 20.3758 7.05678 19.3255 8.0565 18.3523C8.55692 17.8652 9.01539 17.4029 9.36959 17.0188C9.74933 16.607 9.94095 16.3562 9.98483 16.2684C10.2264 15.7853 10.561 15.1311 11.1259 14.5805C11.7104 14.0109 12.5108 13.5787 13.6369 13.4661C14.4027 13.3895 15.1438 12.9587 15.8389 12.4143C16.1579 12.1644 16.4482 11.9063 16.7199 11.6648C16.7398 11.6472 16.7596 11.6296 16.7793 11.6121C17.048 11.3734 17.3384 11.1158 17.5928 10.9568C18.2238 10.5624 20.2773 8.96391 21.414 8.07906C21.6002 7.93411 21.7619 7.8083 21.8886 7.71008C22.0001 7.62369 22.1596 7.54418 22.2846 7.48438C22.4329 7.41348 22.6223 7.32953 22.8442 7.23513C23.2892 7.04587 23.8883 6.80481 24.6005 6.52607C26.0261 5.96809 27.9235 5.25179 29.9879 4.48325C33.4364 3.19943 37.3605 1.76619 40.3475 0.675225C40.9373 0.459785 41.4906 0.257693 41.9965 0.0727354Z" fill="#EE0000"/>
</svg>
