<svg width="56" height="41" viewBox="0 0 56 41" fill="none" xmlns="http://www.w3.org/2000/svg">
<path fill-rule="evenodd" clip-rule="evenodd" d="M11.5069 1.64422C9.51363 1.43513 7.56434 1.32365 6.34684 1.45893C5.00956 1.60751 4.18688 2.36805 3.60703 3.40826C3.05098 4.40576 2.75641 5.59274 2.49401 6.65007C2.47345 6.73293 2.45308 6.81499 2.43281 6.8961C2.17048 7.94541 1.6366 10.6117 1.45901 13.5421C1.27925 16.5084 1.47685 19.5844 2.54988 21.5654C3.68421 23.6595 4.78539 24.5585 5.70757 24.8422C6.6019 25.1174 7.50314 24.865 8.38639 24.2227C8.48903 24.148 8.51588 24.0979 8.52143 24.0857C8.5245 24.079 8.52945 24.0683 8.52392 24.0348C8.50698 23.9323 8.40781 23.7255 8.11746 23.4252C7.55456 22.8432 6.58989 22.2295 5.70027 21.7623C4.98175 21.385 4.79933 20.3871 5.42319 19.7999L7.95681 17.4153L7.9589 17.4133C9.32507 16.1381 11.6323 14.0941 14.1264 12.0948C16.6108 10.1035 19.3203 8.12417 21.4811 7.00651C23.5791 5.92134 25.3606 6.07985 26.7461 6.87311C28.0832 7.63872 28.9639 8.94364 29.4427 10.0191C29.7851 10.7884 29.2268 11.5617 28.4903 11.6435L25.3607 11.9913C26.0548 13.068 27.005 14.5891 27.6559 15.7824C28.2427 16.8583 28.6077 18.0272 28.5304 19.3422C28.4533 20.6532 27.9408 22.0385 26.8958 23.5585C26.2261 24.5326 26.1701 25.469 26.3586 26.26C26.5531 27.0767 27.012 27.7421 27.3556 28.0858C28.6189 29.349 31.5388 32.3764 33.0147 34.2952C33.8804 35.4205 35.1083 36.6508 36.2595 37.6471C36.8334 38.1437 37.3792 38.5743 37.8411 38.8993C38.3225 39.2379 38.6568 39.4214 38.8225 39.4766C38.852 39.4865 38.9701 39.5039 39.2201 39.3875C39.4595 39.2761 39.7379 39.0781 40.0214 38.8149C40.6034 38.2745 41.0577 37.6018 41.1883 37.21C41.2456 37.0382 41.2536 36.7997 41.1991 36.5052C41.1457 36.2165 41.0409 35.9218 40.9263 35.6701C40.6733 35.1149 40.8323 34.3626 41.4659 34.032L45.1199 32.1255C45.9862 31.5981 48.2227 30.5631 50.6593 30.4108C51.9081 30.3328 52.6392 29.8385 53.1092 29.2963C53.5621 28.7737 53.7938 28.1875 53.9769 27.724C53.9814 27.7127 53.9858 27.7015 53.9902 27.6904C53.9683 27.6163 53.919 27.5 53.829 27.3387C53.6469 27.0125 53.3547 26.6012 52.9955 26.1495C52.2852 25.2566 51.3807 24.2895 50.7601 23.6686L37.2737 11.2616C37.196 11.1901 37.1273 11.1085 37.0692 11.0155C36.1482 9.5416 34.1717 6.39984 33.3227 5.12631C32.5147 3.91432 31.154 3.9846 30.1527 4.31835C29.4775 4.54343 28.5941 4.58292 27.7127 4.46051C26.8225 4.33686 25.8664 4.03892 25.0447 3.52537C24.2756 3.04468 23.8922 2.80958 23.5752 2.73033C23.3717 2.67946 23.1672 2.68316 22.7334 2.97233C22.3276 3.24287 21.7739 3.2916 21.3112 3.28836C20.8085 3.28484 20.2342 3.21459 19.6641 3.11483C18.5434 2.91872 17.3536 2.59313 16.5785 2.34689C15.3838 2.13914 13.456 1.84867 11.5069 1.64422ZM11.6529 0.251856C13.664 0.462814 15.6488 0.763037 16.8664 0.975964L16.9136 0.984234L16.9594 0.998883C17.6911 1.23334 18.8421 1.54972 19.9054 1.73579C20.4386 1.82909 20.9278 1.88564 21.321 1.88839C21.5173 1.88977 21.6737 1.87752 21.791 1.85599C21.9118 1.83384 21.9568 1.80748 21.9568 1.80748C22.6068 1.37415 23.2151 1.19721 23.9147 1.37213C24.4637 1.50937 25.0336 1.86643 25.6591 2.25824C25.7014 2.28474 25.7439 2.31141 25.7867 2.33817C26.4101 2.72774 27.17 2.97168 27.9053 3.07382C28.6496 3.17718 29.3015 3.12636 29.71 2.99019C30.8762 2.60145 33.128 2.31047 34.4875 4.34973C35.3457 5.63702 37.3173 8.77085 38.2415 10.2496L51.7295 22.658L51.7397 22.6683C52.3833 23.3116 53.3332 24.3251 54.0911 25.2781C54.4679 25.7518 54.8147 26.2321 55.0515 26.6565C55.1691 26.8673 55.274 27.0895 55.3367 27.307C55.3939 27.5053 55.4493 27.8115 55.3267 28.1182C55.3115 28.1561 55.2952 28.1976 55.2777 28.2425C55.0987 28.6996 54.7854 29.4998 54.1671 30.2132C53.463 31.0257 52.3879 31.7055 50.7467 31.8081C48.5801 31.9435 46.5471 32.891 45.8317 33.3312L45.8106 33.3442L42.25 35.202C42.3803 35.5053 42.505 35.8681 42.5757 36.2504C42.6544 36.6751 42.6759 37.1745 42.5165 37.6527C42.2858 38.3446 41.6564 39.2072 40.974 39.8408C40.6253 40.1646 40.2264 40.4634 39.811 40.6568C39.4062 40.8452 38.8922 40.9756 38.3798 40.8048C38.0036 40.6794 37.5251 40.3887 37.0356 40.0443C36.5267 39.6863 35.9436 39.2251 35.3434 38.7057C34.1466 37.67 32.8457 36.3716 31.9051 35.1488C30.4911 33.3105 27.6311 30.3411 26.3656 29.0757C25.8664 28.5764 25.2597 27.6884 24.9967 26.5845C24.7276 25.4549 24.8223 24.1034 25.7421 22.7654C26.6839 21.3955 27.0745 20.252 27.1328 19.26C27.1909 18.2721 26.9237 17.3638 26.4268 16.4528C25.7474 15.2073 24.713 13.5634 24.015 12.4886C23.5296 11.7412 23.9961 10.7343 24.8905 10.6349L28.02 10.2872C27.5971 9.45654 26.9325 8.59311 26.0504 8.08807C25.1092 7.54918 23.8338 7.36583 22.1243 8.25001C20.0947 9.29985 17.4758 11.2043 15.002 13.1872C12.5386 15.1618 10.2585 17.1819 8.91519 18.4359L8.91423 18.4367L6.57227 20.641C7.44983 21.118 8.45838 21.7639 9.12382 22.452C9.47597 22.8161 9.81785 23.2781 9.90518 23.8065C9.95168 24.0879 9.92467 24.3836 9.79456 24.6681C9.66694 24.9471 9.4595 25.1733 9.20983 25.3549C8.1062 26.1575 6.74964 26.6276 5.29585 26.1803C3.86991 25.7416 2.53266 24.473 1.31887 22.2322C0.0437855 19.8782 -0.119889 16.4517 0.0615752 13.4574C0.245215 10.4272 0.795061 7.67473 1.07461 6.55655C1.09601 6.47094 1.1179 6.38232 1.14045 6.29107C1.39476 5.26166 1.73199 3.89658 2.38419 2.72659C3.11398 1.41742 4.27828 0.280152 6.19224 0.0674898C7.57574 -0.0862326 9.6604 0.0428432 11.6529 0.251856Z" fill="#EE0000"/>
</svg>
