<svg width="56" height="31" viewBox="0 0 56 31" fill="none" xmlns="http://www.w3.org/2000/svg">
<path fill-rule="evenodd" clip-rule="evenodd" d="M10.1374 1.5048C10.0668 1.42242 9.95722 1.38459 9.85083 1.40587L7.16948 1.94214C6.26882 2.19496 4.9009 2.61255 3.69575 3.05095C3.08616 3.2727 2.53184 3.49488 2.10492 3.69928C1.89103 3.80169 1.72125 3.8939 1.59728 3.97336C1.47748 4.05015 1.43827 4.09048 1.43827 4.09048C1.43827 4.09048 1.43892 4.08941 1.44035 4.0875C1.41085 4.12683 1.38257 4.19075 1.41179 4.34061C1.44345 4.50297 1.53431 4.70345 1.67072 4.91196C1.67527 4.91891 1.67872 4.92167 1.68189 4.92372C1.68589 4.92631 1.69502 4.93112 1.71164 4.93437C1.74771 4.94143 1.80607 4.93796 1.8683 4.90685L2.79582 4.44309C3.42607 4.12797 4.18539 4.23432 4.70482 4.71046L9.3284 8.94874C9.35219 8.97055 9.37935 8.98838 9.40882 9.00154L21.1302 14.2343C21.5455 14.4197 21.8693 14.7638 22.029 15.1897L22.4072 16.1983C22.4326 16.266 22.4816 16.3223 22.5452 16.3568L27.4542 19.0158L36.8328 23.5961L42.8722 26.1843C42.8862 26.1904 42.9008 26.1953 42.9156 26.1991L50.1221 28.0522C49.736 27.8435 49.3795 27.6399 49.0781 27.4516C48.6537 27.1863 48.1067 26.6492 47.535 26.0261C46.9445 25.3825 46.2696 24.5816 45.5797 23.7281C44.1991 22.0201 42.7375 20.0754 41.7335 18.698C41.4193 18.267 41.3307 17.7186 41.482 17.2142L41.8421 16.0139C41.8713 15.9164 41.849 15.8146 41.7872 15.7415C40.5222 14.2474 37.9725 11.3395 35.6086 8.9756C33.3077 6.67462 29.8457 5.10688 28.0206 4.47864C27.9554 4.4562 27.8706 4.46314 27.7908 4.51834L25.9333 5.80435C25.3347 6.21874 24.5387 6.206 23.9537 5.77267L19.0018 2.10458C18.9297 2.05118 18.8375 2.03284 18.7505 2.0546L15.8277 2.7853C15.6928 2.81901 15.5544 2.83606 15.4154 2.83606H12.0604C11.5641 2.83606 11.0926 2.6192 10.7697 2.2424L10.1374 1.5048ZM9.57626 0.0330552C10.1792 -0.0875307 10.8002 0.126854 11.2004 0.593697L11.8326 1.33129C11.8896 1.39779 11.9728 1.43606 12.0604 1.43606H15.4154C15.4399 1.43606 15.4643 1.43305 15.4881 1.4271L18.4109 0.696402C18.9041 0.573103 19.4266 0.676998 19.8351 0.979596L24.787 4.64769C24.8903 4.72416 25.0307 4.72641 25.1364 4.65328L26.9939 3.36728C27.4166 3.07468 27.9637 2.97843 28.4763 3.15487C30.3878 3.81285 34.0801 5.46714 36.5986 7.98565C39.0014 10.3884 41.5791 13.3291 42.8556 14.8369C43.2274 15.276 43.3466 15.8708 43.183 16.4162L42.8229 17.6165C42.7954 17.7081 42.8125 17.8015 42.8648 17.8733C43.8603 19.239 45.3072 21.1639 46.6685 22.848C47.3496 23.6907 48.004 24.4664 48.5666 25.0796C49.148 25.7134 49.5781 26.1131 49.8201 26.2644C51.0795 27.0515 53.4613 28.1678 54.7307 28.7319C55.1364 28.9122 55.3998 29.3143 55.3998 29.7607C55.3998 30.535 54.6352 31.0775 53.9043 30.8217L50.121 29.4975L42.567 27.555C42.4828 27.5334 42.4005 27.5054 42.3207 27.4711L36.2495 24.8692L26.8133 20.2608L21.8784 17.5878C21.518 17.3925 21.2403 17.0737 21.0963 16.6899L20.7181 15.6813C20.6899 15.6061 20.6328 15.5454 20.5595 15.5127L8.83811 10.2799C8.6711 10.2054 8.51721 10.1043 8.38238 9.98076L3.7588 5.74247C3.66714 5.65845 3.53314 5.63968 3.42192 5.69529L2.4944 6.15905C1.87351 6.46949 0.975668 6.40678 0.499161 5.67841C0.308831 5.38748 0.116882 5.01481 0.0376672 4.60853C-0.0439843 4.18976 -0.011188 3.68955 0.320346 3.2475C0.462719 3.05767 0.665075 2.90798 0.841791 2.7947C1.03203 2.67277 1.25776 2.55269 1.50035 2.43655C1.98637 2.20385 2.58883 1.96386 3.21716 1.73529C4.47647 1.2772 5.89444 0.845296 6.81739 0.586871L6.84288 0.579732L9.57626 0.0330552Z" fill="#EE0000"/>
</svg>
