<svg width="56" height="32" viewBox="0 0 56 32" fill="none" xmlns="http://www.w3.org/2000/svg">
<path fill-rule="evenodd" clip-rule="evenodd" d="M52.5138 0.513877C53.0809 0.287154 53.7212 0.523629 54.0107 1.05385L54.7642 2.43396C54.8851 2.60305 55.0564 2.85898 55.2183 3.13423C55.3847 3.41727 55.5747 3.77632 55.6663 4.09714C55.7765 4.48279 55.597 4.79489 55.4804 4.94895C55.3549 5.11463 55.1889 5.253 55.0375 5.36315C54.7281 5.58833 54.3139 5.81279 53.9078 6.01581C53.5646 6.18743 53.1989 6.35742 52.8687 6.51096C52.8025 6.54175 52.7377 6.57187 52.6747 6.60122C52.2814 6.78471 51.9839 6.92782 51.8161 7.02852C51.4852 7.22708 50.7965 7.81043 50.0829 8.53414C49.3704 9.25686 48.7326 10.0195 48.454 10.5418C48.3147 10.803 48.07 11.0651 47.8235 11.2986C47.5615 11.5467 47.2354 11.8191 46.8746 12.1016C46.1518 12.6674 45.2524 13.3024 44.3637 13.9069C43.4732 14.5126 42.5839 15.0943 41.8791 15.5534C41.8042 15.6022 41.7318 15.6494 41.662 15.6948C41.0573 16.0886 40.6492 16.3544 40.5237 16.4485C40.2947 16.6202 39.9485 16.8 39.5997 16.9565C39.238 17.1188 38.8234 17.2782 38.4291 17.4004C38.0493 17.518 37.6341 17.6185 37.2914 17.6293C37.1352 17.6342 36.8839 17.6262 36.6521 17.5021C36.5215 17.4321 36.3817 17.3165 36.2891 17.1378C36.2452 17.053 36.2188 16.9673 36.2052 16.8845C36.1822 16.8762 36.1547 16.8673 36.1222 16.858C35.8652 16.7851 35.5172 16.7543 35.2654 16.7531C32.2697 16.8905 25.9508 17.1802 24.5055 17.2459C23.3373 17.299 22.2982 17.1242 21.6429 16.9561C21.3806 17.3586 21.0673 17.8588 20.7956 18.3331C20.4845 18.8762 20.2728 19.3096 20.2133 19.5277C20.2141 19.5246 20.2147 19.523 20.2147 19.523C20.2147 19.523 20.2076 19.5835 20.226 19.7389C20.2452 19.9008 20.2857 20.1096 20.3467 20.361C20.4686 20.8631 20.6568 21.474 20.8622 22.1107C20.932 22.3269 21.0041 22.5473 21.0757 22.766C21.2109 23.1792 21.3443 23.5867 21.4562 23.9496C21.6205 24.4824 21.7712 25.0175 21.7989 25.3773C21.8276 25.7505 21.7628 26.187 21.6657 26.6039C21.5658 27.033 21.4192 27.4933 21.2508 27.9332C21.0824 28.3732 20.8877 28.8049 20.6874 29.1761C20.4943 29.5338 20.2707 29.8837 20.0329 30.1214C19.845 30.3094 19.6026 30.4244 19.3941 30.5002C19.1732 30.5805 18.922 30.6408 18.6604 30.6863C18.1363 30.7774 17.5079 30.82 16.8644 30.82C15.5989 30.82 14.1362 30.6547 13.1905 30.2764C12.9473 30.1791 12.4339 30.1389 11.6303 30.207C10.8635 30.2719 9.94656 30.423 8.97744 30.6117C8.1814 30.7667 7.33526 30.951 6.52375 31.1277C5.4135 31.3695 4.36808 31.5972 3.60451 31.7165C2.24285 31.9293 1.27732 31.7745 0.725846 31.1659C0.186668 30.5709 0.296781 29.8001 0.335698 29.5277C0.366585 29.3114 0.484055 29.1421 0.531884 29.0744C0.599992 28.9782 0.684027 28.8796 0.770948 28.7849C0.946449 28.5938 1.18143 28.3673 1.44661 28.1244C1.97958 27.6362 2.68164 27.0387 3.38587 26.4476C3.64139 26.2331 3.89684 26.0197 4.14572 25.8119C4.58864 25.4419 5.01079 25.0893 5.37563 24.7786C5.6598 24.5365 5.90234 24.3257 6.08709 24.1572C6.17954 24.0729 6.25357 24.0028 6.30925 23.947C6.33696 23.9192 6.35792 23.8972 6.37309 23.8805L6.3748 23.8786C6.37447 23.866 6.37281 23.8462 6.36771 23.8173C6.34661 23.6977 6.28464 23.5328 6.1763 23.3062C6.1296 23.2085 6.07991 23.1105 6.02666 23.0055C6.0204 22.9932 6.01409 22.9807 6.00773 22.9682C5.94924 22.8528 5.8863 22.7278 5.82979 22.6046C5.72899 22.3848 5.59388 22.0608 5.59388 21.7292C5.59388 21.5924 5.62879 21.4412 5.6518 21.3467C5.68089 21.2272 5.72145 21.083 5.76994 20.9219C5.8673 20.5984 6.00516 20.1786 6.17013 19.6966C6.50062 18.731 6.94763 17.4934 7.41653 16.2309C8.34884 13.7207 9.38828 11.0566 9.77424 10.2418C10.4877 8.73566 11.7787 8.12193 12.337 7.8565C12.4447 7.80531 12.5251 7.76707 12.5689 7.73789C12.8676 7.5388 13.3407 7.17676 13.6576 6.92774C13.7352 6.64751 13.8407 6.28938 13.9505 5.96332C14.0093 5.78869 14.072 5.61527 14.1348 5.46458C14.1903 5.33129 14.2694 5.1567 14.3711 5.02112C14.4779 4.87866 14.613 4.80821 14.6526 4.78757C14.7145 4.75529 14.7771 4.73055 14.8287 4.71211C14.9335 4.67459 15.0588 4.63961 15.1904 4.6069C15.4573 4.54057 15.8138 4.46808 16.2252 4.39269C17.0515 4.24127 18.1437 4.07015 19.2832 3.90515C21.558 3.57576 24.0639 3.26467 25.0734 3.18054C25.5376 3.14186 26.1984 3.18337 26.922 3.26124C27.6598 3.34064 28.5111 3.46357 29.3791 3.60503C31.1052 3.88639 32.9224 4.24525 34.0935 4.49503C35.495 4.50779 37.6331 4.49852 39.5661 4.42981C40.5384 4.39525 41.4506 4.34592 42.1878 4.27782C42.9597 4.20652 43.446 4.12146 43.634 4.04835C44.7556 3.61218 49.7786 1.60725 52.5138 0.513877ZM52.8669 1.88042C50.1031 2.98514 45.2484 4.92268 44.1415 5.35316C43.7406 5.50905 43.0568 5.60352 42.3166 5.67189C41.5418 5.74346 40.6 5.79394 39.6159 5.82892C37.6461 5.89894 35.474 5.90796 34.0589 5.89477C33.978 5.89402 33.9004 5.88535 33.822 5.86861C32.668 5.62215 30.8625 5.26531 29.1538 4.9868C28.2992 4.8475 27.4752 4.72886 26.7722 4.65321C26.0551 4.57604 25.5097 4.54904 25.1896 4.57571C24.2248 4.65611 21.7539 4.96199 19.4838 5.2907C18.3508 5.45476 17.2785 5.62298 16.4775 5.76976C16.0753 5.84346 15.7525 5.90979 15.5281 5.96557C15.4923 5.97447 15.4605 5.98274 15.4324 5.99034C15.4307 5.99441 15.429 5.99859 15.4272 6.00288C15.3818 6.11185 15.3307 6.25154 15.2773 6.41014C15.1708 6.72632 15.0657 7.08589 14.9912 7.35827C14.925 7.60031 14.7838 7.82254 14.5775 7.98535C14.264 8.23272 13.7134 8.6575 13.3455 8.90276C13.1624 9.02483 12.9634 9.12428 12.7581 9.22688C12.16 9.52576 11.5083 9.85145 11.0395 10.8411C10.6851 11.5893 9.66802 14.1899 8.72893 16.7184C8.26213 17.9752 7.81972 19.2003 7.4947 20.1499C7.33192 20.6255 7.20051 21.0264 7.11054 21.3254C7.06536 21.4755 7.03274 21.5929 7.01207 21.6778C7.00468 21.7082 6.99998 21.7299 6.99706 21.7442C7.00449 21.7758 7.02843 21.8598 7.10232 22.0209C7.14604 22.1162 7.19746 22.2187 7.25654 22.3353C7.26276 22.3476 7.26907 22.3601 7.27546 22.3727C7.32773 22.4757 7.38514 22.5889 7.43938 22.7023C7.55718 22.9487 7.69049 23.2569 7.74645 23.5742C7.80419 23.9017 7.79299 24.3242 7.51163 24.6993C7.40376 24.8432 7.2158 25.0226 7.03049 25.1916C6.82802 25.3763 6.5712 25.5993 6.28338 25.8444C5.91393 26.1591 5.48207 26.5198 5.03498 26.8932C4.78731 27.1001 4.53496 27.3109 4.28597 27.5199C3.58144 28.1113 2.90045 28.6912 2.39228 29.1567C2.1369 29.3907 1.93678 29.5852 1.80219 29.7318C1.76093 29.7767 1.73008 29.8126 1.70783 29.84C1.68642 30.0641 1.71401 30.1714 1.76328 30.2258C1.80814 30.2753 2.11762 30.5318 3.38838 30.3333C4.12987 30.2174 5.0882 30.008 6.14689 29.7767C6.95963 29.5991 7.83151 29.4086 8.70984 29.2375C9.69452 29.0458 10.6697 28.8833 11.5122 28.812C12.3179 28.7437 13.131 28.7447 13.7104 28.9765C14.41 29.2563 15.662 29.42 16.8644 29.42C17.4548 29.42 17.9986 29.3803 18.4206 29.307C18.632 29.2702 18.7972 29.2276 18.9157 29.1845C19.0092 29.1505 19.046 29.126 19.0509 29.1234C19.1426 29.0284 19.2857 28.8255 19.4553 28.5112C19.6226 28.2012 19.793 27.8256 19.9433 27.4328C20.0937 27.0397 20.2196 26.6414 20.3022 26.2865C20.3877 25.9193 20.4154 25.6462 20.403 25.4847C20.3895 25.3098 20.2934 24.9298 20.1184 24.3622C20.0097 24.0098 19.8832 23.6235 19.7508 23.2188C19.6783 22.9973 19.604 22.7704 19.5298 22.5405C19.3239 21.9021 19.1214 21.2482 18.9862 20.6912C18.9187 20.413 18.8641 20.1436 18.8357 19.9032C18.8096 19.6823 18.7949 19.4077 18.8626 19.1594C18.976 18.7437 19.2796 18.163 19.5808 17.6372C19.8964 17.0864 20.2592 16.5118 20.5445 16.078C20.8573 15.6021 21.4276 15.4474 21.9063 15.5777C22.443 15.7237 23.384 15.8954 24.4419 15.8473C25.8896 15.7815 32.2291 15.4909 35.2181 15.3538L35.2341 15.353H35.2502C35.5732 15.353 36.0717 15.3883 36.5047 15.5113C36.7154 15.5712 36.9749 15.6692 37.1888 15.8432C37.2997 15.9334 37.4069 16.0532 37.4837 16.1999C37.6263 16.173 37.806 16.1278 38.0147 16.0631C38.3505 15.959 38.7122 15.8202 39.0266 15.6792C39.354 15.5323 39.5836 15.4036 39.6837 15.3285C39.8496 15.2041 40.2994 14.9113 40.8702 14.5397C40.9496 14.4881 41.0313 14.4349 41.1149 14.3804C41.8188 13.9218 42.6982 13.3466 43.5763 12.7493C44.4563 12.1507 45.3256 11.5363 46.0116 10.9992C46.3551 10.7303 46.6434 10.488 46.8608 10.2821C47.0938 10.0614 47.1935 9.93024 47.2187 9.88296C47.5983 9.17133 48.3589 8.28869 49.086 7.55124C49.8121 6.81478 50.6041 6.12306 51.0958 5.82803C51.3393 5.68195 51.7102 5.50629 52.0829 5.33245C52.1492 5.30156 52.2162 5.27037 52.2839 5.23891C52.6141 5.08536 52.9581 4.92545 53.2817 4.76361C53.6778 4.56559 54.0039 4.38388 54.2138 4.23116L54.2181 4.22797C54.1644 4.11536 54.0943 3.98467 54.0115 3.84389C53.8623 3.59023 53.7022 3.35382 53.6043 3.21912L53.5779 3.18268L52.8669 1.88042ZM1.66234 29.9024C1.66234 29.9024 1.66429 29.8983 1.67052 29.8891C1.66585 29.8978 1.66234 29.9024 1.66234 29.9024Z" fill="#EE0000"/>
</svg>
