<svg width="56" height="36" viewBox="0 0 56 36" fill="none" xmlns="http://www.w3.org/2000/svg">
<path fill-rule="evenodd" clip-rule="evenodd" d="M47.5133 1.46177L4.47936 19.095L4.45734 19.1024C3.36729 19.4667 2.7021 20.0774 2.26383 20.802C1.81286 21.5475 1.58375 22.4447 1.4369 23.3992C1.30468 24.2586 1.55382 24.4263 1.56959 24.4368C1.60139 24.458 1.6482 24.4728 1.70817 24.4712C1.7577 24.4699 1.78883 24.4583 1.79782 24.455C1.80095 24.4529 1.80121 24.4537 1.79782 24.455C2.10667 24.2491 2.61714 24.0358 3.09659 23.893C3.34384 23.8193 3.60739 23.7572 3.85806 23.7249C4.09248 23.6948 4.38548 23.6809 4.65547 23.758C4.7312 23.7796 4.86879 23.7702 4.97618 23.7035C5.0222 23.675 5.0562 23.6399 5.08002 23.5974C5.10311 23.5563 5.1291 23.4862 5.1291 23.3687C5.1291 22.6385 5.52398 22.0107 5.83217 21.6329C6.35544 20.9913 7.22491 21.1799 7.61477 21.6972L10.9265 26.0916C12.9848 25.2954 16.6831 23.8623 18.246 23.2483C20.4102 22.3981 23.9592 21.241 28.3576 20.7009C29.5138 20.5589 30.431 20.6389 31.1723 20.8775C31.9211 21.1186 32.453 21.5095 32.8503 21.9298C33.1859 22.2848 33.4277 22.667 33.6032 22.9442C33.6281 22.9836 33.6517 23.0209 33.6741 23.0557C33.7717 23.2078 33.8371 23.3008 33.8917 23.3619C33.8949 23.3655 33.898 23.3688 33.9008 23.3718C33.9183 23.3692 33.9411 23.365 33.9697 23.3585C34.0927 23.3302 34.2609 23.272 34.4778 23.1786C34.9125 22.9915 35.4405 22.7091 36.0325 22.3914L36.0519 22.381C36.625 22.0735 37.249 21.7386 37.841 21.4714C38.4263 21.2073 39.0527 20.9747 39.6134 20.9259C40.2137 20.8737 40.7898 21.039 41.2885 21.2661C41.7901 21.4944 42.2595 21.8067 42.6613 22.1042C42.9397 22.3105 43.2083 22.5275 43.431 22.7074C43.5237 22.7823 43.6085 22.8508 43.6827 22.9094C43.8151 23.014 43.9106 23.0849 43.9785 23.1285C44.2448 23.1436 44.7078 23.1949 45.1762 23.2506C45.7622 23.3203 46.4308 23.4066 46.9326 23.4733C47.3395 23.5274 47.6883 23.7856 47.8606 24.1552L52.3261 33.7329L53.6655 30.6651L52.3033 30.5546C51.6788 30.504 51.1885 29.9811 51.2004 29.3402C51.3284 22.4294 51.537 9.05955 51.4203 7.01736C51.3493 5.77407 51.0556 5.30733 50.8225 5.09498C50.6004 4.89265 50.3592 4.82269 49.9629 4.70774C49.8644 4.67919 49.7564 4.64787 49.6368 4.61105C49.2788 4.5009 49.0037 4.24286 48.8079 4.01164C48.6007 3.76697 48.4146 3.47041 48.2515 3.16878C47.9579 2.62567 47.703 1.99802 47.5133 1.46177ZM47.1667 0.0907952C47.8312 -0.181482 48.5567 0.185691 48.7763 0.831137C48.9575 1.36355 49.2074 1.993 49.4831 2.50299C49.6214 2.75888 49.7551 2.96375 49.8763 3.10694C49.9916 3.24309 50.053 3.27421 50.053 3.27421C50.053 3.27421 50.0514 3.27386 50.0485 3.27296C50.1072 3.29103 50.1746 3.30968 50.2486 3.33017C50.6598 3.44408 51.2768 3.61496 51.7654 4.06011C52.386 4.62559 52.7373 5.52479 52.8181 6.93749C52.9376 9.02962 52.7312 22.2551 52.6037 29.1744L54.0578 29.2923C54.8788 29.3588 55.3902 30.2137 55.0606 30.9685L53.4319 34.6992C53.0185 35.6462 51.6811 35.6627 51.2445 34.7262L46.6382 24.8465C46.1552 24.7826 45.5467 24.7045 45.0108 24.6408C44.4063 24.5689 43.9612 24.524 43.8477 24.524C43.6818 24.524 43.5459 24.474 43.4679 24.4404C43.3813 24.4031 43.3014 24.3569 43.2342 24.3143C43.1006 24.2295 42.9552 24.1188 42.8151 24.0081C42.7191 23.9324 42.6219 23.8538 42.5217 23.7728C42.3086 23.6005 42.0824 23.4177 41.828 23.2292C41.4613 22.9577 41.0818 22.7102 40.7084 22.5402C40.332 22.3688 40.0069 22.297 39.7346 22.3207C39.4227 22.3478 38.9771 22.4947 38.417 22.7475C37.8703 22.9942 37.2828 23.3093 36.6945 23.625L36.6816 23.6319C36.1111 23.9381 35.5295 24.2502 35.0312 24.4646C34.7797 24.5728 34.524 24.6676 34.2833 24.7229C34.0601 24.7742 33.7553 24.8149 33.4577 24.7157C33.1838 24.6244 32.9868 24.4501 32.8483 24.2953C32.7118 24.1426 32.594 23.9647 32.496 23.8121C32.4686 23.7695 32.4418 23.7273 32.4152 23.6856C32.2361 23.404 32.0691 23.1414 31.8328 22.8915C31.5756 22.6193 31.2395 22.3699 30.7433 22.2102C30.2397 22.0481 29.5349 21.9668 28.5283 22.0904C24.2757 22.6127 20.8433 23.7321 18.7579 24.5514C17.1543 25.1814 13.3145 26.669 11.2898 27.4522C10.7882 27.6462 10.2214 27.4822 9.89941 27.0549L6.70733 22.8193C6.59514 23.0136 6.5291 23.2054 6.5291 23.3687C6.5291 24.0704 6.19164 24.5969 5.71448 24.893C5.2717 25.1678 4.72632 25.2343 4.27086 25.1041L4.26953 25.104C4.25859 25.1027 4.18837 25.094 4.0367 25.1135C3.88185 25.1334 3.69483 25.1756 3.49626 25.2347C3.08405 25.3575 2.72135 25.5229 2.57489 25.6206C2.13717 25.9124 1.39357 26.0021 0.792909 25.6016C0.125843 25.1568 -0.118141 24.2999 0.0531817 23.1863C0.209878 22.1678 0.473706 21.0564 1.06592 20.0774C1.6676 19.0827 2.58918 18.2562 3.99094 17.7822L47.1667 0.0907952Z" fill="#EE0000"/>
</svg>
