<svg width="56" height="37" viewBox="0 0 56 37" fill="none" xmlns="http://www.w3.org/2000/svg">
<path fill-rule="evenodd" clip-rule="evenodd" d="M5.51227 0.289931C7.31359 0.295652 11.6709 0.539994 15.2704 1.49839C16.9941 1.95736 20.8426 2.51519 24.6589 2.9766C28.4626 3.43648 32.1482 3.7907 33.517 3.85227C34.8617 3.91276 35.7529 4.29266 36.0523 5.08223C36.1904 5.4466 36.1508 5.79063 36.0885 6.02648C36.026 6.26357 35.9275 6.44314 35.8802 6.52202L35.8745 6.53154L35.8716 6.53632C34.7887 8.57034 31.2744 12.3883 25.6769 11.625C24.9366 11.524 24.2653 11.4295 23.6539 11.3435C21.5326 11.0449 20.1323 10.8478 19.068 10.834C18.4033 10.8253 17.9184 10.8909 17.5056 11.031C17.0969 11.1697 16.718 11.3954 16.2841 11.7625C15.6699 12.2822 15.5884 13.1053 16.0139 14.3817C16.3501 15.3905 16.9322 16.464 17.5061 17.5226C17.6506 17.7891 17.7947 18.0548 17.9341 18.3182C18.5823 19.5425 19.1984 20.3788 19.8577 20.9255C20.4992 21.4574 21.2113 21.7402 22.1126 21.8046C22.5727 21.8375 23.1114 21.5412 23.6763 20.9134C24.2188 20.3104 24.6582 19.5385 24.9127 18.9701C25.0216 18.7269 25.2095 18.517 25.4599 18.3863L28.611 16.7423C28.7697 16.6595 28.9449 16.6133 29.1237 16.607L41.6389 16.1652L50.0313 16.3125C50.1618 16.3148 50.291 16.3383 50.4139 16.3822L52.1735 17.0107C52.5353 17.1399 52.8134 17.4345 52.9214 17.8032L55.2528 25.7571C55.4176 26.3195 55.1521 26.9187 54.6247 27.1744L50.1466 29.3456C50.0878 29.3741 50.0267 29.3978 49.964 29.4164L41.9693 31.7852L22.9856 36.02C22.5127 36.1255 22.0227 35.9362 21.7435 35.5402L15.5776 26.7931C15.5448 26.7467 15.5149 26.6976 15.4879 26.6441C13.2646 22.2468 8.70271 13.1925 8.21975 12.1058C8.1848 12.0272 8.05404 11.8236 7.78447 11.4746C7.53092 11.1463 7.19509 10.7401 6.80098 10.2768C6.28949 9.67546 5.69313 8.99352 5.0676 8.27823C4.72696 7.88871 4.37768 7.4893 4.02874 7.08764C3.04589 5.95629 2.06949 4.8112 1.33711 3.86136C0.971869 3.38766 0.656124 2.9482 0.428523 2.57475C0.31494 2.38838 0.214918 2.20488 0.1413 2.03239C0.0737547 1.87413 0 1.66137 0 1.43561C-5.96046e-08 0.723523 0.557232 0.369764 0.970712 0.219162C1.39721 0.0638183 1.92841 0.0110214 2.43971 0.00158254C3.47396 -0.01751 4.69084 0.139538 5.51227 0.289931ZM1.3378 1.58692C1.3378 1.58692 1.33988 1.58452 1.3468 1.58027C1.34173 1.58489 1.3378 1.58692 1.3378 1.58692ZM1.4519 1.53388C1.65793 1.45933 2.00229 1.4099 2.46555 1.40134C3.37625 1.38453 4.50088 1.52716 5.27588 1.66993C5.34647 1.68294 5.41679 1.68971 5.49076 1.68988C7.22106 1.69386 11.4619 1.93311 14.9102 2.85125C16.7468 3.34027 20.6983 3.90794 24.4908 4.36647C28.2958 4.82652 32.0276 5.18669 33.4541 5.25086C34.0524 5.27777 34.3932 5.37163 34.576 5.45843C34.6637 5.5001 34.7064 5.53606 34.7248 5.5547C34.734 5.5641 34.7386 5.57053 34.7405 5.57353C34.7424 5.5765 34.7432 5.57861 34.7432 5.57861C34.7432 5.57861 34.7521 5.60388 34.7349 5.66927C34.7179 5.73342 34.6883 5.78729 34.6796 5.80188L34.678 5.80448C34.6694 5.81876 34.6529 5.84628 34.6358 5.87839C33.7114 7.61478 30.6697 10.8929 25.8661 10.2378C25.1651 10.1422 24.5182 10.0511 23.9199 9.96674C21.7712 9.6639 20.2476 9.44916 19.0862 9.43408C18.323 9.42417 17.6675 9.49765 17.0557 9.70527C16.4399 9.91426 15.9102 10.2449 15.3798 10.6937C14.0654 11.8059 14.2211 13.4306 14.6857 14.8245C15.0651 15.9627 15.7262 17.1801 16.3048 18.2454C16.4417 18.4976 16.574 18.7412 16.6968 18.9732C17.3838 20.2709 18.1028 21.289 18.9641 22.0032C19.8433 22.7323 20.8372 23.1171 22.0128 23.201C23.1401 23.2816 24.0715 22.5673 24.717 21.8498C25.3664 21.128 25.8678 20.2495 26.1656 19.5973L29.2184 18.0045L41.6513 17.5657L49.9739 17.7117L51.6066 18.2948L53.8617 25.9885L49.5506 28.0787L41.6176 30.4292L22.8109 34.6245L16.7303 25.9985C14.4889 21.5653 9.96281 12.5806 9.49909 11.5372C9.38569 11.2821 9.1502 10.9525 8.89243 10.6188C8.61862 10.2643 8.266 9.83829 7.86736 9.36965C7.35014 8.76162 6.74214 8.06635 6.1118 7.34554C5.77265 6.95771 5.42704 6.56249 5.08562 6.16949C4.10279 5.03816 3.1506 3.92056 2.44581 3.00649C2.09247 2.54823 1.81248 2.15543 1.624 1.84616C1.54667 1.71929 1.49036 1.61554 1.4519 1.53388ZM35.8716 6.53632C35.8705 6.53826 35.8706 6.53811 35.8716 6.53632V6.53632Z" fill="#EE0000"/>
</svg>
