<svg width="54" height="33" viewBox="0 0 54 33" fill="none" xmlns="http://www.w3.org/2000/svg">
<path fill-rule="evenodd" clip-rule="evenodd" d="M45.7009 1.12605C45.7009 0.0875108 47.0188 -0.42435 47.6905 0.433582C49.402 2.61991 51.7533 5.90574 53.0031 7.67047C53.656 8.59244 54 9.68742 54 10.8139V29.8416C54 30.3251 53.7564 30.763 53.3639 31.0247L52.9599 31.294V31.7878C52.9599 32.2899 52.5529 32.6969 52.0508 32.6969H18.6157C18.2203 32.6969 17.7338 32.5893 17.2215 32.4347C16.6946 32.2757 16.084 32.0492 15.4196 31.7747C14.0899 31.2254 12.5077 30.4682 10.8843 29.6292C7.64137 27.9532 4.1817 25.9234 2.17669 24.516C2.00265 24.3939 1.82297 24.2937 1.63546 24.2168L0.510431 23.7552C0.129452 23.5989 -0.0772213 23.1849 0.0267961 22.7865L0.923929 19.35C1.146 18.4994 1.68767 17.7339 2.52292 17.3145C3.42538 16.8613 4.78445 16.2365 6.25387 15.6207C7.53966 15.0818 8.29139 14.4212 8.73379 13.6923C9.18024 12.9568 9.35729 12.0768 9.35729 11.018C9.35729 10.1923 9.36156 8.72479 9.3662 7.1337C9.37123 5.40555 9.37669 3.53161 9.37756 2.17602C9.37796 1.55611 9.93537 1.09498 10.538 1.19601L13.056 1.61819C13.224 1.24731 13.573 0.961268 14.0084 0.902545C16.0942 0.621237 17.6329 1.36867 18.6413 2.38164C19.6137 3.35851 20.1178 4.60878 20.1442 5.42784L20.1444 5.43353L20.2151 9.9052L33.2735 9.67271H33.2796C37.3219 9.67271 43.2784 9.61388 45.3626 9.33224C45.6301 9.29609 46.4338 9.04789 47.0586 8.57434C47.3632 8.34354 47.5826 8.09087 47.6962 7.82808C47.8016 7.58415 47.8352 7.28977 47.6987 6.90565C47.5234 6.41188 47.0327 5.71862 46.5125 5.06214C46.0001 4.41544 45.7009 3.61342 45.7009 2.76966V1.12605ZM47.0861 1.9158V2.76966C47.0861 3.28268 47.2681 3.78514 47.5983 4.2019C48.1015 4.83709 48.7406 5.70007 49.0041 6.44207C49.2552 7.14908 49.2149 7.8056 48.9678 8.37747C48.7289 8.93047 48.3174 9.35849 47.8954 9.67834C47.0671 10.3061 46.0352 10.6392 45.5481 10.705C43.3487 11.0022 37.2791 11.0579 33.2857 11.0579L20.1096 11.2925C19.4154 11.3049 18.843 10.7514 18.8321 10.0572L18.7595 5.46763C18.7438 5.0524 18.4237 4.12657 17.6595 3.35894C16.9423 2.63845 15.854 2.07892 14.2859 2.26369L14.2196 2.41692C14.0299 2.85554 13.5655 3.1082 13.0942 3.02918L10.7624 2.63821C10.7607 3.94871 10.7559 5.60227 10.7514 7.13911C10.7468 8.72456 10.7425 10.1858 10.7425 11.018C10.7425 12.2229 10.5423 13.3825 9.91799 14.4111C9.28966 15.4463 8.27723 16.2746 6.78932 16.8982C5.34242 17.5046 4.01298 18.1163 3.1446 18.5524C2.71359 18.7688 2.4001 19.1795 2.26425 19.6999L1.49139 22.6604L2.16124 22.9352C2.45297 23.0549 2.72259 23.2068 2.97253 23.3822C4.9079 24.7407 8.30804 26.7385 11.5203 28.3986C13.1244 29.2276 14.6685 29.9656 15.9485 30.4945C16.589 30.7591 17.1539 30.9674 17.6216 31.1085C18.1038 31.254 18.4308 31.3116 18.6157 31.3116H51.5746V31.2708C51.5746 30.8222 51.7989 30.4032 52.1722 30.1543L52.5955 29.8721C52.605 29.8657 52.6094 29.8596 52.6115 29.8559C52.6134 29.8524 52.6148 29.8482 52.6148 29.8416V10.8139C52.6148 9.97093 52.3579 9.15631 51.8726 8.47108C50.7379 6.86891 48.7128 4.03779 47.0861 1.9158Z" fill="#EE0000"/>
</svg>
