<?xml version="1.0" encoding="UTF-8" standalone="no"?>
<svg id="svg2" xmlns:rdf="http://www.w3.org/1999/02/22-rdf-syntax-ns#" xmlns="http://www.w3.org/2000/svg" height="869.95" width="737.5" version="1.1" xmlns:cc="http://creativecommons.org/ns#" xmlns:dc="http://purl.org/dc/elements/1.1/" viewBox="0 0 1.4750046 1.7399026">
 <metadata id="metadata14">
  <rdf:RDF>
   <cc:Work rdf:about="">
    <dc:format>image/svg+xml</dc:format>
    <dc:type rdf:resource="http://purl.org/dc/dcmitype/StillImage"/>
   </cc:Work>
  </rdf:RDF>
 </metadata>
 <path id="rect6" d="m0.69589 0.0027132c-0.002742 0.0000742-0.014694 0.0041735-0.027938 0.0095625-0.026153 0.010643-0.030985 0.0119-0.032125 0.0086875-0.000348-0.00098-0.007055-0.0025113-0.014875-0.003375-0.012256-0.001354-0.017054-0.0009085-0.034625 0.0033125-0.024008 0.0057684-0.031004 0.010726-0.031438 0.02225-0.000403 0.01072-0.005662 0.016505-0.015688 0.017125-0.008896 0.00055-0.020687-0.00496-0.020687-0.009625 0-0.001355-0.00253-0.0040365-0.00575-0.0059375-0.005138-0.003034-0.006847-0.0031165-0.014187-0.0010625-0.001852 0.00051886-0.003999 0.00087018-0.006063 0.001125v0.67669c0.003144 0.005706 0.004821 0.006563 0.010875 0.007375 0.010583 0.00142 0.013983 0.004474 0.012562 0.011562-0.00094 0.004663-0.000114 0.006785 0.004875 0.011938 0.00335 0.003453 0.00696 0.006312 0.008 0.006312 0.008884 0 0.037187 0.032818 0.037187 0.043125 0 0.004584-0.0008926 0.006029-0.004063 0.0065-0.00992 0.001475-0.009214 0.012089 0.001063 0.01575 0.00443 0.001579 0.00574 0.001173 0.00875-0.002812 0.00442-0.00586 0.013376-0.005517 0.025063 0.001 0.004449 0.002482 0.011015 0.005978 0.014625 0.007813 0.008133 0.004137 0.020945 0.017158 0.021 0.021312 0.00002 0.0017 0.002778 0.008595 0.006188 0.015375 0.005595 0.011118 0.006875 0.012382 0.012625 0.012938 0.010265 0.000993 0.033002 0.017508 0.037813 0.027438 0.0022 0.004547 0.004 0.009557 0.004 0.011188 0 0.00163 0.002797 0.00514 0.006187 0.00775 0.011217 0.008631 0.028848 0.026542 0.035687 0.036312 0.00635 0.009072 0.007729 0.010002 0.024625 0.015812 0.015602 0.005368 0.018935 0.007348 0.025875 0.015188 0.00438 0.004952 0.008256 0.010722 0.008563 0.012812 0.0004 0.00277 0.002233 0.00394 0.006813 0.00438 0.00346 0.00033 0.007357-0.0003375 0.008687-0.00144 0.00132-0.0011 0.005795-0.00312 0.009875-0.00456 0.006737-0.00236 0.008791-0.00216 0.022562 0.00187 0.015847 0.00463 0.024725 0.00555 0.026375 0.00288 0.002004-0.00324 0.012238 0.0002825 0.017688 0.00606 0.00644 0.00684 0.019288 0.02723 0.027688 0.043937 0.00314 0.00626 0.006805 0.013515 0.008125 0.016125 0.001897 0.00375 0.004047 0.00484 0.010438 0.00531 0.004448 0.00033 0.009957-0.0003725 0.012188-0.00156 0.003471-0.00186 0.005557-0.00116 0.014688 0.00506 0.01372 0.00934 0.014548 0.011678 0.006687 0.018188-0.011928 0.00988-0.012938 0.01092-0.012938 0.01375 0 0.00389 0.005402 0.00356 0.013562-0.0008125 0.0048-0.00257 0.00899-0.00333 0.01425-0.00263 0.00545 0.00073 0.00816 0.0001576 0.01-0.00206 0.00139-0.00167 0.004158-0.00306 0.006188-0.00306 0.00043322 0 0.00096462-0.0000472 0.0015-0.000125v-0.25619c-0.001824-0.00090912-0.004074-0.001717-0.006688-0.002437-0.002101-0.0005793-0.016682-0.013668-0.032438-0.029062-0.031075-0.030362-0.039875-0.042715-0.048125-0.06775-0.00241-0.007302-0.005955-0.0173-0.007875-0.022188s-0.0035-0.011956-0.0035-0.015625c0-0.00645-0.010256-0.03609-0.02375-0.068688-0.00359-0.008685-0.006111-0.016945-0.005563-0.018375 0.001158-0.003019-0.009818-0.01449-0.014188-0.014812-0.005225-0.000387-0.006595-0.000764-0.013875-0.004-0.008081-0.003593-0.020679-0.013498-0.04075-0.032188-0.019374-0.018042-0.028015-0.02387-0.037625-0.025312-0.007455-0.001118-0.010149-0.003154-0.024813-0.018562-0.00905-0.009509-0.018235-0.020245-0.020375-0.023875-0.009653-0.016355-0.019853-0.075758-0.016063-0.093438 0.00215-0.010063 0.003345-0.010968 0.006875-0.005312 0.0013 0.002086 0.004108 0.003812 0.006188 0.003812 0.00294 0 0.003861-0.001383 0.004062-0.006187 0.000192-0.004645 0.0004324-0.005048 0.001062-0.00175 0.001253 0.006578 0.004673 0.004137 0.010563-0.007375 0.006247-0.012223 0.006308-0.021375 0.000188-0.02225-0.005663-0.0008089-0.01559-0.011815-0.03-0.033188l-0.0125-0.0185 0.007625-0.015062c0.006781-0.013487 0.008899-0.016032 0.020125-0.023562 0.010892-0.007308 0.013163-0.00815 0.017063-0.006375 0.00337 0.001535 0.00402 0.002674 0.0025 0.0045-0.00111 0.001339-0.00314 0.002023-0.0045 0.0015-0.004561-0.00175-0.02575 0.02246-0.02575 0.029438 0 0.004209 0.003232 0.001889 0.006313-0.004563 0.00174-0.003651 0.00455-0.006625 0.00625-0.006625 0.001704 0 0.012158-0.004871 0.02325-0.010812 0.041149-0.022041 0.051995-0.027125 0.057625-0.027125 0.00574 0 0.005765-0.0000975 0.004625-0.008437-0.0009002-0.006567-0.000405-0.009322 0.002375-0.01275l0.003563-0.004375 0.012875 0.003438c0.007075 0.001886 0.014545 0.004609 0.016625 0.006062 0.003395 0.002375 0.003475 0.002719 0.000625 0.003812-0.004055 0.001557-0.004155 0.006563-0.000124 0.006563 0.001688 0 0.006387-0.00191 0.010438-0.004188 0.00573-0.003221 0.007313-0.005319 0.007313-0.009313 0-0.002826 0.00126-0.005553 0.00275-0.006125 0.004153-0.001594 0.0173 0.008955 0.02275 0.01825 0.006005 0.010251 0.006015 0.010812 0.000125 0.010812-0.00295 0-0.00475 0.001105-0.00475 0.002875 0 0.004836 0.018602 0.003813 0.024062-0.001313 0.00448-0.004211 0.00568-0.008304 0.00275-0.009437-0.0009-0.000347-0.004215-0.004835-0.007375-0.009937-0.004822-0.007796-0.007671-0.010012-0.017812-0.014312-0.009115-0.003866-0.012495-0.006415-0.013875-0.010312-0.00137-0.00385-0.00116-0.00563 0.00075-0.006812 0.00141-0.0008705 0.002988-0.005923 0.0035-0.01125 0.00085-0.008827 0.00057-0.009625-0.003-0.009625-0.00216 0-0.00448 0.000832-0.005125 0.001875-0.00179 0.002906-0.006075 0.002249-0.007375-0.001125-0.001566-0.004082 0.003662-0.012513 0.010562-0.017 0.00864-0.005616 0.012782-0.019788 0.005812-0.019875-0.001828-0.000022-0.007077-0.00172-0.011688-0.003812-0.005745-0.002606-0.009035-0.00321-0.010375-0.001875-0.0031 0.003097-0.00443 0.002324-0.0065-0.003625-0.0018-0.005183-0.001322-0.006153 0.006938-0.013875 0.004876-0.004559 0.013352-0.010805 0.018812-0.013875 0.00923-0.005184 0.01375-0.011304 0.01375-0.018688 0-0.00343-0.023026-0.008728-0.043188-0.009875-0.018986-0.0010801-0.06033-0.0086175-0.06875-0.012562-0.00261-0.001222-0.00689-0.002464-0.0095-0.00275-0.034462-0.0037793-0.039668-0.0061811-0.047437-0.02175-0.005889-0.011795-0.01421-0.022438-0.0175-0.022438-0.00282 0-0.00626-0.0043745-0.0085-0.010812-0.00225-0.0064465-0.002115-0.0068475 0.006125-0.011062 0.00453-0.0023158 0.006225-0.011834 0.002375-0.013312-0.000078-0.0000298-0.0002264-0.000008-0.0003752 0h-0.000062zm0.031562 0.54944c0.0003658-0.000018 0.0006324 0.0000698 0.0008752 0.0003125 0.0006404 0.000641 0.0006666 0.003282 0 0.005938-0.00131 0.005207-0.005768 0.00653-0.007438 0.002188-0.00096-0.002502 0.004003-0.008314 0.006562-0.008437zm0.10256 0.94012c-0.002278 0.0000746-0.005563 0.0004675-0.010625 0.00119-0.01151 0.00164-0.01534 0.00302-0.0195 0.00719-0.00406 0.00407-0.004747 0.0057-0.002938 0.0075 0.00126 0.00126 0.002313 0.003 0.002313 0.00381 0 0.00197-0.014182 0.00912-0.018063 0.00912-0.001674 0-0.00705-0.00417-0.012-0.00925l-0.009062-0.00925-0.0115 0.00687c-0.006383 0.00379-0.013303 0.00902-0.015312 0.011625-0.00493 0.0064-0.00877 0.018555-0.008188 0.025875 0.00031 0.0039-0.0005924 0.00665-0.002562 0.00775-0.002648 0.00148-0.002708 0.00292-0.0006876 0.011688 0.001985 0.0086 0.00392 0.011485 0.01375 0.020375l0.011438 0.010375 0.016625-0.00125c0.015853-0.00124 0.017053-0.00116 0.023813 0.0035 0.003902 0.00269 0.010872 0.00578 0.015563 0.00681 0.006642 0.00145 0.010422 0.00396 0.017062 0.011313 0.007939 0.00878 0.031748 0.023063 0.038438 0.023062 0.001355 0 0.006045 0.0037 0.010375 0.00831 0.00445 0.00473 0.013152 0.01095 0.020062 0.01425 0.011314 0.0054 0.013346 0.0058 0.02625 0.00475 0.01263-0.00102 0.01478-0.0006825 0.0225 0.00369 0.011739 0.00664 0.022198 0.017294 0.029188 0.029688 0.005493 0.00974 0.007163 0.010968 0.024625 0.019687 0.002631 0.00131 0.004819 0.00241 0.006812 0.00338v-0.21381c-0.017836 0.00997-0.046437 0.014392-0.07175 0.010687-0.015035-0.0022-0.015555-0.00217-0.023625 0.00256-0.013166 0.00771-0.020996 0.00669-0.044188-0.00575-0.015848-0.0085-0.019688-0.011338-0.019688-0.014687 0-0.00229-0.00125-0.00593-0.00275-0.00806-0.001601-0.00228-0.002579-0.00312-0.006375-0.003z" stroke="#ce2b37" stroke-width=".0054" fill="#fff"/>
 <path id="rect8" d="m0.98239 0.8414v0.2715c0.00435 0.0003953 0.00667-0.0002711 0.00831-0.00225 0.00139-0.00167 0.00416-0.00306 0.00619-0.00306 0.00202 0 0.00544-0.0009225 0.00756-0.00206 0.00578-0.00309 0.01392 0.00556 0.02275 0.024188 0.00818 0.017278 0.00844 0.018657 0.00463 0.026437-0.00574 0.011723-0.00461 0.01676 0.00519 0.0225 0.00453 0.00265 0.00947 0.0048 0.010938 0.00481 0.00147 0.00001 0.010033 0.00685 0.019062 0.015187 0.00903 0.00834 0.018018 0.015188 0.019938 0.015188s0.0059-0.00298 0.00881-0.00663c0.00929-0.011646 0.020505-0.00744 0.030375 0.011375 0.00539 0.010275 0.00654 0.014858 0.00825 0.03225 0.00118 0.011948 0.00893 0.029081 0.019625 0.043562 0.00685 0.00928 0.011313 0.023336 0.011313 0.035375 0 0.010846 0.00589 0.036465 0.010375 0.045125 0.00177 0.00343 0.00487 0.00666 0.00687 0.00719 0.00478 0.00125 0.00495 0.014022 0.000312 0.023312-0.00324 0.00649-0.00355 0.00657-0.013313 0.00594-0.00863-0.00056-0.01129 0.00023-0.0195 0.0055-0.00813 0.00521-0.013187 0.010512-0.013187 0.013812 0 0.00047 0.00164 0.00123 0.00362 0.00175s0.00489 0.00297 0.0065 0.00544c0.00254 0.00391 0.00263 0.00591 0.0004375 0.01525-0.00369 0.015745-0.011738 0.029393-0.018688 0.031813-0.00744 0.00259-0.00894 0.00253-0.00894-0.0004375 0-0.00135-0.00331-0.0033-0.00737-0.00438-0.00706-0.00188-0.00869-0.00141-0.035687 0.012063l-0.028188 0.014125-0.0075-0.00319c-0.00413-0.00174-0.012-0.00312-0.0175-0.00313-0.00855-0.00001-0.011382 0.00099-0.019562 0.007-0.00571 0.00419-0.013183 0.00767-0.021625 0.01025v0.19906c0.00249 0.00134 0.00542 0.00281 0.00919 0.00469 0.017085 0.00853 0.019265 0.00926 0.025625 0.00756 0.00828-0.00221 0.024748 0.00123 0.027688 0.00581 0.00239 0.00373 0.010215 0.00387 0.011625 0.0001874 0.00059-0.00153-0.0003425-0.00655-0.00206-0.011062-0.00295-0.00773-0.00292-0.00871 0.000375-0.017562 0.00279-0.00751 0.00545-0.01069 0.013375-0.016 0.00989-0.00664 0.00991-0.00666 0.00944-0.016124-0.00038-0.00774-0.00116-0.0096-0.00425-0.010188-0.00817-0.00156-0.021567-0.029488-0.022062-0.046-0.00031-0.010285 0.0001724-0.011965 0.00456-0.015625 0.0053-0.00442 0.010812-0.020334 0.010812-0.031125 0-0.00681 0.00737-0.018888 0.025813-0.042625 0.00639-0.00821 0.011448-0.017405 0.014188-0.025625 0.00234-0.00705 0.00464-0.011497 0.00506-0.00994 0.00043 0.00156 0.00164 0.00471 0.00275 0.007 0.00116 0.00239 0.00164 0.00947 0.00106 0.016625-0.00094 0.011672-0.0006375 0.012763 0.00431 0.018063 0.00291 0.00311 0.0064 0.00575 0.00781 0.00581 0.034307 0.00158 0.040677 0.00138 0.043937-0.00156 0.00467-0.0042 0.00835-0.012994 0.00975-0.023188 0.00163-0.011881 0.02065-0.035012 0.03025-0.036812 0.00387-0.00073 0.00956-0.00426 0.014188-0.00875 0.00758-0.00736 0.00783-0.00787 0.00781-0.020375-0.00001-0.00704-0.00124-0.017257-0.00269-0.022687-0.00382-0.014342 0.0004705-0.022298 0.017562-0.032625 0.017378-0.010501 0.028123-0.013588 0.038062-0.010938 0.00425 0.00113 0.00775 0.00273 0.00775 0.00356 0 0.0008251 0.00121 0.00156 0.00275 0.00156 0.00713 0 0.011357-0.021813 0.00569-0.029313-0.00344-0.00456-0.00378-0.033212-0.0005625-0.046 0.00206-0.00819 0.00192-0.00889-0.00238-0.012188-0.00251-0.00192-0.00754-0.00484-0.011187-0.00656-0.00365-0.00172-0.013187-0.00818-0.021187-0.014312-0.012354-0.00947-0.015695-0.011125-0.022375-0.011125-0.00432 0-0.00955-0.0008575-0.011562-0.00194-0.00397-0.00212-0.01125-0.014995-0.01125-0.019875 0-0.00165 0.00343-0.00924 0.00762-0.016875 0.00623-0.011352 0.00753-0.01552 0.00725-0.023-0.0003-0.00805 0.0003675-0.00976 0.00544-0.014062 0.00589-0.00499 0.011875-0.014925 0.011875-0.019625 0-0.00144 0.00339-0.00748 0.00756-0.013437 0.00417-0.00596 0.00756-0.011483 0.00756-0.01225 0-0.00239 0.01395-0.015855 0.018-0.017375 0.00212-0.000795 0.00947-0.000625 0.016375 0.000375l0.012562 0.00187-0.00456 0.00481c-0.00249 0.00269-0.00415 0.00574-0.00381 0.00675 0.000336 0.00101 0.00739 0.00575 0.015687 0.010563 0.01337 0.00775 0.01625 0.00878 0.0255 0.0085 0.014405-0.00044 0.03776 0.00292 0.04275 0.00619 0.00649 0.00425 0.016695 0.02811 0.015625 0.0365-0.00049 0.00382 0.0000924 0.00928 0.00131 0.012188 0.00307 0.00734 0.019185 0.020292 0.025375 0.020375 0.00276 0.00003 0.00714 0.00132 0.00975 0.00281s0.00665 0.00271 0.009 0.00275c0.00396 0.000062 0.00425-0.000755 0.00425-0.011375 0-0.012981 0.00301-0.02144 0.01025-0.02925 0.00663-0.00712 0.0063-0.012798-0.00148-0.029676-0.00675-0.014639-0.014548-0.023357-0.039063-0.043375-0.00929-0.00758-0.01283-0.01186-0.0145-0.0175-0.00264-0.00892-0.0056-0.011343-0.0205-0.016812-0.00622-0.00228-0.019435-0.00795-0.029374-0.012563-0.015129-0.00702-0.020675-0.01097-0.034188-0.024125-0.017356-0.016897-0.022459-0.01972-0.06075-0.034563-0.035055-0.013589-0.043098-0.017248-0.071125-0.032188-0.014604-0.00778-0.02841-0.014656-0.03075-0.01525-0.00233-0.0006-0.00693-0.004047-0.010125-0.007687-0.0048-0.005465-0.00572-0.007965-0.00525-0.014375 0.000546-0.007387 0.0011-0.008058 0.011687-0.013438 0.00612-0.003108 0.014033-0.008548 0.017563-0.012188 0.00739-0.007611 0.00822-0.01412 0.00325-0.026125-0.00422-0.010196-0.011297-0.01253-0.030938-0.01025-0.025376 0.002942-0.0869 0.004493-0.0915 0.002313-0.00232-0.0011-0.00699-0.00301-0.010313-0.00425-0.00332-0.00124-0.00648-0.00339-0.007-0.00475-0.000521-0.00136-0.00551-0.003982-0.011062-0.005812-0.018225-0.006026-0.028125-0.014194-0.028125-0.023188 0-0.003482-0.00447-0.006632-0.012375-0.008813-0.0009373-0.00025844-0.00441-0.003105-0.00931-0.007437z" stroke="#ce2b37" stroke-width=".0054" fill="#ce2b37"/>
 <path id="rect4" d="m0.48158 0.044465c-0.00238 0.0000846-0.00282 0.002066-0.00406 0.00925-0.00118 0.006845-0.000925 0.014606 0.000875 0.0255 0.00142 0.00863 0.00209 0.01696 0.0015 0.0185-0.00248 0.006449-0.02635 0.000538-0.02475-0.006125 0.00284-0.011815-0.01423-0.007562-0.023 0.005688-0.00284 0.0043-0.00552 0.011231-0.006 0.0155-0.00082 0.007299-0.0004424 0.008121 0.00669 0.013062 0.00685 0.004746 0.0077 0.006283 0.00887 0.015688 0.00145 0.01157-0.0005124 0.015875-0.00731 0.015875-0.00502 0-0.010625-0.008723-0.010625-0.016562 0-0.00319-0.00162-0.00714-0.00381-0.009125-0.00365-0.003306-0.00435-0.003274-0.013937-0.00025-0.00602 0.001896-0.012095 0.005476-0.015125 0.008875-0.011867 0.013319-0.033468 0.001638-0.0335-0.018125-0.00002-0.006323-0.0009726-0.008483-0.00556-0.011875-0.00505-0.003732-0.00628-0.003876-0.012688-0.00175-0.00567 0.001881-0.0075 0.003613-0.00881 0.008687-0.00131 0.005076-0.0009552 0.006802 0.00163 0.008688 0.00736 0.005379-0.00195 0.034882-0.013375 0.042312-0.00922 0.005997-0.02306 0.034606-0.0195 0.040312 0.00132 0.002117 0.00386 0.004295 0.00569 0.004875 0.00658 0.002086 0.00172 0.015156-0.00513 0.013812-0.00396-0.0007765-0.00541-0.003118-0.00869-0.01425-0.00169-0.005728-0.00357-0.008248-0.00681-0.009063-0.00474-0.001188-0.00601-0.006366-0.00244-0.009938 0.00113-0.001131 0.00179-0.004038 0.00144-0.0065-0.000819-0.005783-0.012298-0.011615-0.017438-0.008875-0.00569 0.003032-0.01371-0.001711-0.024187-0.01425-0.00842-0.010076-0.00946-0.012224-0.00831-0.017312 0.0007194-0.003192 0.00148-0.011345 0.00162-0.018125 0.0002698-0.012137 0.00017-0.012343-0.005-0.012938-0.00546-0.0006277-0.0185 0.006067-0.0185 0.0095 0 0.001058-0.00402 0.009292-0.00894 0.018312-0.00592 0.01086-0.00874 0.018166-0.00838 0.021688 0.00037 0.00351-0.0019 0.009467-0.00669 0.0175-0.00692 0.011594-0.011233 0.015006-0.020563 0.016438-0.00216 0.000331-0.00493 0.003306-0.0065 0.006875-0.00235 0.005359-0.00351 0.006126-0.00762 0.005125-0.00266-0.000644-0.00799-0.003268-0.011875-0.005812-0.00971-0.006352-0.01803-0.005971-0.028 0.00125-0.00667 0.004831-0.00917 0.005625-0.0145 0.004625-0.00487-0.000912-0.00783-0.0002375-0.011937 0.002687-0.00739 0.005262-0.020148 0.005283-0.022938 0.0000625-0.00274-0.00511-0.00689-0.004793-0.00825 0.000625-0.00125 0.004987-0.00943 0.009508-0.014375 0.007938-0.00182-0.000577-0.00558 0.0007425-0.00838 0.002937-0.00412 0.003244-0.005 0.005498-0.005 0.0125 0 0.007664 0.00118 0.009989 0.011375 0.022312 0.00631 0.00764 0.011375 0.015612 0.011375 0.017938 0 0.002303 0.00209 0.006075 0.00462 0.008375 0.018235 0.01659 0.016805 0.014243 0.015625 0.026875-0.00059 0.006337-0.00161 0.012994-0.00231 0.014812-0.000698 0.001819-0.00822 0.006774-0.01675 0.011-0.013245 0.006564-0.016245 0.007414-0.020625 0.00575-0.00402-0.001532-0.00703-0.001126-0.013875 0.001812-0.0048 0.002056-0.0099 0.003688-0.011375 0.003688-0.00148 0-0.00275 0.00131-0.00275 0.002875 0 0.001564 0.000709 0.002812 0.00156 0.002812 0.00085 0 0.00492 0.007576 0.009 0.016812 0.00853 0.019324 0.016454 0.026812 0.028313 0.026812 0.01113 0 0.01425 0.00272 0.01425 0.012188 0 0.005014-0.00134 0.009988-0.00344 0.01275-0.0019 0.002488-0.00692 0.010624-0.011188 0.018125l-0.00781 0.013625 0.00206 0.013875c0.00159 0.010661 0.00352 0.015863 0.00838 0.022625 0.00711 0.009897 0.00815 0.010704 0.032437 0.024188 0.019913 0.011057 0.028541 0.012306 0.042437 0.006 0.0091-0.00413 0.015855-0.005082 0.013875-0.001875-0.00069 0.00112 0.0005524 0.00403 0.00281 0.006437 0.00383 0.004072 0.00396 0.00485 0.00144 0.010875-0.00149 0.003562-0.00761 0.011759-0.013625 0.01825l-0.010937 0.011812 0.00231 0.0085 0.00244 0.0085h0.01475c0.010385 0 0.015295-0.0007805 0.016875-0.002688 0.00123-0.001483 0.00582-0.003271 0.010188-0.004 0.015111-0.00252 0.03925-0.017256 0.03925-0.023938 0-0.004403 0.012297-0.029248 0.015437-0.031188 0.00124-0.000766 0.00486-0.001908 0.00806-0.002562 0.00595-0.001217 0.00957-0.006063 0.011437-0.015375 0.00145-0.007189 0.012282-0.017415 0.026187-0.024625l0.01225-0.006312 0.027313 0.007188c0.033257 0.008688 0.036962 0.009985 0.044313 0.016312 0.018897 0.016264 0.041276 0.029989 0.05975 0.036625 0.010644 0.003824 0.020852 0.006921 0.022812 0.006937 0.00439 0 0.019975 0.01739 0.024625 0.0275 0.00247 0.005362 0.0039 0.0147 0.00488 0.031812 0.00076 0.013317 0.00208 0.024683 0.003 0.02525 0.0009118 0.000567 0.00163 0.002998 0.00163 0.005375 0 0.002449 0.00338 0.007719 0.00769 0.01225 0.01403 0.014745 0.02166 0.036481 0.0195 0.055375-0.0007898 0.006849-0.00002 0.010686 0.00381 0.01825 0.0006276 0.001239 0.00123 0.002302 0.00175 0.00325v-0.67669c-0.00305 0.00037704-0.00596 0.00048332-0.00775 0.000125-0.00133-0.000265-0.00239-0.00046568-0.00319-0.0004375zm-0.15594 0.96074c-0.00472 0-0.00813 0.00355-0.00813 0.00856 0 0.0029-0.00264 0.00553-0.00925 0.00913-0.00851 0.00463-0.026813 0.023272-0.026813 0.027312 0 0.00368-0.00887 0.00954-0.016125 0.010625-0.00463 0.0007-0.00912 0.00288-0.011563 0.00569-0.00577 0.00663-0.01077 0.00881-0.02025 0.00881-0.012083 0-0.018807-0.00293-0.023687-0.010438-0.0072-0.011082-0.00997-0.00849-0.01425 0.013313-0.00182 0.00926-0.00225 0.0159-0.00119 0.017 0.0024 0.00248 0.0022 0.011178-0.0003124 0.013688-0.00256 0.00255-0.00162 0.010453 0.00137 0.011437 0.00122 0.0004 0.00275-0.0008525 0.00338-0.00281 0.00086-0.00274 0.00246-0.0034 0.00687-0.00275 0.00641 0.00094 0.01029 0.00723 0.02075 0.033562 0.00713 0.017954 0.00785 0.037076 0.00194 0.052625-0.00208 0.00549-0.00439 0.01418-0.00506 0.01925l-0.00119 0.00919 0.0095-0.00131c0.00889-0.00122 0.00959-0.000995 0.010562 0.00313 0.00146 0.00619-0.00104 0.019118-0.00387 0.020062-0.0013 0.00043-0.00238-0.0005375-0.00238-0.00219 0-0.00336-0.00157-0.00376-0.00544-0.00131-0.002 0.00127-0.00233 0.00445-0.00138 0.013688 0.00096 0.00922 0.0003176 0.015294-0.00256 0.025562-0.00515 0.018349-0.00555 0.0272-0.00144 0.0295 0.00435 0.00243 0.00409 0.00785-0.0005624 0.012063-0.00486 0.0044-0.00479 0.00555 0.0009374 0.013062 0.00587 0.0077 0.00592 0.00875 0.00025 0.00875-0.00594 0-0.00943 0.00433-0.00781 0.00981 0.00567 0.01922 0.012473 0.023818 0.016313 0.011 0.0032-0.010691 0.00736-0.00978 0.012813 0.00281 0.00575 0.013295 0.00843 0.0156 0.015312 0.013 0.00393-0.00149 0.00642-0.00138 0.00981 0.0005 0.00743 0.00412 0.0126 0.00305 0.02075-0.00431 0.011533-0.010421 0.013825-0.015939 0.011375-0.027377-0.00234-0.010909-0.00263-0.024425-0.0005626-0.024438 0.000782 0 0.00858 0.00144 0.017313 0.00325 0.013203 0.00274 0.01725 0.00455 0.024 0.0105 0.00597 0.00525 0.00978 0.00708 0.014437 0.00706 0.00936-0.000043 0.011532-0.0022 0.012125-0.0125 0.0003-0.00507 0.00314-0.020909 0.00638-0.035125 0.00418-0.018402 0.00588-0.030646 0.00588-0.042625 0-0.00926 0.00125-0.023508 0.00281-0.031687 0.00436-0.022767 0.00377-0.031118-0.00288-0.040938-0.00335-0.00496-0.00562-0.010775-0.00562-0.014375 0-0.00653 0.00865-0.020223 0.014875-0.023562 0.00346-0.00185 0.00975-0.017318 0.00975-0.023937 0-0.00174-0.00214-0.00571-0.00475-0.00881-0.00322-0.00382-0.00469-0.00793-0.00469-0.01275 0-0.012152-0.014968-0.045636-0.020438-0.04575-0.00256-0.00005-0.00213-0.00103 0.00194-0.00438 0.00645-0.00528 0.00646-0.00627 0.000062-0.019313-0.00499-0.010179-0.00588-0.010839-0.0255-0.020875-0.01116-0.00571-0.021852-0.010375-0.023812-0.010375z" stroke="#009246" stroke-width=".0054" fill="#009246"/>
</svg>
