<svg width="56" height="36" viewBox="0 0 56 36" fill="none" xmlns="http://www.w3.org/2000/svg">
<path fill-rule="evenodd" clip-rule="evenodd" d="M22.6955 0.0385034C22.7957 0.0124732 22.8989 -0.000464518 23.0025 1.2736e-05L53.8519 0.142136C54.1008 0.143283 54.3574 0.223832 54.568 0.387338C54.8462 0.603339 55.0864 0.842781 55.2363 1.11517C55.3975 1.40803 55.4631 1.76234 55.3263 2.11805C55.2018 2.44157 54.9518 2.65251 54.7331 2.78717C54.5078 2.92594 54.2441 3.02807 53.9792 3.10657C52.9825 3.40202 51.5065 3.49202 50.3434 3.49547L49.9872 4.65303C49.9136 4.89216 49.7651 5.11046 49.5498 5.2659C48.2802 6.18249 45.1456 8.02022 41.4928 8.90575C39.7061 9.33889 38.6003 9.50679 37.8475 9.6211C37.62 9.65563 37.4248 9.68528 37.2527 9.71587C36.8908 9.78021 36.6423 9.84601 36.3803 9.96244C36.11 10.0826 35.797 10.2693 35.325 10.6065C35.0914 10.7733 34.845 11.0914 34.6109 11.5821C34.3812 12.0635 34.1896 12.6554 34.0345 13.3009C33.7243 14.5917 33.5793 16.0154 33.5374 17.0102C33.519 17.4481 33.2656 17.8478 32.8635 18.0448L26.4649 21.1814C25.8828 21.4668 25.1794 21.2383 24.8761 20.6654L16.6368 5.10227L15.0062 5.86961L11.7963 9.5734L15.5794 16.6179C15.6264 16.7054 15.6623 16.7983 15.6864 16.8946L16.1271 18.6575C16.2682 19.2216 15.9844 19.8057 15.4538 20.0435L12.17 21.5156C11.647 21.75 11.0312 21.5819 10.6999 21.1142L8.91915 18.6002C8.35918 18.893 7.68171 19.2652 7.09967 19.6224C6.77935 19.8189 6.49875 20.0044 6.2859 20.1647C6.07521 20.3234 5.99522 20.4109 5.98041 20.4271C5.97827 20.4294 5.97787 20.4297 5.97787 20.4297C5.92273 20.5216 5.81319 20.7925 5.6764 21.236C5.5474 21.6542 5.41236 22.1641 5.2935 22.682C5.17453 23.2004 5.0742 23.7162 5.01239 24.1468C4.94583 24.6104 4.93874 24.883 4.95336 24.9708C4.95291 24.968 4.95356 24.97 4.95597 24.9775C4.96354 25.0009 4.98849 25.078 5.05116 25.2305C5.12376 25.4073 5.2267 25.638 5.35585 25.9145C5.61361 26.4663 5.9645 27.1763 6.35879 27.9543C7.14669 29.509 8.0981 31.316 8.80094 32.6318C9.13417 33.2555 8.85898 34.031 8.20635 34.3047L4.81045 35.7288C4.23123 35.9717 3.62033 35.7206 3.31029 35.2739C3.15524 35.0505 2.9718 34.835 2.79464 34.6926C2.63854 34.567 2.56419 34.5578 2.55802 34.5563C2.44161 34.5766 2.33881 34.6125 2.19075 34.6641C2.16992 34.6714 2.14819 34.679 2.12541 34.6869L2.11046 34.6921C1.96519 34.7426 1.67571 34.8434 1.36593 34.8021C0.960979 34.7481 0.681056 34.4926 0.496983 34.1823C0.329114 33.8994 0.205438 33.5171 0.0968207 33.0464C-0.0356603 32.4723 -0.0223706 31.4802 0.0792829 30.2887C0.183892 29.0625 0.39198 27.5295 0.69963 25.8156C1.31479 22.3886 2.33404 18.2048 3.74277 14.2604C5.85739 8.33948 9.52751 4.86016 11.539 3.57047L11.1362 1.9599C10.9378 1.16665 11.5736 0.411627 12.389 0.472029L19.1084 0.969745L22.6955 0.0385034ZM23.0221 1.40012L19.4282 2.33314C19.3009 2.36618 19.1691 2.37808 19.038 2.36836L12.5615 1.88864L12.9294 3.35944C13.0639 3.89732 12.8123 4.4263 12.3794 4.69552C10.6488 5.77181 7.1008 9.02042 5.06121 14.7313C3.6831 18.59 2.68179 22.6971 2.07761 26.063C1.77558 27.7455 1.5743 29.2345 1.47422 30.4077C1.37117 31.6155 1.38444 32.3999 1.46097 32.7316C1.53494 33.0521 1.60077 33.2504 1.65201 33.3692C1.65684 33.3676 1.66182 33.3659 1.66695 33.3641C1.68337 33.3584 1.70138 33.352 1.72083 33.3451C1.86485 33.2942 2.08827 33.2152 2.33636 33.1739C2.89573 33.0807 3.37003 33.3588 3.67197 33.6016C3.95902 33.8324 4.20643 34.1235 4.3958 34.3846L7.46303 33.0983C6.76946 31.7975 5.86614 30.0792 5.11 28.5872C4.71324 27.8043 4.35455 27.0789 4.08741 26.507C3.95411 26.2216 3.84076 25.9684 3.75615 25.7625C3.68154 25.5808 3.60047 25.3693 3.57241 25.2009C3.51736 24.8706 3.56252 24.3942 3.62659 23.9478C3.69542 23.4683 3.80411 22.9129 3.92898 22.3688C4.05397 21.8242 4.19762 21.2804 4.33859 20.8233C4.47178 20.3916 4.6235 19.9658 4.77738 19.7094C4.93023 19.4546 5.20886 19.2232 5.44362 19.0464C5.70657 18.8484 6.029 18.6368 6.36743 18.4291C7.0461 18.0127 7.83268 17.5852 8.43674 17.2731C8.97192 16.9965 9.61845 17.1653 9.95902 17.6461L11.7473 20.1708L14.7283 18.8345L14.3343 17.2584L10.4977 10.1143C10.262 9.67562 10.3219 9.13698 10.648 8.76066L13.9759 4.92074C14.0855 4.79428 14.2204 4.69213 14.3718 4.62088L16.2133 3.75428C16.7931 3.48143 17.485 3.71227 17.7848 4.2786L26.0227 19.839L32.1437 16.8385C32.194 15.7889 32.3478 14.3279 32.6732 12.9738C32.8418 12.2722 33.0612 11.5789 33.3473 10.9793C33.6289 10.3891 34.0027 9.83055 34.5112 9.46729C35.0146 9.10777 35.4158 8.85906 35.8117 8.68311C36.216 8.50344 36.5858 8.41248 37.0076 8.33748C37.2087 8.30174 37.4235 8.26908 37.6661 8.23219C38.4204 8.1175 39.4441 7.96185 41.1629 7.54516C44.5403 6.7264 47.4685 5.02785 48.6698 4.17418L49.0477 2.94578C49.2056 2.43269 49.6802 2.09388 50.2061 2.09547C51.3736 2.09902 52.7541 2.00952 53.5813 1.7643C53.7118 1.72563 53.8146 1.68694 53.8928 1.65094C53.8604 1.61926 53.8201 1.58283 53.7703 1.54177L23.0221 1.40012ZM54.0537 1.55536L54.0524 1.55666L54.0537 1.55536Z" fill="#EE0000"/>
</svg>
