<svg width="56" height="28" viewBox="0 0 56 28" fill="none" xmlns="http://www.w3.org/2000/svg">
<path fill-rule="evenodd" clip-rule="evenodd" d="M7.31337 3.34758C7.14415 3.5007 6.97982 3.6494 6.81652 3.78937C6.37665 4.16641 5.81116 4.3964 5.29887 4.54039C4.82546 4.67344 4.34832 4.74648 3.95632 4.78202L3.64771 6.32503C3.63037 6.41173 3.6035 6.49626 3.56759 6.57706L1.92934 10.2631L1.40948 15.0718L5.28969 18.8269C5.68388 19.2083 5.76791 19.8057 5.501 20.2805C5.05652 21.0712 4.47937 22.1401 4.20486 22.7527C4.77912 23.1051 5.63675 23.3882 6.71544 23.5956C7.93092 23.8293 9.34311 23.9521 10.7675 24.0061C13.4964 24.1094 16.1996 23.9582 17.5252 23.884C17.583 23.8808 17.6381 23.8777 17.6906 23.8748C19.913 23.7513 21.3069 25.5028 21.8698 26.5737H40.6083C41.7268 26.5737 42.5196 26.5119 43.0754 26.4044C43.6422 26.2947 43.8805 26.1522 43.9774 26.0589C44.0418 25.9969 44.0862 25.9194 44.0849 25.7196C44.0833 25.4845 44.0184 25.1842 43.9082 24.7435C43.7955 24.2928 43.7241 23.8625 43.7391 23.4826C43.754 23.1029 43.861 22.6718 44.213 22.3613C44.5613 22.054 45.0072 21.9909 45.4112 22.0166C45.819 22.0427 46.2895 22.1646 46.8122 22.3513C47.7376 22.6818 48.8349 22.8805 49.7336 22.8968C50.1849 22.905 50.5508 22.8664 50.806 22.7956C51 22.7418 51.0636 22.6892 51.0754 22.6795L53.7322 17.3659L44.4582 12.9248L37.0587 13.5855C36.7952 14.0309 36.4098 14.5998 35.9547 15.1134C35.489 15.6389 34.8772 16.1908 34.1842 16.4168C34.1096 16.4412 34.0396 16.4547 33.9809 16.4625C30.7529 16.8896 28.5938 16.7907 26.9064 16.3091C25.21 15.825 24.0548 14.9697 22.8463 14.0455C21.4925 13.0102 20.4008 11.0896 19.5533 9.37691C19.2375 8.73866 18.9437 8.10345 18.6787 7.53027C18.5822 7.32156 18.4895 7.12108 18.4009 6.93167C18.0569 6.19624 17.7894 5.66046 17.5822 5.36458C17.3895 5.0893 16.9964 4.69381 16.4405 4.23958C15.896 3.79463 15.2331 3.32382 14.5374 2.89434C13.8407 2.4643 13.1238 2.0836 12.4717 1.81274C11.8033 1.53517 11.2664 1.4 10.9083 1.4C10.1169 1.4 9.36985 1.73955 8.66215 2.2333C8.1496 2.59089 7.71753 2.98186 7.31337 3.34758ZM7.86109 1.08512C8.68102 0.513079 9.71032 0 10.9083 0C11.545 0 12.287 0.220095 13.0087 0.519824C13.7465 0.826272 14.5306 1.24491 15.2727 1.70303C16.0158 2.16171 16.7296 2.66787 17.3263 3.15548C17.9117 3.63382 18.4245 4.12649 18.7292 4.56173C19.0194 4.97638 19.338 5.63073 19.6691 6.33856C19.7625 6.53833 19.8582 6.74535 19.9566 6.95807C20.2195 7.52654 20.5011 8.13571 20.8081 8.75599C21.6659 10.4894 22.6347 12.1213 23.6967 12.9334C24.8989 13.8527 25.8714 14.5579 27.2906 14.9629C28.7152 15.3695 30.6536 15.4887 33.7744 15.0776C34.099 14.9628 34.4964 14.648 34.907 14.1848C35.3118 13.7279 35.6626 13.2036 35.8919 12.8074C36.0841 12.4754 36.4292 12.2361 36.8375 12.1997L44.3884 11.5255C44.6031 11.5063 44.819 11.5453 45.0134 11.6384L54.5204 16.1911C55.1234 16.4799 55.3768 17.2072 55.0759 17.809L52.3186 23.3236C52.0773 23.8063 51.5856 24.0322 51.1802 24.1447C50.7471 24.2648 50.2337 24.3062 49.7081 24.2966C48.6528 24.2774 47.4053 24.0498 46.3413 23.6697C45.8693 23.5012 45.5404 23.4277 45.3221 23.4138C45.2362 23.4083 45.1824 23.4128 45.1515 23.418C45.1461 23.442 45.1402 23.4802 45.138 23.5377C45.1307 23.7218 45.1659 24.002 45.2664 24.4039C45.3693 24.8158 45.482 25.2793 45.4849 25.7103C45.488 26.1766 45.3637 26.6676 44.9485 27.0674C44.5657 27.436 44.0136 27.6488 43.3414 27.7789C42.6582 27.9111 41.7636 27.9737 40.6083 27.9737H21.7626C21.2632 27.9737 20.8559 27.6709 20.6593 27.281C20.1944 26.3585 19.1763 25.1944 17.7682 25.2726C17.7143 25.2756 17.6573 25.2788 17.5974 25.2822C16.2709 25.3564 13.511 25.511 10.7145 25.405C9.25361 25.3497 7.76351 25.2227 6.4511 24.9704C5.15899 24.7219 3.95115 24.3365 3.12525 23.709C2.80844 23.4683 2.60466 23.0246 2.77243 22.5576C2.99132 21.9482 3.70699 20.6201 4.20644 19.7268L0.365625 16.0099C0.0996025 15.7524 -0.0327071 15.3866 0.00708193 15.0186L0.540816 10.0815C0.554194 9.95778 0.586741 9.83687 0.637291 9.72313L2.27925 6.02873L2.60996 4.37519C2.72359 3.80703 3.21025 3.43503 3.73336 3.39574C4.07702 3.36993 4.5083 3.30833 4.92007 3.19261C5.34161 3.07413 5.68591 2.91456 5.90541 2.72642C6.02114 2.62721 6.1556 2.5056 6.30543 2.37007C6.72708 1.98869 7.27049 1.49717 7.86109 1.08512Z" fill="#EE0000"/>
</svg>
