<svg width="56" height="38" viewBox="0 0 56 38" fill="none" xmlns="http://www.w3.org/2000/svg">
<path fill-rule="evenodd" clip-rule="evenodd" d="M6.89212 1.70005C6.88837 1.70582 6.88399 1.71356 6.87955 1.72355C6.8708 1.74322 6.86339 1.76806 6.85972 1.79645L3.55152 27.3715C3.54551 27.4179 3.55046 27.4651 3.56596 27.5093L5.00084 31.599C5.20581 32.1833 5.07695 32.8327 4.66445 33.2944L2.56402 35.6455H50.8574C50.8917 35.6455 50.9257 35.6396 50.9579 35.6282L53.6594 34.6677C53.8363 34.6048 53.9094 34.4034 53.8225 34.2461C51.0416 29.212 46.892 21.9691 43.2745 15.8837C41.4655 12.8405 39.7925 10.0918 38.4917 8.05517C37.8407 7.03592 37.2874 6.20204 36.8592 5.60106C36.6446 5.29985 36.4673 5.06535 36.3286 4.89822C36.2244 4.77263 36.1649 4.71363 36.1435 4.69239C36.132 4.68108 36.1314 4.68048 36.1406 4.68622C35.8877 4.52837 35.6917 4.4789 35.542 4.47498C35.3943 4.47111 35.2421 4.51018 35.0725 4.60936C34.7047 4.82435 34.3144 5.28597 33.903 5.97698C33.5008 6.65246 33.1324 7.45151 32.7638 8.25268L32.7476 8.28792C32.3948 9.05493 32.0329 9.8416 31.6589 10.4304C31.1076 11.2982 31.0685 12.4128 31.4117 13.6123C31.7538 14.8079 32.4533 15.9945 33.2243 16.8919C33.3708 17.0624 33.6685 17.25 34.1675 17.4509C34.62 17.633 35.1511 17.7938 35.7353 17.9707C35.7778 17.9836 35.8205 17.9965 35.8636 18.0096C36.4821 18.1971 37.1503 18.4035 37.755 18.6613C38.3548 18.917 38.9524 19.2473 39.3973 19.7142C40.6897 21.0704 41.6314 23.0382 41.8304 24.7157C41.9295 25.551 41.8555 26.4125 41.4398 27.0917C40.9937 27.8202 40.2304 28.217 39.2441 28.217H22.0884C21.5522 28.217 20.987 28.2183 20.4048 28.2197C18.3472 28.2245 16.0778 28.2298 14.1288 28.1792C12.8794 28.1468 11.7427 28.0912 10.8671 27.9951C10.4311 27.9473 10.0402 27.8875 9.72465 27.8097C9.56697 27.7708 9.41237 27.7237 9.27334 27.6642C9.14388 27.6087 8.97593 27.5209 8.83792 27.3762C8.56891 27.094 8.38165 26.733 8.42619 26.2948C8.46451 25.9178 8.66832 25.6038 8.83971 25.3739C8.97125 25.1975 9.14174 24.9986 9.31527 24.796C9.37417 24.7273 9.43341 24.6581 9.49161 24.5893C9.73367 24.3031 9.99842 23.9768 10.2678 23.5842C10.9327 22.6151 12.1198 22.4141 13.2781 22.419C14.2589 22.4232 15.437 22.581 16.6809 22.7475C16.9421 22.7825 17.2061 22.8179 17.4719 22.8523L17.4873 22.8543L17.5026 22.8569C18.8981 23.101 21.0716 23.4741 23.0321 23.7134C24.0138 23.8332 24.9266 23.9176 25.6543 23.9372C26.0188 23.9471 26.3223 23.9402 26.5575 23.9169C26.6746 23.9053 26.7658 23.8904 26.834 23.8745C26.9021 23.8587 26.9316 23.8449 26.9316 23.8449C26.9941 23.8121 27.047 23.7831 27.0914 23.7573C27.0816 23.7467 27.0712 23.7355 27.06 23.7239C26.81 23.4629 26.3636 23.0964 25.6366 22.5422C25.2044 22.2128 24.6911 21.8303 24.0836 21.3776C23.6804 21.0772 23.2356 20.7458 22.7456 20.3785C21.5197 19.4596 20.6371 18.7397 20.0191 18.1257C19.4012 17.5116 19.002 16.9594 18.8058 16.3672C18.6061 15.7645 18.6452 15.2047 18.7359 14.6519C18.7707 14.4398 18.8163 14.212 18.8628 13.9796C18.8757 13.9155 18.8886 13.851 18.9014 13.7864C18.9618 13.4807 19.0238 13.1507 19.0765 12.7785C19.2008 11.902 18.9098 11.335 18.4237 10.9103C17.8968 10.4498 17.1132 10.1402 16.2689 9.93304C16.1062 9.89313 15.9393 9.82898 15.7796 9.73043C14.9062 9.19127 13.6261 8.26838 12.4219 7.18663C11.2311 6.11694 10.0473 4.83266 9.44302 3.56448C8.7076 2.02099 7.56691 1.6977 6.89212 1.70005ZM6.83961 0.300551C7.99306 0.280677 9.698 0.844846 10.7069 2.9623C11.1889 3.97396 12.2028 5.10787 13.3575 6.14516C14.4987 7.17038 15.7117 8.04326 16.515 8.53912C16.5338 8.55071 16.5615 8.56331 16.6025 8.57337C17.5235 8.79936 18.5664 9.1758 19.3449 9.85601C20.1643 10.5719 20.6576 11.6001 20.4627 12.975C20.4047 13.3842 20.3371 13.7428 20.2748 14.0581C20.2602 14.1319 20.2461 14.2023 20.2325 14.2699C20.187 14.4975 20.1479 14.6929 20.1174 14.8785C20.0403 15.3483 20.0405 15.6423 20.1348 15.9269C20.2325 16.2218 20.4602 16.5903 21.0059 17.1326C21.5517 17.6749 22.3697 18.3471 23.5853 19.2582C24.0659 19.6185 24.5072 19.9473 24.9099 20.2474C25.5239 20.7049 26.0482 21.0956 26.4853 21.4288C27.2012 21.9746 27.734 22.4037 28.0709 22.7553C28.239 22.9308 28.3979 23.1267 28.4985 23.3446C28.6078 23.5814 28.6586 23.8706 28.5547 24.1724C28.4601 24.4475 28.2693 24.6342 28.1135 24.7562C27.9544 24.8808 27.7653 24.9885 27.5821 25.0846C27.3189 25.2227 26.9923 25.2806 26.6956 25.31C26.3798 25.3414 26.0122 25.3474 25.6166 25.3367C24.8241 25.3153 23.8611 25.225 22.8624 25.1031C20.8693 24.8597 18.6723 24.4827 17.2767 24.2387C16.9965 24.2024 16.7243 24.166 16.4602 24.1308C15.2181 23.9649 14.1538 23.8228 13.2721 23.819C12.1709 23.8143 11.6576 24.0332 11.4222 24.3762C11.1152 24.8238 10.8169 25.1902 10.5606 25.4933C10.4831 25.585 10.4123 25.6676 10.3474 25.7434C10.1873 25.9303 10.0631 26.0753 9.96205 26.2108C9.90148 26.2921 9.86611 26.3489 9.84564 26.3858C9.8918 26.4038 9.96142 26.4261 10.0597 26.4504C10.2885 26.5068 10.6098 26.5585 11.0197 26.6035C11.8361 26.693 12.9262 26.7476 14.1651 26.7797C16.0921 26.8297 18.3333 26.8245 20.3882 26.8197C20.9739 26.8183 21.5446 26.817 22.0884 26.817H39.2441C39.8194 26.817 40.0916 26.6125 40.2457 26.3607C40.4302 26.0594 40.5209 25.5615 40.4402 24.8806C40.2794 23.5254 39.4828 21.8333 38.3838 20.68C38.1311 20.4148 37.7359 20.175 37.2061 19.9492C36.6813 19.7255 36.0832 19.5391 35.4574 19.3493C35.4099 19.3349 35.3622 19.3205 35.3143 19.306C34.7477 19.1346 34.1579 18.9562 33.6448 18.7496C33.102 18.5311 32.5382 18.2416 32.1625 17.8043C31.2833 16.7811 30.4725 15.4192 30.0657 13.9974C29.66 12.5795 29.6334 11.0079 30.4772 9.67964C30.795 9.17937 31.1199 8.4764 31.4919 7.6676L31.4996 7.65096C31.859 6.86961 32.256 6.00659 32.7 5.26081C33.1379 4.52525 33.6782 3.80278 34.3659 3.40074C34.724 3.19141 35.1308 3.06373 35.5786 3.07546C36.0245 3.08713 36.4606 3.2356 36.8819 3.49859C37.0723 3.6174 37.2573 3.82495 37.4061 4.00438C37.576 4.20912 37.7757 4.47473 37.9994 4.78872C38.4479 5.41813 39.0159 6.27497 39.6716 7.30158C40.9842 9.35672 42.666 12.1202 44.4779 15.1683C48.1024 21.2655 52.2594 28.5212 55.0479 33.5691C55.5565 34.4897 55.1118 35.6371 54.1284 35.9868L51.4269 36.9473C51.2441 37.0123 51.0515 37.0455 50.8574 37.0455H2.11715C1.0803 37.0455 0.53147 35.8192 1.22226 35.046L3.62042 32.3617C3.69322 32.2802 3.71596 32.1656 3.67979 32.0625L2.2449 27.9727C2.15707 27.7224 2.12905 27.455 2.16308 27.1919L5.47129 1.61685C5.54787 1.02482 5.99955 0.315026 6.83961 0.300551Z" fill="#EE0000"/>
</svg>
