<svg width="56" height="35" viewBox="0 0 56 35" fill="none" xmlns="http://www.w3.org/2000/svg">
<path fill-rule="evenodd" clip-rule="evenodd" d="M45.8017 0.188353C46.962 0.429033 48.0214 0.96538 49.0612 2.08129C50.0434 3.13527 51.5641 5.06926 52.8545 6.94017C53.501 7.87748 54.0992 8.81269 54.5475 9.62538C54.7714 10.0314 54.9633 10.4166 55.1056 10.7626C55.2432 11.0971 55.3545 11.4421 55.3805 11.7543C55.4564 12.6649 55.3071 14.339 55.0118 15.8333C54.8628 16.5869 54.6699 17.3302 54.4337 17.9336C54.3158 18.2348 54.1795 18.5211 54.0202 18.7623C53.8674 18.9936 53.6545 19.2436 53.3601 19.3908C53.0887 19.5265 52.7737 19.5668 52.4918 19.5743C52.1961 19.5822 51.863 19.5551 51.5112 19.5053C50.8067 19.4055 49.9599 19.2046 49.0603 18.9451C47.2576 18.425 45.1698 17.6478 43.4415 16.8874C41.5388 16.0502 40.5968 14.7041 40.2147 13.3703C39.8425 12.071 40.0087 10.8168 40.2505 10.0915C40.4245 9.56926 40.9369 8.42083 41.5021 7.23061C42.0602 6.05554 42.6961 4.78504 43.1691 3.93112L43.1247 3.72387C42.3237 4.07315 41.314 4.52716 40.3996 4.97502C39.8973 5.22101 39.4301 5.46204 39.0447 5.68052C38.6474 5.90574 38.3772 6.08486 38.2401 6.20477C37.8424 6.55278 37.6182 7.04435 37.3815 7.70368C37.3523 7.78504 37.3226 7.87022 37.2919 7.9583C37.0941 8.52574 36.8543 9.21373 36.4307 9.77862C35.9051 10.4794 35.11 10.9193 34.3271 11.1676C33.5394 11.4173 32.6913 11.497 31.9764 11.4175C31.1489 11.3256 30.7021 10.732 30.4901 10.2003C30.2824 9.67958 30.2423 9.10471 30.2598 8.71524C30.2655 8.5887 30.2924 8.47309 30.3293 8.37177L31.5118 5.12475C30.4716 5.4238 28.9283 5.89096 27.2388 6.47578C26.3504 6.78331 25.6692 7.03357 25.1328 7.29375C24.6014 7.55147 24.2542 7.79963 24.011 8.08094C23.5364 8.62995 23.3112 9.47464 23.3112 11.3746C23.3112 12.8721 24.2469 13.968 26.4401 15.0688C28.2596 15.982 30.7565 16.8039 33.868 17.8282C34.5241 18.0442 35.2074 18.2691 35.9175 18.5058C39.8938 19.8312 41.9814 21.2837 42.9948 23.0704C43.9247 24.7102 43.8664 26.5204 43.8081 28.3291C43.8037 28.465 43.7993 28.6008 43.7954 28.7365L43.7946 28.7621C43.7733 29.4943 43.7546 30.1339 43.6971 30.6706C43.639 31.2129 43.5356 31.7177 43.3067 32.1552C42.8076 33.1095 41.8609 33.4835 40.5429 33.7154C40.2457 33.7677 39.6238 33.8052 38.8182 33.8366C37.9896 33.8689 36.9095 33.8962 35.6557 33.9194C33.1472 33.9658 29.9298 33.9959 26.6089 34.0154C20.4081 34.0517 13.8377 34.0513 10.8294 34.051C10.6152 34.051 10.4191 34.051 10.2425 34.051C7.30574 34.051 5.33297 32.5611 4.14141 30.7069C2.96938 28.8831 2.53409 26.6885 2.60851 25.1256C2.64559 24.347 2.80444 23.6292 2.93854 23.0233C2.94606 22.9893 2.95351 22.9557 2.96085 22.9224C3.10643 22.2624 3.20025 21.7823 3.16941 21.3736C3.15835 21.2271 3.07251 21.0637 2.60506 20.8118C2.42077 20.7125 2.22 20.6216 1.98909 20.5169C1.93694 20.4933 1.88326 20.469 1.82789 20.4437C1.54176 20.3131 1.2201 20.1611 0.919437 19.9732C0.551799 19.7434 0.252737 19.4322 0.101909 19.0224C-0.0492574 18.6116 -0.0192581 18.1894 0.108122 17.7988C0.350195 17.0565 0.987558 16.2916 1.81028 15.5333C3.48615 13.9887 6.30087 12.1454 9.78322 10.165C15.3014 7.02695 23.5603 2.40118 27.1657 0.59186C27.2863 0.531316 27.4149 0.490361 27.5616 0.474427C30.0732 0.201608 40.1965 0.00360676 42.2386 0.00360676C42.416 0.00360676 42.5924 0.00269457 42.7678 0.00178768C43.8278 -0.00369237 44.8503 -0.00897865 45.8017 0.188353ZM42.796 1.40211C42.6166 1.40284 42.431 1.40361 42.2386 1.40361C40.1958 1.40361 30.2562 1.6006 27.757 1.86152C24.1715 3.66415 15.984 8.24932 10.4753 11.382C7.00501 13.3555 4.30976 15.1336 2.75909 16.5628C1.96855 17.2914 1.56351 17.8515 1.43913 18.2329C1.38329 18.4041 1.39905 18.4934 1.41577 18.5389C1.43284 18.5852 1.48379 18.675 1.66144 18.786C1.87832 18.9216 2.12756 19.0416 2.40917 19.1701C2.45508 19.191 2.50238 19.2124 2.55065 19.2343C2.78317 19.3395 3.03814 19.4549 3.26915 19.5794C3.81143 19.8716 4.49654 20.3554 4.56544 21.2683C4.61455 21.919 4.46433 22.6058 4.32798 23.224C4.32255 23.2486 4.31712 23.2732 4.31169 23.2977C4.17346 23.9236 4.03817 24.5361 4.00693 25.1922C3.94503 26.4921 4.31887 28.3935 5.31918 29.95C6.29994 31.4762 7.86271 32.651 10.2425 32.651C10.4191 32.651 10.6151 32.651 10.8291 32.651C13.8374 32.6513 20.4041 32.6517 26.6007 32.6154C29.9198 32.5959 33.1302 32.5659 35.6298 32.5197C36.88 32.4965 37.9491 32.4694 38.7637 32.4377C39.6013 32.405 40.1168 32.3689 40.3002 32.3366C41.5442 32.1177 41.8907 31.8418 42.0662 31.5063C42.1746 31.299 42.2539 30.999 42.3051 30.5214C42.3562 30.0445 42.3737 29.4578 42.396 28.6957C42.3989 28.5965 42.4018 28.4986 42.4047 28.402C42.4629 26.4714 42.5059 25.0462 41.777 23.7611C41.0252 22.4356 39.3544 21.1272 35.4748 19.834C34.786 19.6044 34.1165 19.3841 33.4682 19.1708C30.3559 18.147 27.7329 17.2841 25.8121 16.32C23.4812 15.1502 21.9112 13.6941 21.9112 11.3746C21.9112 9.45759 22.1132 8.13557 22.9519 7.16539C23.3653 6.6871 23.8962 6.33755 24.5218 6.03409C25.1424 5.73309 25.8971 5.45871 26.7809 5.1528C28.7382 4.47528 30.5003 3.9537 31.5361 3.66229C32.4837 3.39572 33.2972 4.31356 32.9694 5.21371L31.657 8.8174C31.6499 9.07981 31.6855 9.41867 31.7905 9.68168C31.8963 9.94716 32.0116 10.0128 32.131 10.0261C32.643 10.083 33.2945 10.0263 33.904 9.83304C34.5184 9.63824 35.0184 9.32835 35.3107 8.93862C35.5939 8.56105 35.7555 8.10297 35.9611 7.52023C35.994 7.42696 36.028 7.3305 36.0638 7.23067C36.3043 6.56088 36.6254 5.7574 37.3182 5.15117C37.5698 4.93101 37.9469 4.69358 38.3542 4.46263C38.7735 4.22495 39.2682 3.97021 39.7838 3.71771C40.8156 3.21237 41.9565 2.70356 42.7973 2.33971C43.4963 2.03723 44.2849 2.45616 44.442 3.1894L44.5535 3.70976C44.6155 3.99913 44.5678 4.29739 44.4266 4.55054C43.9721 5.36505 43.3335 6.63793 42.7668 7.8312C42.1934 9.03848 41.7208 10.1077 41.5786 10.5342C41.4114 11.0358 41.2781 11.9987 41.5606 12.9847C41.8332 13.9363 42.5001 14.9436 44.0054 15.6059C45.6851 16.345 47.7139 17.0995 49.4483 17.5999C50.3172 17.8506 51.0942 18.0322 51.7076 18.1191C52.0148 18.1626 52.2642 18.1799 52.4544 18.1748C52.5487 18.1723 52.6196 18.1645 52.6703 18.1549C52.7031 18.1487 52.7219 18.1428 52.7301 18.14C52.7382 18.133 52.7821 18.0965 52.852 17.9908C52.9381 17.8603 53.0329 17.6716 53.1301 17.4232C53.3241 16.9275 53.4977 16.2735 53.6384 15.5618C53.9223 14.1251 54.0458 12.5957 53.9853 11.8705C53.9773 11.7737 53.9307 11.5866 53.8108 11.2951C53.6957 11.015 53.5304 10.6802 53.3216 10.3015C52.9042 9.54474 52.3342 8.65153 51.7021 7.73505C50.4353 5.89838 48.9573 4.02336 48.037 3.03571C47.1951 2.13218 46.3943 1.74108 45.5173 1.55917C44.722 1.3942 43.8677 1.39771 42.796 1.40211Z" fill="#EE0000"/>
</svg>
