<svg width="45" height="49" viewBox="0 0 45 49" fill="none" xmlns="http://www.w3.org/2000/svg">
<path fill-rule="evenodd" clip-rule="evenodd" d="M9.6792 0.151429C12.1324 0.361233 14.8995 0.750007 16.7938 1.05853C17.278 1.1374 17.6609 1.50252 17.7685 1.97578L18.2944 4.28853C19.2234 5.05572 20.5825 6.12734 21.8218 6.99819C22.4553 7.44335 23.0434 7.82602 23.5198 8.08824C23.7588 8.21982 23.9542 8.3124 24.1032 8.36784C24.2059 8.40601 24.2579 8.41551 24.2713 8.41827C24.3739 8.40079 24.5932 8.33005 24.9402 8.17122C25.291 8.0107 25.7087 7.79066 26.156 7.53762C27.0492 7.0323 28.0232 6.41659 28.7475 5.938C29.2946 5.57651 30.0417 5.71387 30.4135 6.27215C31.7292 8.24767 34.163 11.9134 35.2347 13.5697C35.4851 13.9567 35.9995 14.3365 36.7681 14.6926C37.52 15.0409 38.4258 15.3267 39.3524 15.5765C39.9229 15.7302 40.4687 15.8623 40.9868 15.9877C41.3255 16.0697 41.6524 16.1488 41.9667 16.2293C42.3499 16.3274 42.7075 16.4261 43.0083 16.5288C43.2917 16.6255 43.5944 16.7479 43.8193 16.9165C44.1181 17.1405 44.2546 17.5004 44.3289 17.7523C44.4144 18.0418 44.4717 18.3891 44.5114 18.7606C44.5912 19.5074 44.6095 20.452 44.5924 21.4465C44.5585 23.4274 44.3825 25.691 44.2296 27.1841C44.186 30.2048 44.0999 36.2957 44.0999 36.8097C44.0999 37.3989 43.6316 37.7047 43.364 37.8319C43.058 37.9774 42.6828 38.0592 42.3228 38.105C41.5998 38.197 40.7236 38.1689 40.0519 38.0305L34.6307 37.9014C32.5434 37.8517 31.7653 38.383 31.4896 38.7897C31.2061 39.2078 31.2548 39.7866 31.4764 40.2664C31.4879 40.2913 31.4973 40.3139 31.5044 40.3316C31.5329 40.35 31.6126 40.3946 31.7941 40.4447C32.1112 40.5322 32.5771 40.5908 33.1868 40.6203C34.368 40.6775 35.9216 40.6199 37.6175 40.557L37.7567 40.5518C39.6138 40.483 40.8873 40.8551 41.7226 41.5442C42.5679 42.2416 42.8446 43.1641 42.9207 43.925C43.0124 44.8417 42.5292 45.9443 41.7782 46.7685C41.003 47.6193 39.8311 48.3004 38.3969 48.2207C36.539 48.1175 19.5512 48.0042 11.26 47.9605L11.2458 47.9604L1.14754 47.4962C0.0589278 47.4461 -0.4104 46.0825 0.432763 45.3784C2.1798 43.9194 4.68822 41.8354 5.47773 41.2213C5.6455 41.0908 5.84288 41.0103 6.01522 40.9557C6.19625 40.8985 6.39981 40.8547 6.61351 40.8201C7.04085 40.7508 7.5635 40.7095 8.13704 40.6866C9.28686 40.6406 10.7126 40.6659 12.1368 40.715C13.1782 40.7509 14.2304 40.8001 15.1826 40.8445C15.5337 40.8609 15.8711 40.8766 16.1895 40.8909C17.3997 40.9449 18.2849 40.9738 18.656 40.9453C19.2787 40.8974 20.0784 40.4603 20.6968 39.8419C20.9974 39.5413 21.2196 39.232 21.3439 38.9622C21.4624 38.7049 21.4623 38.5527 21.4468 38.4848C21.4386 38.4733 21.4093 38.4317 21.3355 38.359C21.2273 38.2525 21.0673 38.1216 20.8537 37.9697C20.428 37.6667 19.8494 37.3219 19.1938 36.9658C17.8861 36.2555 16.3376 35.5354 15.25 35.0628C14.9267 34.9223 14.6774 34.6468 14.5757 34.301L11.3758 23.4212C11.1918 22.7958 11.0566 21.8213 10.9487 20.7419C10.8391 19.6458 10.7527 18.3854 10.6791 17.1584C10.6422 16.5443 10.6085 15.9365 10.5766 15.3605L10.5723 15.2827C10.5419 14.7348 10.5133 14.2176 10.4852 13.7498C10.4249 12.7484 10.3696 12.0306 10.3135 11.7224C10.314 11.7251 10.3138 11.7246 10.312 11.7207C10.3039 11.7027 10.2634 11.6129 10.114 11.4436C9.94888 11.2567 9.70697 11.0349 9.39408 10.7834C8.7697 10.2816 7.93489 9.71867 7.04768 9.14893C6.60633 8.86551 6.15725 8.5837 5.71987 8.30949L5.6647 8.27491C5.24795 8.01364 4.84186 7.75905 4.46967 7.52016C3.71895 7.03828 3.02703 6.57182 2.6688 6.21359C1.82013 5.36492 1.80398 4.13255 2.11962 3.11212C2.44032 2.07529 3.15228 1.05478 4.08215 0.434866C4.36528 0.246115 4.73666 0.153799 5.08037 0.0992203C5.44598 0.0411628 5.87816 0.0121138 6.34881 0.00311603C7.29171 -0.0149104 8.45444 0.0466833 9.6792 0.151429ZM4.8865 1.58578C4.86684 1.59453 4.85867 1.59978 4.85867 1.59978C4.22092 2.02495 3.69175 2.76719 3.4571 3.52582C3.21737 4.30085 3.33169 4.89659 3.65875 5.22364C3.88837 5.45326 4.43753 5.83593 5.22592 6.34198C5.59161 6.57671 5.99189 6.82765 6.41089 7.09033L6.46352 7.12333C6.90032 7.39717 7.35553 7.68281 7.80417 7.97091C8.69696 8.54424 9.585 9.14072 10.2711 9.69214C10.6135 9.9673 10.9237 10.2456 11.1633 10.5169C11.3864 10.7694 11.6229 11.0974 11.691 11.472C11.7656 11.8823 11.8245 12.6994 11.8826 13.6657C11.911 14.1368 11.9398 14.657 11.97 15.2034L11.9744 15.2831C12.0063 15.8593 12.0399 16.4641 12.0766 17.0746C12.1499 18.297 12.235 19.535 12.3417 20.6026C12.4502 21.6868 12.5762 22.5412 12.7189 23.0262L15.8922 33.8155C16.9971 34.298 18.5401 35.0175 19.862 35.7355C20.538 36.1028 21.1728 36.4785 21.6654 36.829C21.911 37.0038 22.1364 37.1829 22.3178 37.3615C22.4845 37.5256 22.6788 37.7509 22.7703 38.0254C22.9472 38.556 22.8206 39.1025 22.6154 39.5479C22.405 40.0048 22.072 40.4466 21.6867 40.8319C20.9335 41.5851 19.8389 42.2584 18.7634 42.3412C18.2854 42.3779 17.2927 42.3415 16.127 42.2895C15.8034 42.275 15.4625 42.2591 15.1093 42.2426C14.1595 42.1983 13.1207 42.1498 12.0885 42.1142C10.6714 42.0653 9.28847 42.0417 8.193 42.0855C7.6439 42.1074 7.18475 42.1458 6.83746 42.202C6.66384 42.2302 6.53189 42.2607 6.43749 42.2905C6.36336 42.314 6.33325 42.3306 6.32991 42.3321C5.6133 42.8902 3.43723 44.6951 1.72745 46.1213L11.2816 46.5606C19.5429 46.6041 36.5713 46.7171 38.4746 46.8229C39.3918 46.8738 40.1795 46.4445 40.7433 45.8257C41.3314 45.1802 41.5666 44.4539 41.5277 44.0643C41.4731 43.5189 41.2926 43.0044 40.8316 42.6241C40.3605 42.2354 39.4785 41.889 37.8085 41.9508L37.6275 41.9576C35.9673 42.0192 34.3616 42.0788 33.1191 42.0187C32.4782 41.9877 31.8895 41.9233 31.4217 41.7943C31.007 41.6798 30.4389 41.449 30.2211 40.8945L30.2113 40.8692L30.2055 40.8541C30.2026 40.8466 30.203 40.8488 30.2055 40.8541C29.8788 40.1468 29.6595 38.9942 30.3308 38.0041C31.0098 37.0025 32.409 36.4481 34.664 36.5018L40.1018 36.6313C40.1804 36.6332 40.2547 36.6427 40.3246 36.6573C40.8345 36.7639 41.5606 36.7907 42.1461 36.7162C42.3951 36.6845 42.5814 36.6389 42.7014 36.5935C42.713 35.3579 42.7902 29.9026 42.8302 27.1331L42.8307 27.1022L42.8338 27.0715C42.9849 25.6031 43.1594 23.3642 43.1926 21.4225C43.2093 20.4487 43.19 19.5711 43.1193 18.9093C43.0838 18.5765 43.0376 18.3229 42.9862 18.1485C42.9652 18.0775 42.9475 18.034 42.9365 18.01C42.8748 17.9759 42.7563 17.922 42.5562 17.8537C42.3085 17.7692 41.9935 17.6813 41.6195 17.5855C41.3441 17.515 41.0309 17.4391 40.6967 17.3581C40.1579 17.2275 39.5647 17.0837 38.988 16.9282C38.0367 16.6718 37.0402 16.3616 36.1796 15.9629C35.3357 15.5719 34.5274 15.0536 34.0593 14.3302C33.0225 12.7279 30.6959 9.22243 29.3576 7.21243C28.6371 7.68467 27.7101 8.26693 26.8453 8.75615C26.3805 9.0191 25.9244 9.2605 25.5228 9.44427C25.1445 9.61736 24.7392 9.77561 24.4041 9.81284C24.1188 9.84454 23.8307 9.76017 23.6152 9.68002C23.3766 9.59128 23.1146 9.46328 22.8446 9.31469C22.3031 9.01658 21.6672 8.60063 21.0169 8.14367C19.713 7.22741 18.2941 6.10593 17.3471 5.32192C17.1413 5.15147 17.0022 4.92017 16.9444 4.66577L16.4334 2.41839C14.5655 2.11706 11.9085 1.7472 9.5599 1.54634C8.3551 1.4433 7.24764 1.38619 6.37557 1.40286C5.93872 1.41121 5.57722 1.43786 5.29993 1.4819C5.16181 1.50383 5.05465 1.52853 4.9751 1.55332C4.93589 1.56554 4.9069 1.5767 4.8865 1.58578ZM42.8168 36.5373C42.8168 36.5373 42.814 36.54 42.8058 36.545C42.8122 36.5398 42.8168 36.5373 42.8168 36.5373Z" fill="#EE0000"/>
</svg>
