<svg width="56" height="28" viewBox="0 0 56 28" fill="none" xmlns="http://www.w3.org/2000/svg">
<path fill-rule="evenodd" clip-rule="evenodd" d="M7.88325 1.40998C7.26872 1.46757 6.44124 1.5601 5.64446 1.6801C4.77747 1.81068 4.00846 1.96519 3.57727 2.12405C2.94849 2.3557 2.42759 2.63929 2.04173 2.9286C1.71291 3.17515 1.51412 3.40154 1.41208 3.57547C1.41456 3.5874 1.41751 3.60084 1.42104 3.61585C1.45297 3.75186 1.51466 3.94731 1.60838 4.20048C1.79431 4.70278 2.07963 5.36161 2.41653 6.09017C3.07509 7.51435 3.90775 9.1558 4.51152 10.3051L4.95149 10.4671C5.33107 10.6069 5.58123 10.9138 5.72464 11.1691C5.87277 11.4328 5.9754 11.7608 5.97001 12.0822C5.95798 12.8001 6.08187 14.2741 6.60446 16.9459L6.60773 16.9627L6.61019 16.9795C7.04908 19.9969 7.83184 22.0335 9.0399 23.45C10.2385 24.8555 11.9272 25.7333 14.3567 26.2865C17.2179 26.9381 19.0525 25.9569 20.3568 25.1372C21.1514 24.6379 22.1822 25.2011 22.1821 26.1451L22.1821 26.3734L24.177 26.4575C29.9078 26.3449 44.4023 25.98 45.9686 25.8992C46.099 25.8924 46.2354 25.886 46.3773 25.8792C47.9904 25.8027 50.3102 25.6927 52.5668 24.79C53.2394 24.521 53.6072 24.1466 53.8 23.7757C53.9968 23.3972 54.042 22.9624 53.9639 22.5322C53.8851 22.0978 53.6856 21.7006 53.4391 21.4231C53.1852 21.1374 52.9459 21.0436 52.7909 21.0436C52.4465 21.0436 51.3609 21.0422 49.8407 21.0402C43.8106 21.0321 30.9417 21.015 30.3574 21.0428C29.9936 21.0602 29.6784 20.9408 29.4304 20.8035C29.1855 20.6678 28.9618 20.4893 28.7749 20.3324C28.7028 20.2719 28.6375 20.2159 28.5756 20.1627C28.4603 20.0637 28.3568 19.9748 28.243 19.886C28.0761 19.7556 27.9443 19.6728 27.8339 19.6277C27.7184 19.5805 27.4209 19.5487 26.9596 19.5799C26.5352 19.6087 26.0815 19.6816 25.7369 19.752C25.3611 19.8287 24.9572 19.728 24.6618 19.4518L13.3359 8.86456C13.2803 8.81264 13.2299 8.75557 13.1851 8.69411L7.88325 1.40998ZM1.40001 3.50133C1.39943 3.49276 1.40021 3.49436 1.40023 3.50405L1.40001 3.50133ZM7.87433 0.00487128C8.2977 -0.0334454 8.70255 0.156608 8.94736 0.492947L14.3058 7.85483L25.5464 18.3624C25.9201 18.2892 26.3983 18.2148 26.865 18.1831C27.3329 18.1514 27.9217 18.151 28.364 18.3319C28.6485 18.4483 28.898 18.6212 29.1046 18.7825C29.2435 18.8909 29.3904 19.0169 29.5198 19.1279C29.5755 19.1756 29.6279 19.2206 29.6751 19.2602C29.8516 19.4084 29.9891 19.5125 30.1087 19.5787C30.2252 19.6433 30.2778 19.645 30.2908 19.6444C30.9153 19.6147 44.0323 19.6323 49.9952 19.6403C51.4411 19.6423 52.4664 19.6436 52.7909 19.6436C53.4793 19.6436 54.0699 20.0254 54.4857 20.4933C54.9088 20.9695 55.2184 21.6042 55.3414 22.2823C55.4653 22.9647 55.4051 23.7233 55.0422 24.4214C54.6753 25.1272 54.0292 25.7129 53.0868 26.0899C50.5997 27.0847 48.0547 27.203 46.4531 27.2775C46.3076 27.2843 46.1699 27.2907 46.0408 27.2973C44.4446 27.3797 29.8887 27.7458 24.1829 27.8576L24.1613 27.8581L21.9315 27.7641C21.2889 27.737 20.7819 27.2082 20.782 26.565L20.782 26.5195C19.3437 27.3848 17.1951 28.3687 14.0458 27.6516C11.4406 27.0583 9.43533 26.0712 7.97469 24.3585C6.52609 22.66 5.68471 20.3308 5.22723 17.198C4.70123 14.5053 4.55573 12.9223 4.57021 12.0588C4.57033 12.0518 4.56892 12.025 4.55681 11.9817C4.54509 11.9399 4.52685 11.8954 4.50404 11.8548C4.48087 11.8136 4.45876 11.7866 4.44455 11.7726L3.95531 11.5922C3.67976 11.4907 3.44868 11.2916 3.3094 11.0271C2.69681 9.86331 1.83156 8.16074 1.14581 6.67776C0.803822 5.93819 0.500459 5.24035 0.295437 4.68647C0.193676 4.41156 0.109328 4.15404 0.0580976 3.93584C0.0326389 3.82741 0.010989 3.71064 0.00321813 3.59606C-0.00331264 3.49977 -0.00754158 3.31868 0.0707147 3.13283C0.281177 2.63298 0.701555 2.18363 1.20189 1.80848C1.71302 1.42525 2.35827 1.08116 3.09328 0.810365C3.67346 0.596617 4.57165 0.425894 5.43596 0.295718C6.31859 0.162782 7.2305 0.0631401 7.87433 0.00487128Z" fill="#EE0000"/>
</svg>
