<svg width="56" height="30" viewBox="0 0 56 30" fill="none" xmlns="http://www.w3.org/2000/svg">
<path fill-rule="evenodd" clip-rule="evenodd" d="M54.9109 0.947642C55.3443 1.56485 55.432 2.35532 55.3921 3.07329C55.3489 3.85064 55.0504 4.84605 54.34 5.57943C53.5899 6.35369 52.4591 6.75308 50.9677 6.41219C50.6914 6.34903 50.4162 6.28296 50.1414 6.21696C47.8107 5.65733 45.5013 5.10278 42.6676 6.3689C41.0528 7.09041 40.1772 7.88938 39.6327 8.67057C39.1225 9.4026 38.8754 10.1505 38.6067 10.9638C38.5813 11.0406 38.5557 11.1181 38.5297 11.1961C38.4495 11.4366 38.4608 11.8592 38.607 12.4748C38.7469 13.064 38.9803 13.7142 39.2214 14.351C39.2639 14.4634 39.3072 14.5764 39.3502 14.689C39.5416 15.1894 39.7299 15.6819 39.84 16.0695C39.9048 16.2978 39.9679 16.5719 39.9562 16.8238C39.9501 16.953 39.9221 17.1438 39.8047 17.3266C39.67 17.5363 39.4612 17.6675 39.2292 17.7097C38.9692 17.757 38.7391 17.6918 38.5728 17.6157C38.4057 17.5391 38.2577 17.4312 38.133 17.3236C37.884 17.1087 37.6413 16.8191 37.4218 16.5221C36.9781 15.9218 36.5444 15.1739 36.2412 14.5996C36.2034 14.528 36.1481 14.4775 36.0882 14.4498L31.5264 12.341C31.1683 12.6166 30.8832 12.86 30.6525 13.0951C30.2375 13.5178 30.0107 13.9017 29.8745 14.3898C29.73 14.9076 29.6783 15.5728 29.6783 16.5839C29.6783 19.228 29.8394 21.5051 29.9633 22.7937C30.0366 23.5561 29.5065 24.2604 28.7332 24.3764C28.7262 24.3775 28.7078 24.3815 28.6827 24.4136C28.6549 24.4492 28.6326 24.5044 28.6307 24.5657C28.6003 25.5773 28.2591 26.8474 27.2692 27.869C26.2678 28.9024 24.6867 29.595 22.3493 29.595H2.89926C2.65884 29.595 2.43958 29.5154 2.27222 29.434C2.09541 29.348 1.92122 29.2326 1.75736 29.1037C1.4295 28.8458 1.09623 28.4969 0.811503 28.1034C0.276275 27.3638 -0.247419 26.234 0.126005 25.1671C0.47682 24.1648 1.53107 23.8685 2.2911 23.7831C3.11632 23.6903 4.00319 23.7928 4.57243 23.9119L4.60161 23.918L4.63017 23.9266C4.95119 24.0229 5.49888 24.1426 6.05659 24.177C6.64419 24.2133 7.09996 24.145 7.34697 23.9968C7.65225 23.8136 7.77616 23.6553 7.94387 23.4409C8.00644 23.3609 8.07511 23.2731 8.16156 23.1734C8.32081 22.9896 8.53376 22.7896 8.85669 22.658C9.16849 22.531 9.5218 22.4925 9.92931 22.5139C10.3738 22.5373 10.8162 22.663 11.2102 22.7975C11.4105 22.8659 11.6106 22.941 11.8003 23.0126L11.834 23.0253C12.0146 23.0934 12.1857 23.1579 12.3543 23.2169C13.1342 23.4894 13.5509 23.5157 13.8195 23.3478C14.064 23.195 14.322 22.9874 14.6168 22.7367C14.6858 22.678 14.7574 22.6164 14.831 22.5531C15.0581 22.3577 15.3043 22.146 15.5529 21.9515C16.2066 21.4398 17.0398 20.9103 18.0513 20.9103C18.7174 20.9103 19.2664 21.3129 19.6649 21.7003C20.0817 22.1053 20.4668 22.6268 20.8006 23.1022C20.9027 23.2477 20.9992 23.3875 21.0912 23.5209C21.3159 23.8467 21.514 24.1337 21.7024 24.3698C21.832 24.5322 21.9302 24.6352 22.0001 24.6928C22.1311 24.6785 22.3429 24.6349 22.623 24.5404C22.9654 24.425 23.3705 24.2468 23.79 24.0017C24.6338 23.5088 25.4916 22.7717 26.0335 21.7837C26.2051 21.4706 26.3358 21.0049 26.4129 20.4034C26.489 19.8107 26.5077 19.1319 26.4855 18.4234C26.4412 17.0063 26.2353 15.5282 26.0402 14.4976C25.9586 14.0661 26.04 13.611 26.2876 13.2319L27.9197 10.7327C28.381 10.0263 29.2906 9.76516 30.0564 10.1192L31.3611 10.7223C31.522 10.607 31.6901 10.4884 31.8655 10.3658C32.169 10.1536 32.4958 9.92828 32.8498 9.68422C33.6151 9.15659 34.5073 8.54152 35.5634 7.78356C38.7177 5.51993 42.5578 3.60225 45.7993 2.24321C47.4227 1.56257 48.9054 1.01811 50.0889 0.637901C51.2392 0.268355 52.1862 0.0271949 52.6945 0.00409205C53.6737 -0.0404168 54.441 0.278429 54.9109 0.947642ZM32.8289 11.4008L36.6757 13.179C37.0277 13.3417 37.3052 13.6163 37.4793 13.946C37.5695 14.1169 37.6705 14.3011 37.7785 14.4896C37.578 13.9455 37.378 13.3588 37.2449 12.7983C37.0883 12.1391 36.9903 11.3871 37.2015 10.7534C37.2277 10.6747 37.2542 10.5943 37.2811 10.5124C37.5428 9.71611 37.8511 8.77843 38.4842 7.87006C38.6442 7.6405 38.8233 7.4146 39.0254 7.19313C38.1079 7.7424 37.2172 8.31992 36.3797 8.92097C35.3132 9.68635 34.3993 10.3164 33.6293 10.8473C33.3427 11.0449 33.0761 11.2288 32.8289 11.4008ZM44.4691 4.3541C45.1071 4.06251 45.7338 3.78874 46.3406 3.53433C47.9315 2.86731 49.3764 2.33728 50.5171 1.97081C51.691 1.59368 52.465 1.41597 52.7581 1.40265C53.3815 1.37431 53.634 1.56539 53.7651 1.75212C53.9328 1.99086 54.0272 2.40236 53.9942 2.99563C53.9646 3.52951 53.7531 4.17316 53.3344 4.60532C52.9554 4.99662 52.3379 5.28927 51.2796 5.04739C51.0177 4.98751 50.7497 4.92243 50.4755 4.85583C48.7346 4.43306 46.7437 3.94959 44.4691 4.3541ZM30.1115 11.687L29.469 11.39C29.3338 11.3275 29.1733 11.3736 29.0919 11.4982L27.4598 13.9974C27.4174 14.0624 27.3989 14.1476 27.4158 14.2373C27.6203 15.3182 27.8377 16.871 27.8849 18.3797C27.9085 19.1341 27.89 19.8919 27.8016 20.5815C27.7142 21.2622 27.553 21.9244 27.261 22.4568C26.5644 23.7271 25.4918 24.629 24.4962 25.2106C23.996 25.5028 23.5043 25.7207 23.0704 25.867C22.6496 26.0089 22.2395 26.0984 21.9122 26.0984C21.559 26.0984 21.2827 25.9149 21.1146 25.7772C20.9316 25.6273 20.7611 25.4348 20.6082 25.2431C20.3871 24.9661 20.1456 24.6161 19.9091 24.2732C19.8232 24.1488 19.738 24.0253 19.6547 23.9065C19.3237 23.4349 19.0031 23.0094 18.6891 22.7042C18.3569 22.3813 18.1502 22.3103 18.0513 22.3103C17.5331 22.3103 17.0186 22.5821 16.4157 23.054C16.195 23.2267 15.9843 23.4078 15.7637 23.5976C15.6853 23.665 15.6057 23.7335 15.5238 23.8031C15.2245 24.0577 14.8997 24.3236 14.5615 24.535C13.6645 25.0956 12.6242 24.7942 11.8925 24.5385C11.7068 24.4736 11.5204 24.4033 11.3434 24.3365L11.3063 24.3225C11.115 24.2504 10.9344 24.1827 10.7579 24.1224C10.3985 23.9997 10.1033 23.925 9.85572 23.912C9.57118 23.897 9.44189 23.9314 9.3849 23.9546C9.33904 23.9733 9.29703 24.0009 9.21953 24.0903C9.1916 24.1225 9.15823 24.1659 9.11837 24.2177C8.93657 24.454 8.61967 24.8659 8.06726 25.1973C7.44012 25.5736 6.62107 25.6146 5.97028 25.5744C5.30634 25.5333 4.66753 25.3967 4.25839 25.2766C3.78312 25.1798 3.06843 25.1045 2.44749 25.1743C1.74937 25.2528 1.50453 25.4664 1.44741 25.6296C1.31091 26.0196 1.47925 26.6381 1.94567 27.2826C2.16176 27.5812 2.40671 27.8333 2.62292 28.0033C2.7311 28.0884 2.82041 28.1438 2.88461 28.175C2.90639 28.1856 2.92166 28.1917 2.93087 28.195H22.3493C24.4018 28.195 25.585 27.5951 26.2638 26.8947C26.954 26.1825 27.2087 25.2774 27.2314 24.5236C27.2517 23.8497 27.7095 23.1143 28.5255 22.9919C28.5372 22.9902 28.5477 22.9847 28.557 22.9727C28.5666 22.9602 28.5714 22.9448 28.5697 22.9277C28.4424 21.6035 28.2783 19.2809 28.2783 16.5839C28.2783 15.5553 28.3268 14.7272 28.526 14.0134C28.7335 13.27 29.0941 12.6841 29.6534 12.1143C29.793 11.9721 29.9456 11.8304 30.1115 11.687Z" fill="#EE0000"/>
</svg>
