<svg width="56" height="22" viewBox="0 0 56 22" fill="none" xmlns="http://www.w3.org/2000/svg">
<path fill-rule="evenodd" clip-rule="evenodd" d="M9.95728 2.91033C10.5279 3.20066 11.0427 3.34672 11.4286 3.33386C12.3688 3.30252 13.3173 2.89817 14.4632 2.40967L14.5099 2.38978C15.0275 2.16914 15.5813 1.93486 16.1672 1.74299L7.996 1.4228C8.10805 1.54982 8.24923 1.69371 8.42144 1.84893C8.85235 2.23734 9.39921 2.62638 9.95728 2.91033ZM7.37162 1.40064C7.36329 1.40244 7.35848 1.40277 7.35815 1.40249C7.35783 1.4022 7.36199 1.40131 7.37162 1.40064ZM20.7368 1.92205C20.8779 1.97964 21.0199 2.04004 21.162 2.10258C22.2192 2.56779 23.4017 3.20491 24.5755 3.88032C25.6327 4.48861 26.6969 5.13622 27.6691 5.72789C27.778 5.79411 27.8856 5.85963 27.992 5.92431C29.0573 6.57212 29.9815 7.12894 30.662 7.48706C32.0681 8.22713 33.6453 9.13068 34.6145 9.93409C34.8603 10.1378 35.0849 10.3495 35.2622 10.5645C35.4314 10.7696 35.6034 11.0319 35.6658 11.3365C35.738 11.6892 35.6516 12.0557 35.3739 12.3396C35.1362 12.5826 34.8113 12.7103 34.4998 12.7858C33.958 12.9171 33.6574 13.085 33.4819 13.2437C33.3172 13.3926 33.2173 13.5742 33.1549 13.8336C33.0876 14.1132 33.0701 14.4553 33.0667 14.9122C33.066 15.0034 33.0658 15.0992 33.0657 15.1988C33.0652 15.5735 33.0646 16.0023 33.0338 16.4488C32.9791 17.2412 32.5423 17.8397 31.9833 18.2675C31.436 18.6865 30.7355 18.9737 30.0278 19.1752C28.733 19.5439 27.2506 19.6704 26.188 19.6899C26.3696 19.7254 26.5556 19.7601 26.7456 19.7936C29.0597 20.202 31.9297 20.4344 34.7654 20.0755C36.847 19.812 39.8455 18.6493 42.8858 17.2074C45.7832 15.8332 48.6438 14.2421 50.6453 13.0475C50.1433 12.6879 49.598 12.2426 49.1712 11.7683C48.9271 11.497 48.7004 11.1928 48.5484 10.8685C48.3969 10.5452 48.2958 10.1493 48.3886 9.73198C48.5132 9.17097 48.8603 8.79397 49.2979 8.57804C49.6998 8.37966 50.1598 8.32411 50.5631 8.3139C50.9751 8.30347 51.4038 8.33997 51.7722 8.37461C51.8204 8.37915 51.8674 8.38361 51.913 8.38795C52.2364 8.41874 52.4942 8.44328 52.7006 8.44328C52.7398 8.44328 52.927 8.38744 53.2292 8.01158C53.4579 7.72715 53.6672 7.364 53.8304 7.02506L53.4329 6.7518C52.9875 6.44555 52.8018 5.87928 52.9794 5.36872L53.7285 3.21483L20.7368 1.92205ZM23.5783 19.0437C23.4878 19.005 23.3963 18.965 23.304 18.9239C22.3104 18.4812 21.1767 17.8867 20.0649 17.2726C19.084 16.7309 18.1087 16.1676 17.2507 15.672C17.1348 15.605 17.0209 15.5392 16.9096 15.475C15.9607 14.9274 15.2107 14.4996 14.7777 14.2917C14.2057 14.0172 13.601 14.2096 12.6903 14.7166C12.5673 14.785 12.4355 14.8611 12.2985 14.9402C11.9829 15.1223 11.6396 15.3204 11.3132 15.4781C10.831 15.7111 10.2741 15.9158 9.67455 15.9158C9.08531 15.9158 8.53217 15.7071 8.04893 15.4541C7.56434 15.2005 7.08848 14.8683 6.65921 14.5666L6.6118 14.5333C6.18545 14.2336 5.80576 13.9667 5.44259 13.7678C5.06218 13.5595 4.77922 13.472 4.56474 13.472C4.32358 13.472 3.98479 13.5598 3.58748 13.7574C3.19872 13.9508 2.79779 14.2277 2.44308 14.5494C2.0868 14.8725 1.79776 15.2221 1.61407 15.5506C1.4254 15.8879 1.3824 16.1388 1.40612 16.2968C1.44984 16.5884 1.68495 16.8259 2.30961 16.9557C2.9094 17.0804 3.61242 17.0346 4.00533 16.9691C4.35645 16.9106 4.74689 16.9602 5.10887 17.0267C5.40017 17.0802 5.73547 17.1578 6.09253 17.2405C6.19223 17.2635 6.29362 17.287 6.39622 17.3105C7.35503 17.5296 8.54833 17.7781 10.0049 17.8491C10.9118 17.8934 12.2284 17.904 13.6754 17.9156C14.6333 17.9234 15.6484 17.9315 16.6397 17.9502C17.8694 17.9734 19.0556 18.0131 20.0139 18.0901C20.4924 18.1285 20.9265 18.1772 21.2869 18.2406C21.6237 18.2998 21.9768 18.3843 22.2368 18.5306C22.4409 18.6454 22.8961 18.8319 23.5783 19.0437ZM6.47055 0.397748C6.75532 0.0312132 7.1991 -0.00949818 7.4803 0.00152087L54.0531 1.82647C54.8584 1.85803 55.4043 2.65861 55.1395 3.41978L54.3518 5.68456L54.7745 5.97518C55.2207 6.28197 55.432 6.87891 55.1904 7.41997C54.9914 7.8654 54.692 8.4265 54.3202 8.88888C53.9817 9.30984 53.429 9.84328 52.7006 9.84328C52.4217 9.84328 52.0881 9.81126 51.7767 9.78138C51.7309 9.77699 51.6857 9.77265 51.6411 9.76846C51.2713 9.73368 50.9178 9.70537 50.5985 9.71345C50.2705 9.72176 50.05 9.76804 49.9174 9.83348C49.8204 9.88137 49.7787 9.93019 49.7552 10.0357C49.7524 10.0485 49.743 10.1183 49.8161 10.2743C49.8887 10.4293 50.0197 10.6181 50.212 10.8319C50.5962 11.259 51.14 11.6923 51.6528 12.0441C52.3439 12.5183 52.4116 13.6191 51.6105 14.1012C49.5721 15.3278 46.5537 17.0172 43.4857 18.4723C40.441 19.9164 37.265 21.1703 34.9412 21.4644C31.9266 21.846 28.9092 21.5971 26.5023 21.1723C25.2967 20.9596 24.2362 20.7013 23.3963 20.4516C22.5725 20.2067 21.9179 19.9575 21.5505 19.7508C21.5505 19.7508 21.5509 19.7511 21.5505 19.7508L21.5479 19.7495L21.5403 19.7458C21.5334 19.7426 21.5238 19.7385 21.5111 19.7336C21.4852 19.7236 21.4504 19.7118 21.4051 19.6988C21.3136 19.6726 21.194 19.6457 21.0445 19.6194C20.745 19.5668 20.3594 19.5223 19.9017 19.4856C18.9878 19.4121 17.8366 19.3731 16.6133 19.35C15.6655 19.3321 14.6696 19.3239 13.7169 19.3161C12.2396 19.304 10.8662 19.2928 9.93666 19.2475C8.35695 19.1704 7.0694 18.9004 6.08426 18.6753C5.96891 18.6489 5.85931 18.6235 5.75486 18.5994C5.40484 18.5184 5.11268 18.4508 4.85605 18.4037C4.5122 18.3405 4.32871 18.3346 4.23549 18.3501C3.73974 18.4327 2.85057 18.4981 2.02479 18.3265C1.22388 18.16 0.200044 17.6941 0.0216053 16.5045C-0.0657636 15.9221 0.122658 15.3491 0.392211 14.8671C0.666738 14.3763 1.06271 13.9113 1.50254 13.5124C1.94392 13.1121 2.45017 12.7595 2.96396 12.5039C3.4692 12.2526 4.02833 12.072 4.56474 12.072C5.12785 12.072 5.65869 12.29 6.11503 12.5399C6.54928 12.7777 6.98813 13.0863 7.3922 13.3706C7.41632 13.3875 7.44032 13.4044 7.46419 13.4212C7.90426 13.7304 8.3074 14.0092 8.69819 14.2138C9.09033 14.419 9.40895 14.5158 9.67455 14.5158C9.96369 14.5158 10.2954 14.415 10.7042 14.2175C10.9842 14.0823 11.25 13.9286 11.5404 13.7608C11.6886 13.6752 11.8432 13.5858 12.0093 13.4934C12.8944 13.0006 14.104 12.4154 15.3835 13.0296C15.8762 13.2661 16.6814 13.7269 17.6093 14.2624C17.7214 14.327 17.8356 14.393 17.9517 14.4601C18.8106 14.9562 19.7736 15.5124 20.7417 16.0471C21.8423 16.655 22.9349 17.2268 23.8737 17.645C24.3432 17.8542 24.7633 18.02 25.1194 18.1324C25.4861 18.2482 25.7401 18.2926 25.8926 18.2926C26.896 18.2926 28.3981 18.1836 29.6444 17.8288C30.2696 17.6507 30.7818 17.4242 31.1324 17.1558C31.4714 16.8964 31.6177 16.6339 31.6371 16.3525C31.6643 15.9578 31.6649 15.5905 31.6655 15.2217C31.6657 15.1154 31.6659 15.0089 31.6667 14.9015C31.6702 14.4443 31.6851 13.9578 31.7937 13.5062C31.9072 13.0343 32.1266 12.5818 32.5428 12.2054C32.946 11.8407 33.4841 11.5927 34.1591 11.4278C34.0585 11.3109 33.9135 11.1714 33.7211 11.012C32.8763 10.3117 31.4179 9.46697 30.0099 8.72594C29.2833 8.34351 28.3191 7.76173 27.2646 7.12052C27.1581 7.05574 27.0505 6.99028 26.942 6.92425C25.9678 6.33142 24.9186 5.69294 23.8773 5.09378C22.7184 4.42695 21.5867 3.81902 20.5981 3.384C19.5789 2.93549 18.8176 2.7202 18.3596 2.73367C17.2519 2.76625 16.2023 3.19031 15.0588 3.67767C15.0068 3.69986 14.9544 3.72223 14.9018 3.74473C13.8503 4.1941 12.6834 4.6928 11.4752 4.73308C10.7502 4.75725 9.98759 4.49655 9.3224 4.1581C8.64467 3.81327 7.99739 3.3515 7.4841 2.88883C6.99598 2.44886 6.54018 1.92911 6.36002 1.44836C6.27415 1.21923 6.17331 0.780312 6.47055 0.397748Z" fill="#EE0000"/>
</svg>
