<svg width="56" height="38" viewBox="0 0 56 38" fill="none" xmlns="http://www.w3.org/2000/svg">
<path fill-rule="evenodd" clip-rule="evenodd" d="M48.7171 1.40109C48.296 1.57741 47.7866 1.78562 47.2341 2.01142C45.3462 2.78302 42.9558 3.75996 41.8711 4.37112L41.8115 4.40472C41.0597 4.82813 40.3911 5.20471 39.9408 5.71138C39.5311 6.17238 39.2956 6.75091 39.5186 7.68002C39.6159 8.08534 39.7406 8.46952 39.8709 8.87111C39.9169 9.01276 39.9636 9.15658 40.01 9.30425C40.1798 9.84409 40.3441 10.4315 40.372 11.0217C40.4008 11.6328 40.2841 12.257 39.8941 12.8555C39.5127 13.4408 38.9059 13.9459 38.0528 14.3976C36.2635 15.3448 34.6474 15.2016 33.2279 14.7871C32.6242 14.6108 32.0412 14.3808 31.5078 14.1703C31.4289 14.1392 31.3512 14.1085 31.2746 14.0785C30.6624 13.8386 30.1236 13.6403 29.6117 13.5379C28.505 13.3166 27.527 13.249 26.5934 13.2148C26.3595 13.2063 26.1247 13.1998 25.8895 13.1934C25.2029 13.1745 24.5129 13.1555 23.8331 13.0839C22.3683 12.9298 21.9193 12.7521 20.5431 12.2074C20.1549 12.0537 19.693 11.8709 19.1137 11.6511C17.8877 11.1861 16.3136 10.92 14.8251 10.6684C14.7758 10.6601 14.7266 10.6518 14.6775 10.6435C13.9289 10.5168 13.2015 10.391 12.5952 10.2417C12.0209 10.1003 11.4254 9.90994 11.0354 9.59081C10.5682 9.20854 10.0941 8.96279 9.77945 8.9014C9.72817 8.89139 9.69069 8.8881 9.66468 8.88756C9.66414 8.89024 9.66361 8.89306 9.66307 8.89603C9.46328 9.99487 8.80879 10.7534 8.37312 11.2583C8.31576 11.3248 8.2622 11.3869 8.21396 11.4448C8.10998 11.5696 7.92282 11.7691 7.70648 11.9997C7.64658 12.0636 7.58446 12.1298 7.52124 12.1975C7.21629 12.5241 6.85374 12.9179 6.49302 13.3407C6.13128 13.7646 5.77888 14.2089 5.49215 14.6349C5.19986 15.0693 5.00248 15.4459 4.91641 15.7386C4.76978 16.2371 4.62575 16.899 4.46302 17.6467C4.37668 18.0435 4.28507 18.4645 4.18501 18.8981C3.90891 20.0946 3.56771 21.3871 3.10144 22.2678C2.71008 23.0071 2.23959 24.1675 1.89084 25.3597C1.53599 26.5728 1.33884 27.7141 1.41649 28.4518C1.48011 29.0562 1.59878 29.6945 1.71878 30.34C1.76762 30.6027 1.81667 30.8665 1.86233 31.1298C1.93873 31.5703 2.00472 32.0077 2.03193 32.4026C2.05828 32.7849 2.05408 33.1939 1.94761 33.5489C1.82923 33.9434 1.82882 34.2163 1.91963 34.4263C2.00694 34.6282 2.24368 34.9199 2.9348 35.2045C3.6578 35.5022 4.49846 35.6868 5.11407 35.6967C5.32964 35.7002 5.48013 35.6814 5.57513 35.6591C5.5649 35.4963 5.56182 35.3334 5.55911 35.1906C5.55827 35.146 5.55746 35.1033 5.55648 35.0631C5.55072 34.8271 5.53938 34.6556 5.50918 34.5197C5.48073 34.3917 5.4456 34.3443 5.4251 34.3238C5.40868 34.3074 5.34905 34.2544 5.15864 34.2251C4.47294 34.1196 3.90979 33.8997 3.56758 33.3009C3.42256 33.0471 3.34065 32.7629 3.27829 32.4885C3.23247 32.2869 3.18927 32.0512 3.14312 31.7995C3.12692 31.7111 3.11035 31.6207 3.09318 31.5291C2.94032 30.7139 2.91888 29.6805 2.93055 28.8285C2.93648 28.3958 2.95127 27.997 2.96441 27.6802C2.96767 27.6017 2.97074 27.5299 2.97352 27.4647C2.98245 27.2553 2.98845 27.1149 2.98845 27.0412C2.98845 26.7271 3.10878 26.4194 3.20713 26.2089C3.31522 25.9776 3.44793 25.7589 3.55791 25.5951C3.73486 25.3316 3.99422 25.1819 4.23957 25.1155C4.56052 25.0285 4.9737 24.8773 5.30672 24.6785C5.67581 24.4583 5.77115 24.2863 5.78203 24.2264C5.86217 23.7857 6.18591 22.732 6.54361 21.6243C6.89513 20.5357 7.30135 19.3295 7.60687 18.4377C7.30227 18.1401 6.94916 17.743 6.69736 17.3217C6.56118 17.0938 6.43546 16.8274 6.3777 16.5428C6.31877 16.2525 6.32403 15.9033 6.50803 15.5721C6.7733 15.0946 7.6432 13.8939 8.53028 12.8317C8.97856 12.295 9.45146 11.769 9.8756 11.3714C10.0864 11.1737 10.3012 10.9925 10.5068 10.8563C10.6821 10.7402 10.9679 10.5749 11.2934 10.5749C11.5773 10.5749 12.1202 10.6589 12.709 10.764C13.3273 10.8744 14.077 11.0238 14.823 11.1812C16.2935 11.4914 17.8215 11.8475 18.285 12.0019C18.5109 12.0773 18.8609 12.2474 19.2336 12.4402C19.624 12.6421 20.0915 12.8966 20.5771 13.1673C21.5417 13.705 22.5929 14.3149 23.2838 14.7226L24.9768 15.3675L27.0177 14.8966C27.2716 14.838 27.5343 14.8641 27.7686 14.9655C28.6729 15.357 30.4585 16.0471 31.6265 16.2417C32.4364 16.3767 34.4611 16.6498 36.6969 16.6611C38.9629 16.6726 41.3135 16.4127 42.8641 15.5745C44.4893 14.696 46.3557 13.0852 48.0186 11.4685C49.3431 10.1808 50.5014 8.92685 51.2738 8.09061C51.4659 7.88263 51.6342 7.7005 51.7752 7.55011C52.4505 6.82968 53.0094 6.13586 53.4065 5.57325C53.6054 5.29147 53.7589 5.04941 53.8652 4.85846C53.8828 4.82672 53.8988 4.79703 53.9132 4.76939C53.8302 4.70464 53.7215 4.62879 53.5887 4.54469C53.1943 4.29496 52.6952 4.03938 52.3347 3.87138L51.0369 3.56602C50.9185 3.62218 50.8132 3.69373 50.7525 3.76176C50.7326 3.78414 50.7237 3.7991 50.7202 3.80613C50.7209 3.80908 50.722 3.81346 50.7241 3.81955C50.9556 4.51403 51.0784 5.35303 51.1201 5.75077C51.1327 5.87168 51.1263 5.99346 51.101 6.11229C51.0279 6.45564 50.8953 6.95018 50.7129 7.37413C50.6232 7.58252 50.5054 7.81239 50.3521 8.00179C50.2161 8.16992 49.9342 8.45063 49.5035 8.45063C49.1554 8.45063 48.7947 8.30661 48.5392 8.18614C48.2573 8.05318 47.9812 7.88827 47.7687 7.74915C47.4015 7.50881 47.2205 7.09688 47.2442 6.69466L47.3122 5.53774C47.3258 5.30756 47.4048 5.08999 47.5354 4.90694C48.0988 4.1171 48.7277 3.04596 48.9636 2.21415C49.0871 1.77868 49.0582 1.56015 49.0256 1.48818C49.019 1.47366 49.015 1.46685 48.9917 1.45456C48.9602 1.43785 48.8797 1.40734 48.7171 1.40109ZM48.2206 0.091197C48.3572 0.0339133 48.5125 -0.0010175 48.676 2.25973e-05C49.3876 0.00455005 50.011 0.271098 50.3007 0.910116C50.5053 1.36134 50.4769 1.87439 50.3775 2.33025C50.457 2.29012 50.5332 2.2566 50.6026 2.2292C50.8421 2.1346 51.082 2.13838 51.2797 2.18491L52.6759 2.51342C52.752 2.53134 52.8281 2.55696 52.9032 2.59179C53.2958 2.7738 53.8658 3.06306 54.3377 3.36188C54.5697 3.50881 54.8073 3.67623 54.99 3.85002C55.0802 3.93578 55.1832 4.04743 55.2624 4.18194C55.3372 4.30888 55.4406 4.542 55.3835 4.8274C55.3376 5.05714 55.2152 5.31154 55.0886 5.53904C54.9514 5.78573 54.7687 6.07114 54.5503 6.3806C54.1127 7.00046 53.5122 7.74416 52.7965 8.50762C52.6629 8.65012 52.5006 8.82586 52.3133 9.02862C51.5429 9.86283 50.3499 11.1546 48.9945 12.4723C47.3186 14.1017 45.3362 15.8297 43.5299 16.8061C41.649 17.8227 38.9915 18.0728 36.6898 18.0611C34.3581 18.0493 32.2557 17.7659 31.3963 17.6227C30.0722 17.402 28.2005 16.6747 27.27 16.2751L25.2323 16.7454C25.0003 16.7989 24.7577 16.7822 24.5352 16.6975L22.7696 16.0249C22.7074 16.0012 22.6469 15.9724 22.5874 15.9372C21.9035 15.5335 20.8543 14.9246 19.8954 14.3901C19.4156 14.1227 18.9624 13.876 18.5905 13.6837C18.201 13.4823 17.9473 13.3651 17.8423 13.3301C17.471 13.2064 16.0313 12.8669 14.534 12.551C13.7962 12.3954 13.0619 12.2492 12.4629 12.1422C11.9128 12.044 11.5318 11.9895 11.3559 11.9774C11.3388 11.9866 11.3137 12.0011 11.28 12.0234C11.1668 12.0985 11.0164 12.2209 10.8331 12.3927C10.4689 12.7341 10.0376 13.211 9.60482 13.7292C8.74731 14.7559 7.96237 15.85 7.7445 16.2296C7.7451 16.2372 7.74652 16.2486 7.74972 16.2643C7.76463 16.3378 7.8085 16.4518 7.89912 16.6035C8.08019 16.9065 8.37143 17.2341 8.64507 17.4939C8.97752 17.8097 9.13188 18.307 8.96878 18.7821C8.66122 19.6782 8.23858 20.9312 7.87588 22.0545C7.50467 23.204 7.21883 24.1503 7.15945 24.4769C7.03392 25.1673 6.46511 25.6176 6.0242 25.8807C5.57343 26.1497 5.06398 26.3372 4.67264 26.4482C4.6031 26.5572 4.53147 26.6818 4.47547 26.8016C4.44123 26.8749 4.41714 26.9373 4.40247 26.9864C4.3909 27.0252 4.38844 27.0457 4.38844 27.0457C4.38822 27.153 4.38032 27.3373 4.37102 27.5541C4.36848 27.6134 4.36583 27.675 4.36321 27.7382C4.35027 28.0503 4.33608 28.4341 4.33042 28.8477C4.3189 29.6882 4.34383 30.6025 4.4692 31.2711C4.48981 31.381 4.50836 31.4822 4.52559 31.5762C4.56942 31.8152 4.60469 32.0076 4.64347 32.1782C4.69704 32.4139 4.74266 32.5355 4.78312 32.6063C4.7842 32.6082 4.78531 32.6101 4.78645 32.6122C4.81556 32.6645 4.87119 32.7644 5.37152 32.8414C5.78394 32.9048 6.14165 33.0605 6.41505 33.3339C6.68438 33.6032 6.81155 33.9267 6.87584 34.216C6.93839 34.4975 6.95023 34.7898 6.95606 35.029C6.95745 35.0858 6.95852 35.1398 6.95954 35.1914C6.96323 35.3781 6.96633 35.5348 6.98178 35.6894C7.00734 35.945 6.95699 36.2038 6.81143 36.4322C6.67146 36.6518 6.47497 36.7942 6.28707 36.8856C5.92876 37.0598 5.49088 37.103 5.09149 37.0966C4.26958 37.0833 3.25538 36.8506 2.40175 36.4991C1.51623 36.1344 0.918287 35.6379 0.634627 34.9819C0.354461 34.334 0.446791 33.6794 0.606649 33.1466C0.639285 33.0378 0.658236 32.8324 0.635247 32.4988C0.613131 32.1779 0.557308 31.7979 0.482921 31.369C0.443736 31.1431 0.398959 30.9022 0.352605 30.6528C0.228911 29.9874 0.0939937 29.2616 0.0241839 28.5984C-0.0836493 27.5739 0.183084 26.2112 0.547153 24.9666C0.917333 23.7011 1.42081 22.4502 1.86414 21.6128C2.23256 20.9169 2.54053 19.7981 2.82086 18.5833C2.90901 18.2013 2.99473 17.8079 3.0786 17.423C3.24953 16.6385 3.41277 15.8893 3.57329 15.3435C3.71907 14.8479 4.00858 14.3319 4.33068 13.8533C4.65836 13.3664 5.04787 12.8774 5.42804 12.4319C5.80923 11.9852 6.18859 11.5733 6.49804 11.242C6.57582 11.1587 6.64754 11.0822 6.71299 11.0124C6.91922 10.7924 7.06324 10.6388 7.13845 10.5485C7.20008 10.4746 7.26137 10.4024 7.32176 10.3313C7.76394 9.81077 8.15818 9.34667 8.28565 8.64559C8.36148 8.22856 8.57921 7.85689 8.9722 7.64825C9.33313 7.45663 9.72774 7.46491 10.0475 7.5273C10.6836 7.6514 11.3689 8.05484 11.9219 8.50727C12.042 8.60548 12.3507 8.7397 12.9299 8.88232C13.4772 9.01707 14.1525 9.13473 14.9111 9.2631C14.9786 9.27452 15.0468 9.28603 15.1155 9.29763C16.5564 9.54081 18.252 9.82697 19.6102 10.3421C20.2455 10.5831 20.7327 10.7756 21.1265 10.9312C22.4349 11.4481 22.7143 11.5584 23.9796 11.6916C24.6011 11.7571 25.2128 11.7739 25.8819 11.7924C26.1273 11.7991 26.3804 11.8061 26.6446 11.8158C27.6122 11.8512 28.6744 11.9227 29.8863 12.1651C30.5337 12.2946 31.1775 12.5368 31.7854 12.7751C31.8663 12.8067 31.9466 12.8384 32.0264 12.8699C32.5645 13.0819 33.083 13.2863 33.6203 13.4432C34.821 13.7938 36.0337 13.8824 37.3977 13.1603C38.1213 12.7772 38.5114 12.413 38.7212 12.0911C38.9223 11.7824 38.9911 11.4618 38.9735 11.0876C38.9549 10.6923 38.841 10.2538 38.6745 9.72415C38.6363 9.60287 38.5951 9.47577 38.5523 9.34414C38.4177 8.92972 38.2685 8.47045 38.1572 8.00674C37.8238 6.61726 38.1911 5.57279 38.8943 4.78141C39.5057 4.09346 40.3641 3.61161 41.0528 3.22508C41.0972 3.20014 41.141 3.17559 41.1839 3.15141C42.3546 2.49175 44.8973 1.4531 46.7927 0.678836C47.3384 0.455923 47.8304 0.254925 48.2206 0.091197ZM7.7443 16.2172L7.74414 16.2191L7.7443 16.2172ZM49.4652 4.4897C49.2156 4.92453 48.9494 5.33256 48.7065 5.67576L48.6492 6.65043C48.8022 6.74577 48.9732 6.84296 49.1363 6.91987C49.2109 6.95505 49.2787 6.98351 49.3381 7.00507C49.3647 6.95666 49.3947 6.89559 49.4269 6.82078C49.5542 6.5249 49.66 6.14765 49.7236 5.85834C49.6883 5.54127 49.6028 4.98138 49.4652 4.4897ZM49.2472 7.13942C49.2472 7.13942 49.2499 7.1361 49.2552 7.13137C49.2499 7.13738 49.2472 7.13942 49.2472 7.13942Z" fill="#EE0000"/>
</svg>
