<svg width="56" height="47" viewBox="0 0 56 47" fill="none" xmlns="http://www.w3.org/2000/svg">
<path fill-rule="evenodd" clip-rule="evenodd" d="M16.7111 1.46299C16.2325 1.56547 16.0261 1.75084 15.9704 1.86227C15.6836 2.43538 13.3553 8.072 10.4793 15.091C7.61411 22.0837 4.22822 30.3912 1.84364 36.2539C1.53449 37.014 1.36013 37.7892 1.4078 38.5408C1.54619 40.7221 2.23349 42.2116 3.17062 43.2294C4.1137 44.2536 5.36233 44.857 6.71418 45.1671C8.06843 45.4777 9.49796 45.4868 10.7511 45.3433C12.0114 45.199 13.0428 44.9064 13.5986 44.6517C14.0537 44.4431 14.3491 44.0689 14.5287 43.5327C14.714 42.9799 14.762 42.2875 14.7158 41.5418C14.6243 40.0654 14.1798 38.5838 14.0075 38.0095L14.0029 37.9942C13.8324 37.426 13.1509 35.0706 12.766 32.7183C12.5744 31.5474 12.4491 30.3364 12.5117 29.3333C12.5429 28.8326 12.6229 28.3454 12.7885 27.9284C12.9549 27.5095 13.2323 27.1037 13.6891 26.8753C14.0451 26.6973 14.4111 26.6227 14.7766 26.6688C15.1371 26.7142 15.439 26.8696 15.6842 27.056C16.1372 27.4002 16.4902 27.9299 16.7521 28.3229L16.7847 28.3718C16.9211 28.5764 17.0377 28.7513 17.1532 28.9019C17.2761 29.0621 17.3662 29.1519 17.4294 29.1971C17.4326 29.1994 17.4356 29.2014 17.4383 29.2033C17.4619 29.1896 17.4999 29.1632 17.553 29.1139C18.0359 28.6654 18.9228 28.1848 19.928 27.7178C20.9621 27.2373 22.214 26.7306 23.5015 26.2451C26.0769 25.2741 28.8337 24.3738 30.3594 23.9217C31.1932 23.6747 32.4053 23.5244 33.7324 23.4348C35.0741 23.3442 36.5847 23.3126 38.0426 23.3196C39.5014 23.3266 40.9153 23.3724 42.0659 23.4378C43.196 23.502 44.1234 23.5877 44.5762 23.6847C46.5613 24.1101 47.7087 26.3511 46.9774 28.1062C46.7364 28.6847 46.1526 29.0893 45.6133 29.3726C45.036 29.6758 44.3326 29.929 43.6309 30.1316C42.2391 30.5333 40.7155 30.7743 39.9549 30.7743C39.5044 30.7743 38.8176 31.037 38.1318 31.5958C37.4618 32.1418 36.8787 32.903 36.5919 33.7635L36.5915 33.7646C36.5915 33.7646 36.5919 33.7687 36.5929 33.7734C36.5969 33.7911 36.6117 33.8366 36.6636 33.9107C36.7729 34.0671 36.989 34.2697 37.3394 34.5025C38.0331 34.9633 39.0738 35.4264 40.2404 35.8313C41.3981 36.2331 42.6387 36.5635 43.7072 36.7721C44.812 36.9879 45.6279 37.0514 45.9925 36.9907C46.3832 36.9256 46.6506 36.7919 46.8591 36.6185C47.0755 36.4386 47.262 36.1878 47.4481 35.8404C47.6289 35.5031 47.7893 35.1145 47.981 34.6502L48.009 34.5823C48.2083 34.0998 48.4359 33.5554 48.7322 32.9924C49.0407 32.4063 49.498 31.7654 49.9912 31.1096C50.1787 30.8603 50.3706 30.6098 50.5654 30.3555C50.8983 29.9209 51.2398 29.475 51.5826 29.0047C52.6679 27.5159 53.6196 25.9722 53.9229 24.4556C54.1881 23.1299 53.5284 21.9915 52.4624 21.0295C51.4001 20.0708 50.056 19.4079 49.2996 19.0837C49.0258 18.9663 48.3931 18.852 47.4702 18.7724C46.5823 18.6959 45.5184 18.6578 44.453 18.6509C43.3886 18.644 42.333 18.6682 41.464 18.7146C40.5708 18.7622 39.9376 18.8306 39.6772 18.8957C39.4359 18.956 39.0056 19.1518 38.3811 19.4784C38.0244 19.6648 37.6384 19.8753 37.2222 20.1022C36.9258 20.2638 36.614 20.4337 36.2866 20.6093C34.7567 21.4299 32.945 22.3425 31.3868 22.7021C29.786 23.0715 27.82 22.8792 25.9241 22.5562C24.965 22.3928 23.9981 22.1909 23.078 21.9971L22.9425 21.9685C22.0671 21.784 21.2398 21.6097 20.4833 21.4793C19.0848 21.2382 17.5797 21.7397 16.0118 22.4117C15.7364 22.5297 15.4534 22.6555 15.1699 22.7815C14.6854 22.9968 14.1998 23.2126 13.7495 23.3909C13.0276 23.6768 12.2818 23.916 11.5744 23.9497C10.8652 23.9835 10.2593 23.8253 9.79517 23.4759C9.33021 23.1258 9.07763 22.6364 8.98044 22.1407C8.79522 21.1961 9.14829 20.103 9.84553 19.4832C10.1927 19.1747 10.7023 18.9281 11.202 18.7215C11.6846 18.522 12.2383 18.3287 12.7758 18.1411C12.8141 18.1277 12.8522 18.1144 12.8903 18.1011C13.4739 17.8972 14.035 17.6986 14.5177 17.4912C15.0137 17.2782 15.3576 17.0841 15.5474 16.9132C15.5692 16.8936 15.6369 16.8116 15.7182 16.6017C15.7954 16.4024 15.8653 16.1395 15.9255 15.8186C16.0461 15.1769 16.1141 14.3824 16.1556 13.5666C16.1883 12.9234 16.2037 12.2865 16.2175 11.7173C16.2211 11.5664 16.2247 11.4202 16.2284 11.2799C16.2371 10.9493 16.247 10.6473 16.2622 10.4008C16.2761 10.1776 16.2974 9.92831 16.3494 9.74621C16.4233 9.48756 16.5813 9.12993 16.7646 8.7393C16.9137 8.42167 17.0968 8.04696 17.2994 7.63236C17.3549 7.51878 17.4119 7.40221 17.47 7.283C18.0143 6.16669 18.6768 4.78621 19.2828 3.29898C19.5167 2.72483 19.4231 2.37809 19.2667 2.15048C19.0831 1.88324 18.7191 1.6482 18.212 1.51254C17.7129 1.37906 17.161 1.36663 16.7111 1.46299ZM17.4094 29.2172L17.4109 29.2168L17.4094 29.2172ZM17.4637 29.2183L17.4646 29.2186L17.4637 29.2183ZM20.4205 1.35753C20.8863 2.03535 20.9606 2.89116 20.5793 3.8272C19.9547 5.36034 19.2748 6.77604 18.7284 7.89659C18.6685 8.01941 18.6104 8.13831 18.5543 8.25323C18.3526 8.66604 18.176 9.02737 18.032 9.33418C17.8413 9.74043 17.7335 9.99795 17.6956 10.1308C17.6943 10.137 17.6887 10.165 17.6817 10.2233C17.6738 10.2902 17.6663 10.3778 17.6596 10.4874C17.646 10.7067 17.6366 10.9868 17.6279 11.3169C17.6243 11.4514 17.6209 11.5935 17.6173 11.7418C17.6035 12.3125 17.5876 12.9738 17.5538 13.6377C17.5114 14.4719 17.4396 15.3413 17.3015 16.077C17.2324 16.4448 17.1432 16.7988 17.0237 17.1073C16.9084 17.4052 16.7419 17.7217 16.484 17.9538C16.1145 18.2863 15.5915 18.5537 15.0702 18.7776C14.5356 19.0072 13.9291 19.2211 13.3521 19.4227C13.3176 19.4348 13.2832 19.4468 13.249 19.4587C12.6995 19.6506 12.1815 19.8315 11.7369 20.0153C11.2473 20.2177 10.9319 20.3907 10.7756 20.5296C10.4661 20.8048 10.2598 21.3896 10.3543 21.8713C10.3969 22.0888 10.4939 22.2495 10.6372 22.3574C10.7813 22.4659 11.0424 22.5735 11.5078 22.5513C11.975 22.5291 12.5436 22.3627 13.234 22.0893C13.6634 21.9192 14.0962 21.7267 14.5564 21.5219C14.845 21.3935 15.1443 21.2603 15.4603 21.1249C17.0246 20.4545 18.8755 19.7814 20.7211 20.0996C21.5041 20.2346 22.3549 20.4139 23.2216 20.5966L23.3666 20.6271C24.2888 20.8214 25.2306 21.0179 26.1592 21.1761C28.0388 21.4963 29.7643 21.6397 31.072 21.3379C32.4223 21.0263 34.0784 20.205 35.6249 19.3756C35.9316 19.2111 36.237 19.0446 36.5328 18.8834C36.9614 18.6498 37.3697 18.4273 37.7324 18.2377C38.3314 17.9245 38.9078 17.6449 39.3377 17.5375C39.7486 17.4348 40.5136 17.3633 41.3894 17.3166C42.2893 17.2685 43.373 17.2438 44.4621 17.2509C45.55 17.258 46.6535 17.2968 47.5905 17.3776C48.4923 17.4553 49.3419 17.5787 49.8511 17.7969C50.6608 18.1439 52.1693 18.8793 53.4003 19.9901C54.6275 21.0976 55.7018 22.6999 55.2957 24.7302C54.9278 26.5696 53.81 28.3258 52.7139 29.8294C52.3637 30.3099 52.0006 30.784 51.6593 31.2298C51.4673 31.4805 51.2822 31.7222 51.1102 31.951C50.6175 32.6061 50.2219 33.1678 49.9711 33.6444C49.7081 34.1441 49.5022 34.6345 49.303 35.1168C49.2905 35.1471 49.2779 35.1774 49.2654 35.2078C49.0832 35.6494 48.8975 36.0997 48.6822 36.5015C48.4488 36.9372 48.1599 37.3576 47.7541 37.695C47.3404 38.0391 46.8387 38.269 46.2226 38.3716C45.5804 38.4787 44.5365 38.3605 43.4389 38.1462C42.3051 37.9248 41.0008 37.5771 39.7814 37.1539C38.5708 36.7338 37.4022 36.225 36.5647 35.6686C36.1495 35.3927 35.7696 35.0754 35.5162 34.713C35.2547 34.3389 35.0875 33.8495 35.2637 33.3208C35.648 32.1677 36.4074 31.195 37.2475 30.5105C38.0719 29.8388 39.0631 29.3743 39.9549 29.3743C40.5368 29.3743 41.9216 29.1678 43.2426 28.7865C43.8973 28.5975 44.5013 28.3753 44.9623 28.1332C45.4612 27.8711 45.6465 27.6605 45.6851 27.5678C46.0725 26.6381 45.43 25.2994 44.2829 25.0536C43.9527 24.9829 43.1322 24.9007 41.9865 24.8356C40.8613 24.7716 39.4716 24.7265 38.0359 24.7196C36.5993 24.7126 35.1244 24.744 33.8268 24.8316C32.5146 24.9202 31.4334 25.0637 30.7571 25.2641C29.2624 25.7069 26.5378 26.5965 23.9954 27.5551C22.7239 28.0345 21.5078 28.5275 20.5179 28.9875C19.499 29.4608 18.8057 29.8611 18.5056 30.1398C18.2414 30.3851 17.9255 30.5736 17.5552 30.6086C17.1748 30.6447 16.8561 30.508 16.6156 30.3363C16.3852 30.1717 16.1957 29.9539 16.0423 29.754C15.8973 29.5649 15.7564 29.3534 15.6283 29.1611C15.6192 29.1474 15.6101 29.1337 15.6011 29.1202C15.305 28.6761 15.0752 28.3516 14.8371 28.1706C14.7327 28.0912 14.6571 28.0648 14.6015 28.0578C14.5511 28.0515 14.4626 28.0538 14.3152 28.1275C14.2686 28.1508 14.1789 28.2204 14.0897 28.4452C13.9997 28.6718 13.9354 28.9965 13.909 29.4205C13.8562 30.2667 13.9617 31.3559 14.1476 32.4922C14.5178 34.7544 15.1787 37.0414 15.3438 37.5919L15.3534 37.6238C15.5289 38.2082 16.0115 39.8158 16.1131 41.4553C16.1648 42.2897 16.1219 43.1844 15.8562 43.9775C15.5849 44.7872 15.0693 45.5177 14.1819 45.9244C13.4547 46.2577 12.2703 46.5785 10.9103 46.7342C9.5432 46.8908 7.94798 46.8865 6.40115 46.5316C4.85193 46.1763 3.32317 45.4619 2.1407 44.1777C0.952292 42.887 0.165894 41.077 0.0106128 38.6294C-0.0543516 37.6054 0.185646 36.6144 0.546804 35.7264C2.93163 29.8632 6.31801 21.5544 9.18385 14.5602C12.0389 7.59221 14.4004 1.87126 14.7183 1.2359C15.0542 0.56448 15.7707 0.232634 16.4179 0.0940286C17.0937 -0.0507037 17.8702 -0.0280998 18.5737 0.160087C19.2691 0.346094 19.9819 0.719354 20.4205 1.35753Z" fill="#EE0000"/>
</svg>
