<svg width="56" height="41" viewBox="0 0 56 41" fill="none" xmlns="http://www.w3.org/2000/svg">
<path fill-rule="evenodd" clip-rule="evenodd" d="M17.4502 0.11398C18.1177 -0.086268 18.8053 -0.00425644 19.4695 0.21716C20.1267 0.436228 20.6292 0.731588 20.9981 1.13408C21.3693 1.53898 21.5555 1.99818 21.6693 2.45351C21.7528 2.78726 21.8055 3.16117 21.8561 3.51945C21.8708 3.6234 21.8852 3.72602 21.9002 3.82598C21.9704 4.29372 22.06 4.78045 22.235 5.30533C22.5689 6.30702 23.4334 7.3671 24.4116 8.44312C24.5787 8.62692 24.7507 8.81307 24.9218 8.99824C25.2289 9.33052 25.5331 9.65962 25.8004 9.96619C26.2157 10.4426 26.6061 10.935 26.8424 11.4076C27.0103 11.7434 27.0508 12.1139 27.0416 12.4548C27.0322 12.7999 26.9701 13.1678 26.8867 13.5336C26.7698 14.0461 26.5927 14.6262 26.4168 15.2021C26.3465 15.4323 26.2764 15.6618 26.2104 15.8861C25.9702 16.7028 25.7711 17.4898 25.7166 18.1981C25.662 18.9079 25.76 19.4522 26.0245 19.849C26.2524 20.1908 26.5804 20.3537 27.0999 20.3361C27.6603 20.3171 28.3972 20.0812 29.2776 19.6178C31.0271 18.697 33.0988 17.0103 35.0122 15.0969C35.896 14.2131 36.6289 12.9913 37.267 11.6087C37.9034 10.2297 38.4252 8.73733 38.9102 7.33088C38.9342 7.26128 38.9582 7.19181 38.982 7.1225C39.4329 5.81373 39.8636 4.56385 40.3234 3.63213C40.5657 3.14118 40.8391 2.68921 41.1628 2.35185C41.4912 2.00964 41.9277 1.72972 42.4754 1.72972H46.8134C48.691 1.72972 50.431 2.71489 51.397 4.32496L53.0429 7.06805C54.1836 8.96928 54.0323 11.3774 52.6624 13.1208L46.7947 20.5888C46.5738 20.87 46.5528 21.2595 46.7423 21.5627L54.8181 34.484C56.3987 37.0129 54.5806 40.2933 51.5983 40.2933H8.91836C5.30306 40.2933 3.7335 35.7188 6.58724 33.4992L11.6643 29.5504C12.1274 29.1902 12.0939 28.4798 11.5989 28.1648L5.40995 24.2264C4.96534 23.9435 4.63425 23.5133 4.47446 23.0112L0.179822 9.51373C-0.463472 7.49195 0.674819 5.33529 2.707 4.72564L4.6603 4.13965C6.5742 3.56548 8.60313 4.57208 9.31159 6.43738C10.1907 8.75193 11.3164 11.6852 12.1557 13.7834C12.3425 14.2504 12.5095 14.6029 12.6565 14.8554C12.6917 14.9158 12.7241 14.9675 12.7535 15.0116C12.936 14.6095 13.1282 13.8969 13.3211 12.83C13.5226 11.7161 13.7141 10.2828 13.907 8.54635C14.2946 5.05816 14.8856 2.77582 15.7623 1.46075C16.216 0.78025 16.7735 0.316987 17.4502 0.11398ZM16.9272 2.23733C16.2554 3.24499 15.6851 5.22097 15.2984 8.70096C15.1043 10.4486 14.9086 11.9187 14.6988 13.0791C14.4928 14.2181 14.2617 15.1293 13.9707 15.7113C13.8314 15.9899 13.6206 16.3146 13.2834 16.4889C13.0974 16.585 12.8847 16.6286 12.6622 16.5991C12.4484 16.5708 12.2682 16.4807 12.125 16.3776C11.8536 16.1822 11.6335 15.8806 11.4468 15.56C11.2521 15.2258 11.0561 14.8041 10.8558 14.3033C10.0117 12.1931 8.8823 9.25009 8.00281 6.93447C7.55409 5.75302 6.27035 5.11828 5.06259 5.48061L3.10929 6.0666C1.8264 6.45146 1.10782 7.81292 1.51392 9.08924L5.80856 22.5867C5.86885 22.7762 5.9938 22.9385 6.16157 23.0453L12.3505 26.9837C13.6623 27.8185 13.7512 29.7009 12.5238 30.6555L7.44676 34.6043C5.64524 36.0055 6.63607 38.8933 8.91836 38.8933H51.5983C53.4809 38.8933 54.6287 36.8224 53.6309 35.226L45.5551 22.3047C45.0529 21.5012 45.1084 20.469 45.6938 19.7239L51.5616 12.2558C52.5727 10.969 52.6844 9.19164 51.8424 7.78834L50.1965 5.04525C49.4835 3.85686 48.1993 3.12972 46.8134 3.12972H42.4754C42.4424 3.12972 42.3466 3.14015 42.173 3.32115C41.9946 3.50701 41.7962 3.81113 41.5788 4.2517C41.1597 5.10103 40.7554 6.27394 40.2879 7.63017L40.2337 7.78726C39.7509 9.18744 39.2082 10.7436 38.5381 12.1954C37.8696 13.6437 37.054 15.035 36.0022 16.0868C34.0444 18.0446 31.8578 19.8419 29.9296 20.8567C28.9712 21.3612 28.0144 21.7059 27.1473 21.7353C26.2394 21.7661 25.406 21.4451 24.8596 20.6256C24.3499 19.861 24.2543 18.9536 24.3207 18.0907C24.3872 17.2263 24.6236 16.3197 24.8673 15.4911C24.9442 15.2297 25.0208 14.9788 25.0945 14.7375C25.2633 14.185 25.4167 13.6829 25.5217 13.2223C25.5956 12.8986 25.6363 12.6314 25.6421 12.417C25.648 12.1984 25.6159 12.085 25.5902 12.0337C25.4394 11.732 25.1524 11.3534 24.7451 10.8862C24.4893 10.5928 24.2114 10.2922 23.9157 9.97242C23.7416 9.78409 23.5613 9.58906 23.3757 9.38486C22.4183 8.33173 21.3472 7.06908 20.9068 5.74805C20.6947 5.11156 20.5907 4.53371 20.5157 4.03365C20.4957 3.9002 20.4782 3.77649 20.4618 3.66053C20.4138 3.32173 20.3751 3.04908 20.3111 2.79306C20.2314 2.47414 20.1273 2.25588 19.9661 2.0801C19.8028 1.90191 19.531 1.71337 19.0268 1.54532C18.5297 1.37961 18.1528 1.36484 17.8524 1.45494C17.5613 1.54227 17.2478 1.75647 16.9272 2.23733Z" fill="#EE0000"/>
</svg>
