<svg width="56" height="33" viewBox="0 0 56 33" fill="none" xmlns="http://www.w3.org/2000/svg">
<path fill-rule="evenodd" clip-rule="evenodd" d="M55.0176 0.676536C55.4288 1.32357 55.4938 2.33332 55.2809 3.50448C55.0524 4.76106 54.2544 6.40539 53.2083 8.0069C52.1514 9.6248 50.7906 11.2761 49.3635 12.5446C46.3651 15.2099 42.7222 14.7525 41.5545 14.5402C41.1465 14.466 40.3256 14.538 39.535 14.7657C39.1508 14.8762 38.8172 15.0117 38.5767 15.1542C38.3542 15.2861 38.2905 15.3768 38.2787 15.3936C38.2763 15.3969 38.276 15.3973 38.2769 15.3946C38.0847 15.9714 37.6362 16.7021 37.0032 17.3063C36.3651 17.9155 35.4792 18.4521 34.4005 18.5155C33.6998 18.5567 32.5177 18.9998 31.4001 19.6331C30.8554 19.9418 30.3588 20.2774 29.9765 20.5979C29.5731 20.936 29.3716 21.1961 29.3119 21.3395C28.999 22.0904 28.2999 22.9117 27.5867 23.5307C27.2219 23.8473 26.8281 24.1333 26.4416 24.3441C26.0716 24.546 25.6367 24.7187 25.2088 24.7187C24.8071 24.7187 24.1305 24.847 23.4886 25.0921C23.1733 25.2125 22.8898 25.3524 22.6669 25.5014C22.4368 25.6553 22.3142 25.7902 22.2622 25.8838C22.0621 26.244 21.6768 26.597 21.2998 26.897C20.8987 27.2162 20.4143 27.5461 19.925 27.8527C18.9548 28.4607 17.8982 29.0186 17.335 29.2439C16.7452 29.4799 16.0978 29.599 15.5373 29.599C15.2572 29.599 14.9741 29.5693 14.7189 29.4944C14.477 29.4234 14.1784 29.2875 13.9733 29.014C13.8466 28.8451 13.6867 28.6775 13.5152 28.5806C13.367 28.4969 13.2276 28.4713 13.0506 28.5377C12.7524 28.6495 12.393 28.6997 12.0585 28.7235C11.7122 28.7481 11.3389 28.7476 10.9865 28.7343C10.2897 28.708 9.61474 28.6292 9.31236 28.5687L9.31413 28.5691C9.31413 28.5691 9.26123 28.5644 9.12132 28.5941C8.97644 28.6248 8.7927 28.6803 8.55783 28.7607C8.41523 28.8094 8.2518 28.8684 8.07326 28.9327C7.70035 29.0672 7.26149 29.2254 6.80868 29.3647C6.60978 29.4259 6.37813 29.5666 6.11199 29.7993C5.84898 30.0293 5.58693 30.3179 5.32059 30.6338C5.21647 30.7573 5.10035 30.8991 4.98335 31.042C4.83046 31.2287 4.67606 31.4173 4.54492 31.5693C4.30534 31.8469 4.02267 32.1504 3.7203 32.3394C3.18426 32.6745 2.5468 32.8279 1.903 32.6991C1.25454 32.5694 0.676268 32.1689 0.234065 31.5372C-0.0831813 31.084 -0.046088 30.5895 0.154426 30.1946C0.331678 29.8455 0.635786 29.5618 0.920277 29.3456C1.49803 28.9067 2.26109 28.55 2.7837 28.3508C4.73977 27.5272 8.67661 25.8595 9.13683 25.6294C9.42403 25.4858 9.78423 25.4432 10.0634 25.4211C10.2897 25.4032 10.5478 25.3946 10.797 25.3864C10.8785 25.3837 10.9591 25.381 11.0372 25.3781C11.3703 25.3655 11.6839 25.3474 11.9625 25.3058C12.2478 25.2633 12.4444 25.2029 12.5662 25.1353C13.2219 24.771 14.0421 24.7656 14.6685 24.8652C14.9953 24.9172 15.3103 25.0039 15.5776 25.1153C15.8154 25.2144 16.1205 25.3752 16.3133 25.6322L16.3188 25.6395C16.461 25.8291 16.5272 25.9175 16.7313 25.9835C16.9892 26.0669 17.5308 26.1209 18.6547 25.8765C19.1311 25.773 19.3766 25.6078 19.5185 25.458C19.6653 25.303 19.7579 25.1051 19.8313 24.8375C19.8687 24.7014 19.8977 24.5609 19.9305 24.4003L19.934 24.383C19.9641 24.235 19.9991 24.0632 20.045 23.8988C20.1394 23.5607 20.3143 23.1191 20.7535 22.8263C21.3706 22.4148 22.1128 22.3055 22.7637 22.2534C23.0247 22.2325 23.2675 22.2203 23.5012 22.2086C23.9106 22.1881 24.2924 22.1689 24.6959 22.1068C24.8686 22.0802 25.0682 21.9401 25.2629 21.5766C25.4518 21.2239 25.5653 20.7827 25.6132 20.4408C25.6478 20.1936 25.7576 19.933 25.9712 19.7275C26.3941 19.3209 27.2551 18.5528 27.9459 18.2073C28.5697 17.8955 30.8739 16.6465 32.0252 16.0188C32.1347 15.9591 32.2509 15.9179 32.3708 15.8947L34.4138 15.4992C34.0967 14.9914 34.2025 14.3243 34.6664 13.94L44.4159 5.86368L52.8657 0.365499C53.1792 0.128217 53.5679 -0.0371383 53.9926 0.00720452C54.4488 0.0548247 54.7961 0.328005 55.0176 0.676536ZM53.8253 1.41139C53.7988 1.42269 53.7575 1.44512 53.7007 1.48941L53.6771 1.50781L45.247 6.9932L35.6984 14.9031L35.7448 14.9729C36.2205 15.6862 35.8162 16.6538 34.9744 16.8167L32.6673 17.2633C31.5195 17.8889 29.2188 19.1361 28.572 19.4595C28.1117 19.6897 27.4241 20.2782 26.9918 20.6887C26.9252 21.129 26.7764 21.716 26.497 22.2376C26.3371 22.5362 26.1104 22.8549 25.8002 23.0991C26.0704 22.9482 26.371 22.7321 26.6691 22.4734C27.303 21.9231 27.8241 21.2702 28.0196 20.801C28.214 20.3344 28.6352 19.8954 29.077 19.525C29.5398 19.137 30.1108 18.7545 30.7099 18.4151C31.88 17.752 33.2905 17.1784 34.3182 17.1179C34.968 17.0797 35.5563 16.7521 36.0366 16.2937C36.522 15.8303 36.8361 15.2901 36.9488 14.9519C37.1068 14.4778 37.513 14.1573 37.8628 13.9499C38.2387 13.7271 38.693 13.5512 39.1476 13.4203C40.0346 13.165 41.0946 13.0336 41.805 13.1628C42.8741 13.3572 45.9416 13.7132 48.4334 11.4982C49.7515 10.3266 51.0342 8.7752 52.0362 7.24126C53.0489 5.69092 53.7252 4.23424 53.9034 3.25404C54.0972 2.1884 53.9587 1.62052 53.836 1.42747C53.8321 1.42134 53.8285 1.416 53.8253 1.41139ZM23.4942 23.6118C23.4853 23.6123 23.4764 23.6127 23.4675 23.6132C23.2531 23.6243 23.052 23.6348 22.8753 23.6489C22.2552 23.6986 21.8279 23.7925 21.5301 23.9911C21.5117 24.0033 21.4578 24.0447 21.3934 24.2753C21.3617 24.3888 21.3357 24.5158 21.3023 24.6797L21.3018 24.6819C21.2889 24.7455 21.2749 24.8141 21.2594 24.8858C21.4422 24.6688 21.6646 24.4874 21.8888 24.3376C22.2219 24.1149 22.6056 23.9307 22.9893 23.7842C23.1543 23.7212 23.3238 23.6635 23.4942 23.6118ZM17.884 27.4214C17.2212 27.4895 16.7096 27.4479 16.3003 27.3155C15.6701 27.1116 15.377 26.7185 15.2137 26.4996L15.2109 26.4957C15.203 26.4913 15.1561 26.4563 15.0392 26.4076C14.8871 26.3443 14.6809 26.2848 14.4485 26.2478C13.9563 26.1695 13.5055 26.215 13.2461 26.3591C12.9104 26.5456 12.5225 26.6378 12.1692 26.6905C11.8093 26.7442 11.4304 26.7643 11.0901 26.7771C10.9941 26.7807 10.9024 26.7838 10.8145 26.7867C10.5759 26.7946 10.3653 26.8016 10.1738 26.8167C10.0467 26.8268 9.94624 26.8393 9.86889 26.8542C9.79813 26.8679 9.7678 26.8798 9.76325 26.8815C9.66266 26.9318 9.42801 27.0373 9.10176 27.1804C9.25641 27.1639 9.4223 27.163 9.58692 27.1959C9.79291 27.2371 10.3888 27.3107 11.0393 27.3353C11.3604 27.3474 11.6797 27.3469 11.9593 27.327C12.2507 27.3063 12.4506 27.2675 12.559 27.2269C13.1954 26.9882 13.7677 27.1152 14.2041 27.3618C14.5943 27.5824 14.8815 27.8987 15.0625 28.1335C15.0735 28.1381 15.09 28.1443 15.1133 28.1511C15.2044 28.1779 15.3471 28.199 15.5373 28.199C15.9172 28.199 16.3883 28.1148 16.8151 27.9441C17.0538 27.8486 17.4375 27.6621 17.884 27.4214ZM15.0443 28.1247L15.0456 28.1255L15.0443 28.1247ZM4.97165 28.9467C4.35025 29.2097 3.77267 29.4534 3.31562 29.6458L3.30403 29.6507L3.29228 29.6552C2.83242 29.8296 2.19988 30.1317 1.76718 30.4604C1.57773 30.6043 1.47249 30.7194 1.42356 30.7931C1.68039 31.1357 1.94908 31.2806 2.17757 31.3263C2.4234 31.3755 2.70098 31.3256 2.9783 31.1522C3.08263 31.087 3.24478 30.933 3.48496 30.6547C3.61887 30.4995 3.74185 30.3488 3.87481 30.1859C3.98835 30.0468 4.10916 29.8988 4.25026 29.7314C4.46991 29.4709 4.71173 29.1976 4.97165 28.9467Z" fill="#EE0000"/>
</svg>
