<svg width="56" height="33" viewBox="0 0 56 33" fill="none" xmlns="http://www.w3.org/2000/svg">
<path fill-rule="evenodd" clip-rule="evenodd" d="M50.359 1.71619C50.6215 1.95828 50.8 2.08944 50.8998 2.13477C51.4095 2.36649 52.2293 2.70785 52.7951 2.86177C53.2583 2.98779 53.6828 3.38738 53.7356 3.95308L55.2444 20.0965V20.1292C55.2444 20.554 55.2286 21.2307 55.1809 21.8921C55.1354 22.5215 55.0554 23.2408 54.8937 23.6855C54.6919 24.2405 54.171 24.9415 53.6963 25.4937C53.4473 25.7833 53.1882 26.0582 52.9512 26.2847C52.7274 26.4987 52.4828 26.7089 52.2688 26.8312C52.1567 26.8953 52.0466 26.9215 51.9896 26.9335C51.9207 26.9479 51.8506 26.9567 51.7864 26.9626C51.6577 26.9745 51.5058 26.9786 51.3432 26.9783C51.0156 26.9776 50.5908 26.9585 50.1096 26.9268C49.1444 26.8631 47.9109 26.7462 46.6856 26.6106C45.4597 26.475 44.2333 26.3196 43.2811 26.1782C42.8061 26.1076 42.3924 26.0395 42.0786 25.9781C41.9227 25.9475 41.7822 25.9168 41.6675 25.8864C41.6104 25.8712 41.5511 25.8539 41.4952 25.834C41.4511 25.8182 41.3616 25.7848 41.2732 25.7259C40.9649 25.5204 40.8036 25.1726 40.7152 24.9546C40.6121 24.7006 40.5279 24.4058 40.4558 24.1416C40.4377 24.0749 40.4202 24.0101 40.4033 23.9471C40.3488 23.7447 40.2992 23.5604 40.2456 23.3912C40.1978 23.2402 40.1579 23.1392 40.1284 23.0763C40.1233 23.0743 40.1179 23.0723 40.1122 23.0701C40.0129 23.0335 39.861 22.993 39.6565 22.9537C39.2511 22.8759 38.7198 22.8182 38.1679 22.7854C37.6181 22.7528 37.0689 22.7463 36.6322 22.7655C36.4129 22.7752 36.2333 22.7909 36.1013 22.8103C36.0582 22.8167 36.0262 22.8227 36.0035 22.8274L36.0017 22.8297C35.9621 22.8826 35.9116 22.9633 35.8486 23.0784C35.7638 23.2334 35.682 23.4015 35.5896 23.5916C35.5379 23.698 35.4828 23.8112 35.4219 23.9329C35.2658 24.2452 35.0779 24.5989 34.8578 24.8903C34.6538 25.1605 34.3231 25.5131 33.841 25.6007C33.6439 25.6366 33.3904 25.6313 33.1576 25.6174C32.9043 25.6023 32.6018 25.5714 32.2722 25.5292C31.6119 25.4448 30.8145 25.3118 30.03 25.1549C29.2469 24.9982 28.4628 24.8151 27.8327 24.6286C27.5189 24.5357 27.2293 24.4379 26.9919 24.3372C26.7919 24.2523 26.5076 24.1178 26.3233 23.9073C26.1333 23.6901 26.0309 23.4231 25.9698 23.1971C25.906 22.9608 25.8704 22.704 25.851 22.4552C25.8167 22.0136 25.8297 21.5401 25.8589 21.1391C24.8213 20.9049 23.2763 20.5486 22.504 20.3427C22.2592 20.2774 21.9915 20.1284 21.754 19.98C21.4983 19.8202 21.2068 19.6149 20.8978 19.3846C20.279 18.9235 19.5547 18.3355 18.846 17.7479C18.4907 17.4533 18.137 17.1569 17.8005 16.8748L17.7683 16.8478C17.443 16.5751 17.1348 16.3167 16.8548 16.0848C16.489 15.7817 16.1922 15.5415 15.9771 15.3766C15.8576 15.5241 15.7224 15.7218 15.5748 15.9763C15.3238 16.409 15.0645 16.9564 14.8026 17.5896C14.2792 18.8555 13.7673 20.4111 13.305 21.9641C12.8435 23.5141 12.4359 25.0463 12.1189 26.2616C12.0572 26.4982 11.9983 26.7254 11.9427 26.94C11.7203 27.7977 11.5504 28.453 11.4636 28.696C11.3809 28.9277 11.2787 29.3195 11.155 29.8068C11.145 29.8464 11.1348 29.8864 11.1246 29.9269C11.0133 30.3659 10.8899 30.8527 10.7617 31.2833C10.6308 31.7228 10.465 32.2132 10.2544 32.5218C10.1968 32.6063 10.1136 32.7113 9.99843 32.7999C9.88042 32.8908 9.69106 32.992 9.44574 32.9846C8.94652 32.9694 8.71154 32.5516 8.63542 32.3994C8.5532 32.2349 8.36959 32.0013 8.06763 31.7039C7.77515 31.4159 7.41279 31.1074 7.01863 30.7892C6.7709 30.5892 6.50471 30.3813 6.23898 30.1737C5.69432 29.7483 5.1516 29.3244 4.77378 28.9736C4.00171 28.2566 3.87509 27.1541 3.87509 26.3295C3.87509 25.8932 3.9118 25.472 3.946 25.1264C3.95305 25.0551 3.95975 24.9889 3.96597 24.9274C3.98425 24.7467 3.99841 24.6067 4.00536 24.4981C3.97683 24.4838 3.93786 24.4667 3.88617 24.4486C3.64186 24.3627 3.30146 24.3164 3.00973 24.304C2.75446 24.2931 2.49032 24.2048 2.27147 24.0225L0.432526 22.49C-0.0275841 22.1066 -0.137196 21.4408 0.184522 20.9299C2.31976 17.5387 6.25921 11.263 6.72518 10.4476C7.0808 9.82525 7.7353 9.05122 8.44083 8.44944C8.79637 8.14619 9.18746 7.8671 9.58378 7.67186C9.96752 7.48281 10.4322 7.33461 10.9034 7.40192C11.1383 7.43548 11.349 7.54069 11.5118 7.64019C11.6843 7.7456 11.8591 7.87978 12.0298 8.02595C12.3712 8.31847 12.7454 8.70199 13.1195 9.1152C13.8104 9.87833 14.5479 10.7955 15.1479 11.5503L19.3251 6.73055C19.7148 6.28085 20.3776 6.18139 20.8824 6.50813C24.0488 8.55776 29.9892 12.4121 30.9495 13.0723L30.9476 13.071C30.9476 13.071 30.9751 13.0868 31.0475 13.1136C31.1248 13.1422 31.2292 13.1742 31.3627 13.2084C31.6296 13.2769 31.9772 13.3454 32.3865 13.4123C33.2033 13.5457 34.2191 13.6652 35.231 13.7663C37.2522 13.9681 39.2149 14.092 39.4448 14.1062C39.4789 14.1084 39.5133 14.1118 39.5506 14.1175C39.7798 14.1522 41.8723 14.4655 43.9913 14.6508C45.0538 14.7438 46.1015 14.8025 46.9178 14.7817C47.3285 14.7712 47.6539 14.7411 47.883 14.6941C47.9743 14.6754 48.0368 14.6567 48.0763 14.6418C48.147 14.5002 48.2207 14.1845 48.2095 13.616C48.1974 13.0064 48.0927 12.2494 47.9276 11.424C47.5983 9.77734 47.0491 7.957 46.6289 6.69625C46.1542 5.27213 46.2248 3.82925 46.4525 2.70103C46.567 2.13372 46.7237 1.63315 46.8811 1.23709C47.0296 0.863383 47.2022 0.522339 47.3723 0.318181C47.6131 0.0293027 47.9501 -0.0322249 48.2197 0.0137401C48.4436 0.0519065 48.6338 0.161472 48.7629 0.247233C49.0313 0.425668 49.3219 0.701155 49.5769 0.951376C49.6642 1.03706 49.7491 1.12161 49.8323 1.20453C50.0131 1.38454 50.1861 1.55682 50.359 1.71619ZM48.2399 1.61443C48.2211 1.65807 48.2018 1.70463 48.1822 1.75401C48.055 2.07393 47.9225 2.49426 47.8248 2.97802C47.6283 3.95194 47.5832 5.13193 47.957 6.25353C48.3854 7.53849 48.9548 9.421 49.3004 11.1494C49.4728 12.0114 49.5948 12.86 49.6092 13.5883C49.6227 14.2709 49.5491 15.0219 49.1644 15.5349C49.0203 15.727 48.8284 15.84 48.6743 15.909C48.5136 15.981 48.3373 16.0301 48.1641 16.0656C47.8178 16.1366 47.3986 16.1699 46.9535 16.1813C46.0579 16.2041 44.9483 16.1399 43.8693 16.0455C41.7312 15.8585 39.6288 15.5452 39.3501 15.5031C39.0806 15.4863 37.1177 15.3616 35.0919 15.1594C34.0694 15.0573 33.0201 14.9343 32.1608 14.7939C31.732 14.7239 31.3388 14.6476 31.0147 14.5645C30.72 14.4889 30.3887 14.3857 30.1564 14.226C29.2314 13.5901 23.4817 9.85867 20.2691 7.77887L16.0474 12.6501C15.5559 13.2172 14.6695 13.1996 14.202 12.6105C13.5736 11.8186 12.7962 10.8441 12.0816 10.0548C11.7235 9.65916 11.3948 9.32552 11.1189 9.08915C10.9809 8.97087 10.8683 8.88767 10.7819 8.83483C10.7305 8.80347 10.7009 8.79059 10.6905 8.78626C10.6146 8.78061 10.4565 8.8026 10.2025 8.92773C9.94308 9.05552 9.64953 9.25858 9.34936 9.51461C8.74346 10.0314 8.20224 10.6845 7.94072 11.1422C7.46222 11.9796 3.60413 18.1259 1.46323 21.5265L3.12057 22.9077C3.473 22.926 3.94166 22.9842 4.35022 23.1277C4.56315 23.2025 4.80818 23.3169 5.01074 23.5008C5.22721 23.6972 5.41009 23.9907 5.41009 24.372C5.41009 24.5695 5.38243 24.8399 5.35554 25.1027C5.34997 25.1571 5.34444 25.2112 5.33919 25.2642C5.30589 25.6008 5.27509 25.9654 5.27509 26.3295C5.27509 27.1057 5.41847 27.6617 5.72641 27.9476C6.06168 28.259 6.51877 28.6156 7.0288 29.0136C7.30654 29.2303 7.59998 29.4593 7.89799 29.6998C8.30419 30.0277 8.70843 30.3701 9.04997 30.7064C9.16003 30.8148 9.26852 30.9273 9.37123 31.0429C9.38709 30.9925 9.40333 30.9394 9.41994 30.8836C9.53946 30.4824 9.65576 30.0236 9.76865 29.5783C9.77847 29.5395 9.78827 29.5009 9.79804 29.4624C9.91541 28.9999 10.035 28.5335 10.1452 28.2252C10.2088 28.0469 10.3533 27.4901 10.5711 26.651C10.6302 26.4235 10.6946 26.1753 10.7642 25.9082C11.0823 24.6888 11.4948 23.1381 11.9632 21.5647C12.4307 19.9942 12.9584 18.3857 13.5089 17.0546C13.784 16.3894 14.0702 15.78 14.3638 15.2738C14.6504 14.7798 14.9744 14.33 15.3427 14.0349C15.5994 13.8292 16.0087 13.7266 16.39 13.9563C16.674 14.1275 17.1842 14.5396 17.7479 15.0067C18.0313 15.2415 18.3425 15.5024 18.6668 15.7742L18.6998 15.8019C19.0367 16.0843 19.3876 16.3783 19.7395 16.6701C20.4454 17.2553 21.1463 17.8238 21.7343 18.2621C22.0288 18.4815 22.2861 18.6616 22.496 18.7928C22.6008 18.8583 22.6874 18.9076 22.7563 18.9423C22.7903 18.9594 22.8171 18.9715 22.8371 18.9797C22.8561 18.9875 22.8649 18.99 22.8649 18.99C23.6456 19.1982 25.2844 19.575 26.3232 19.8086C26.9381 19.9469 27.3164 20.5216 27.2656 21.1098C27.2323 21.4965 27.2162 21.9524 27.2468 22.3468C27.2622 22.5443 27.2879 22.7081 27.3214 22.8319C27.3402 22.9016 27.3576 22.9438 27.3683 22.9665C27.3926 22.9802 27.4447 23.0085 27.5388 23.0484C27.7076 23.1201 27.9411 23.2007 28.23 23.2862C28.8052 23.4564 29.5447 23.6301 30.3045 23.782C31.0629 23.9337 31.8275 24.061 32.4497 24.1405C32.7614 24.1804 33.0302 24.2073 33.2411 24.2199C33.3465 24.2262 33.4316 24.2285 33.4969 24.2278C33.5335 24.2274 33.5582 24.226 33.573 24.2249C33.5893 24.2135 33.6464 24.1714 33.7406 24.0466C33.8773 23.8656 34.0173 23.6117 34.1697 23.3068C34.2142 23.2178 34.2613 23.1212 34.3096 23.022C34.4122 22.8113 34.5203 22.5894 34.6205 22.4064C34.6973 22.2659 34.7842 22.12 34.8808 21.9909C34.9708 21.8706 35.107 21.7129 35.2971 21.6043C35.4902 21.4939 35.7319 21.4497 35.8968 21.4254C36.0933 21.3963 36.3247 21.3777 36.5706 21.3669C37.0645 21.3451 37.6628 21.353 38.2508 21.3879C38.8368 21.4227 39.4337 21.4854 39.9203 21.5788C40.1617 21.6251 40.3968 21.6828 40.5971 21.7568C40.7571 21.8159 41.0465 21.9364 41.2283 22.1909C41.3943 22.4233 41.5029 22.7241 41.5804 22.9687C41.6441 23.1701 41.7047 23.3955 41.7607 23.6036C41.7763 23.6618 41.7916 23.7186 41.8065 23.7732C41.8791 24.0393 41.9444 24.2604 42.0125 24.4283C42.0333 24.4797 42.0509 24.5169 42.0643 24.5429C42.134 24.5602 42.2282 24.5808 42.3477 24.6042C42.6309 24.6596 43.0205 24.7241 43.4868 24.7934C44.4174 24.9316 45.6259 25.0848 46.8396 25.2191C48.0539 25.3535 49.2649 25.4681 50.2017 25.5298C50.6716 25.5608 51.0622 25.5777 51.346 25.5783C51.4778 25.5786 51.5754 25.5752 51.6418 25.5699C51.7157 25.5151 51.8315 25.4183 51.9839 25.2726C52.1833 25.0821 52.4111 24.8411 52.6346 24.5811C53.1049 24.034 53.4712 23.5007 53.578 23.2071C53.6631 22.973 53.7373 22.4451 53.7845 21.7914C53.8281 21.1862 53.8436 20.5614 53.8443 20.1615L52.3518 4.19152C51.6808 3.99966 50.8221 3.63729 50.3204 3.40928C49.9959 3.26175 49.6729 2.98791 49.41 2.74545C49.2167 2.56728 49.0116 2.36307 48.8218 2.17408C48.7433 2.096 48.6675 2.02051 48.5962 1.95053C48.4609 1.81776 48.3424 1.70527 48.2399 1.61443ZM41.9651 24.5152C41.9588 24.513 41.96 24.513 41.9666 24.5157L41.9651 24.5152ZM9.89142 31.7807C9.89979 31.7926 9.90359 31.8009 9.90359 31.8009C9.90359 31.8009 9.89928 31.7958 9.89142 31.7807Z" fill="#EE0000"/>
</svg>
