<svg width="56" height="19" viewBox="0 0 56 19" fill="none" xmlns="http://www.w3.org/2000/svg">
<path fill-rule="evenodd" clip-rule="evenodd" d="M12.5102 1.82163C11.2451 1.8879 9.82802 1.95717 8.30447 1.95717C5.50711 1.95717 3.8057 3.0582 2.83352 4.35986C1.83409 5.69801 1.57848 7.28123 1.74873 8.246C1.81575 8.62579 2.04671 9.00325 2.46553 9.40322C2.88614 9.80489 3.4467 10.1826 4.08726 10.57C4.33047 10.7172 4.59648 10.872 4.86742 11.0297C5.26905 11.2634 5.68153 11.5035 6.04671 11.7342C6.67508 12.1311 7.29729 12.5789 7.74508 13.1081C8.6351 14.1599 8.57177 15.3144 8.53297 16.0219C8.53006 16.0749 8.5273 16.1254 8.52507 16.1731C8.5166 16.3555 8.51499 16.4817 8.52428 16.5793C8.5276 16.6141 8.5318 16.6386 8.53541 16.6551C8.57909 16.6695 8.67228 16.6883 8.85102 16.6883H47.808C48.0611 16.6876 49.0282 16.66 50.7724 16.551C52.8009 16.4242 54.0299 15.4432 54.2264 14.2639C54.3471 13.5399 54.3191 12.4637 54.1446 11.575C54.057 11.1291 53.942 10.7813 53.8226 10.5636C53.7846 10.4943 53.755 10.4528 53.7353 10.429C53.3565 10.4087 52.9713 10.2527 52.7466 9.85072C52.5582 9.51349 52.5602 9.11706 52.5779 8.83337C52.595 8.55935 52.6419 8.23755 52.6892 7.91235C52.6954 7.87024 52.7015 7.82806 52.7076 7.78593C52.7627 7.40429 52.8194 6.9894 52.8517 6.53753C52.8845 6.079 52.8683 5.80667 52.8182 5.61927C52.7762 5.46226 52.7043 5.34099 52.5447 5.20265C52.3627 5.04494 52.0749 4.87269 51.5948 4.64305C51.2114 4.45969 50.7445 4.25745 50.1615 4.00489C50.0202 3.94369 49.8721 3.87954 49.7168 3.81198C48.137 3.12512 47.2458 2.95583 46.6799 3.09731C46.2044 3.2162 45.7745 3.6148 45.3172 4.79069C45.2422 4.98347 45.2396 5.12645 45.2642 5.2417C45.2902 5.36375 45.3577 5.50336 45.4937 5.6655C45.7817 6.00884 46.2817 6.34511 46.9369 6.71097C47.1617 6.83653 47.4139 6.97 47.6733 7.10728C48.1034 7.33491 48.5533 7.573 48.9309 7.80276C49.534 8.1698 50.1929 8.64733 50.4947 9.30134C50.9661 10.3226 51.0134 11.2968 50.6468 12.0789C50.2776 12.8665 49.5407 13.3417 48.7062 13.4344C48.4946 13.4579 48.2809 13.4131 48.1225 13.3706C47.9458 13.3231 47.7491 13.2529 47.5414 13.1688C47.1249 13.0001 46.6131 12.7542 46.0399 12.4563C44.8907 11.8589 43.4451 11.0257 41.9276 10.1083C38.8924 8.27348 35.5277 6.07649 33.5957 4.69651C31.7848 3.40298 30.3431 3.10036 29.2842 3.20053C28.2191 3.30128 27.4531 3.81732 27.0076 4.31856C26.478 4.91431 25.5785 6.01386 24.782 7.24172C23.9695 8.49436 23.332 9.77955 23.2154 10.77C23.0755 11.9591 22.8137 12.9935 21.9375 13.7082C21.1043 14.3879 19.8437 14.6666 18.063 14.8035C16.1141 14.9535 14.7129 14.4572 13.3976 13.7265C12.881 13.4395 12.3677 13.1104 11.8506 12.7788C11.7281 12.7003 11.6053 12.6215 11.4822 12.5432C10.8305 12.1285 10.1454 11.7081 9.35787 11.3143C8.50502 10.8879 7.88311 10.4718 7.46572 10.0518C7.04462 9.62807 6.78381 9.1491 6.78381 8.62073C6.78381 8.09867 7.03899 7.6854 7.30892 7.39017C7.57802 7.09584 7.91473 6.85954 8.20637 6.67727C8.61355 6.42279 9.10641 6.31327 9.60358 6.26829C10.1078 6.22267 10.6812 6.23849 11.2928 6.28217C11.9065 6.32601 12.5867 6.40024 13.3054 6.47892L13.3345 6.4821C14.0492 6.56034 14.8081 6.64341 15.6069 6.70998C17.0004 6.82611 17.7942 6.29045 18.2283 5.56274C18.694 4.78213 18.801 3.6798 18.5582 2.64764C18.4849 2.33618 18.3056 2.12668 17.894 1.96777C17.4372 1.79143 16.7581 1.70918 15.8162 1.70078C14.9527 1.69308 13.9413 1.74632 12.7808 1.80741C12.6915 1.81211 12.6013 1.81686 12.5102 1.82163ZM53.7073 10.401C53.7073 10.401 53.7099 10.4023 53.7149 10.4069C53.7097 10.4037 53.7073 10.401 53.7073 10.401ZM8.50237 16.6391C8.50237 16.6391 8.50835 16.641 8.5158 16.6476C8.50534 16.6429 8.50237 16.6391 8.50237 16.6391ZM18.3982 0.661714C19.1483 0.951315 19.7208 1.47653 19.9209 2.32698C20.2249 3.61863 20.1268 5.11312 19.4306 6.28003C18.7029 7.49985 17.3778 8.26241 15.4907 8.10515C14.6736 8.03706 13.8994 7.9523 13.1884 7.87446L13.1531 7.8706C12.428 7.79123 11.7754 7.72021 11.193 7.67862C10.6085 7.63686 10.1225 7.62706 9.72973 7.6626C9.32983 7.69878 9.08796 7.77722 8.94837 7.86447C8.69322 8.02394 8.48315 8.18064 8.34216 8.33484C8.20201 8.48813 8.18381 8.57893 8.18381 8.62073C8.18381 8.65623 8.19638 8.80093 8.45875 9.06494C8.72484 9.3327 9.19649 9.6684 9.98397 10.0621C10.8367 10.4885 11.5699 10.9396 12.2339 11.3621C12.367 11.4468 12.4964 11.5298 12.623 11.6109C13.1367 11.9401 13.6033 12.2392 14.0775 12.5027C15.2228 13.1389 16.3504 13.5311 17.9556 13.4077C19.7289 13.2713 20.5871 13.0031 21.0525 12.6234C21.475 12.2788 21.6915 11.7412 21.825 10.6065C21.9819 9.27312 22.7797 7.75606 23.6075 6.47985C24.4513 5.17886 25.3972 4.02295 25.9612 3.38845C26.6092 2.65944 27.6886 1.94522 29.1523 1.80675C30.6223 1.66771 32.3929 2.11692 34.4095 3.55728C36.3049 4.91119 39.6383 7.08843 42.6518 8.9102C44.1587 9.8211 45.5751 10.6368 46.6857 11.2141C47.2424 11.5035 47.7098 11.7265 48.067 11.8712C48.2462 11.9438 48.3849 11.9914 48.4855 12.0185C48.5368 12.0322 48.5669 12.0375 48.5799 12.0395C48.9612 11.9889 49.2392 11.7833 49.3791 11.4847C49.5251 11.1732 49.5724 10.6438 49.2236 9.88802C49.1154 9.65351 48.8003 9.36214 48.2031 8.99872C47.8489 8.78317 47.4803 8.58883 47.0886 8.38226C46.8221 8.24176 46.545 8.09561 46.2543 7.93329C45.5938 7.56442 44.8892 7.12324 44.4211 6.56525C44.1791 6.27673 43.9806 5.9347 43.895 5.53399C43.808 5.1265 43.8481 4.70561 44.0124 4.28327C44.5119 2.99865 45.1756 2.03031 46.3404 1.73911C47.4148 1.47051 48.7108 1.84799 50.275 2.52808C50.4234 2.59262 50.567 2.6548 50.7057 2.71486C51.2913 2.96852 51.7895 3.18432 52.1988 3.38006C52.7011 3.62032 53.131 3.85815 53.4616 4.14469C53.8146 4.45061 54.0503 4.80777 54.1706 5.25735C54.2828 5.67653 54.2837 6.13893 54.2481 6.63727C54.2121 7.14226 54.1492 7.59879 54.0932 7.98607C54.0872 8.02814 54.0812 8.06905 54.0754 8.10886C54.0261 8.44889 53.9885 8.70829 53.9752 8.9207C53.9722 8.96771 53.971 9.0073 53.9707 9.04036C54.528 9.10928 54.8692 9.56055 55.05 9.89021C55.2681 10.2877 55.4179 10.7941 55.5183 11.3051C55.7197 12.3302 55.7601 13.5778 55.6074 14.4941C55.2571 16.5954 53.2054 17.8016 50.8597 17.9482C49.1063 18.0578 48.1054 18.0875 47.8107 18.0883L47.809 18.0883H8.85102C8.24686 18.0883 7.66351 17.9362 7.34139 17.401C7.20049 17.1668 7.15024 16.9184 7.13058 16.7119C7.11104 16.5066 7.11798 16.2932 7.12659 16.1081C7.12828 16.0717 7.13003 16.0355 7.13176 15.9996C7.16736 15.2618 7.1979 14.6288 6.67634 14.0124C6.37231 13.6531 5.90095 13.298 5.29905 12.9178C4.94137 12.6919 4.58233 12.4834 4.20879 12.2664C3.93618 12.1081 3.65583 11.9453 3.36266 11.7679C2.7046 11.3699 2.0349 10.9278 1.49863 10.4157C0.960576 9.90186 0.508055 9.27143 0.370033 8.4893C0.130203 7.13027 0.48985 5.15824 1.71184 3.5221C2.96109 1.84948 5.08727 0.557168 8.30447 0.557168C9.78821 0.557168 11.1734 0.489732 12.437 0.42355C12.5322 0.418562 12.6269 0.413574 12.7209 0.408618C13.8655 0.348299 14.9198 0.292735 15.8287 0.300838C16.8004 0.309501 17.6932 0.389548 18.3982 0.661714Z" fill="#EE0000"/>
</svg>
