<svg width="55" height="40" viewBox="0 0 55 40" fill="none" xmlns="http://www.w3.org/2000/svg">
<path fill-rule="evenodd" clip-rule="evenodd" d="M53.3377 0.10922C54.1217 -0.304197 54.9476 0.534832 54.5654 1.30737C53.7585 2.93788 52.6478 5.19344 51.7001 7.14198C50.7416 9.11273 49.9756 10.7177 49.8338 11.0863C49.7143 11.397 49.4552 11.6507 49.2383 11.8332C48.997 12.0361 48.6952 12.2417 48.3655 12.4406C47.7038 12.8398 46.8705 13.2473 46.0402 13.5879C45.2131 13.9272 44.3572 14.2131 43.6514 14.3542C43.3031 14.4239 42.9524 14.4664 42.6443 14.4455C42.3789 14.4275 41.9162 14.3469 41.6541 13.9352C41.5057 13.7019 41.1306 13.4621 40.6626 13.4324C40.2326 13.4052 39.774 13.5604 39.4313 14.0459C38.8751 14.8339 38.1434 15.4723 37.4514 15.9156C37.1041 16.1381 36.756 16.3183 36.432 16.445C36.119 16.5673 35.7837 16.6573 35.4741 16.6573C35.1729 16.6573 34.8783 16.5752 34.6369 16.4993C34.5177 16.4618 34.4152 16.4272 34.3142 16.3932C34.1711 16.3449 34.0312 16.2978 33.8519 16.2449C33.3129 16.086 32.6721 15.9621 31.849 16.0695C31.2015 16.154 30.8384 16.5234 30.5999 17.0482C30.3458 17.6073 30.268 18.2822 30.2271 18.8146C30.1241 20.1535 29.129 21.6258 27.6423 22.2205C27.43 22.3054 27.3266 22.3964 27.2618 22.4797C27.1902 22.572 27.1281 22.7038 27.0675 22.9291C27.0225 23.0962 26.9884 23.2707 26.9461 23.487C26.9275 23.5824 26.9073 23.686 26.8838 23.8007C26.8112 24.1555 26.7161 24.5666 26.5568 25.0218C26.3604 25.583 25.9523 26.0906 25.5151 26.5279C25.0688 26.9741 24.5349 27.4024 24.0172 27.7946C23.748 27.9985 23.5057 28.1765 23.2749 28.346C23.0258 28.529 22.7901 28.7021 22.5484 28.8874C22.1009 29.2306 21.8051 29.4899 21.662 29.676C21.3384 30.0967 21.0895 30.734 21.0187 31.3887C20.947 32.052 21.0692 32.6095 21.3317 32.9509C21.651 33.3659 22.0318 34.1612 22.3883 34.9849C22.7576 35.8383 23.1389 36.8145 23.4535 37.6574C23.8498 38.7189 22.7014 39.6504 21.745 39.1052L0.605465 27.0543C-0.187682 26.6021 -0.205453 25.4651 0.573183 24.9884L7.58079 20.6981C8.08277 20.3907 8.72597 20.4938 9.11118 20.9263C10.2595 22.2156 12.4818 24.4778 14.2012 25.5095C15.2192 26.1202 16.17 26.0592 17.007 25.7684C17.7124 25.5234 18.2884 25.1376 18.7548 24.8252C18.8698 24.7483 18.978 24.6757 19.08 24.6109C19.0799 24.6109 19.0971 24.5999 19.1263 24.5608C19.1557 24.5214 19.1907 24.4621 19.2276 24.3779C19.3026 24.2066 19.3661 23.9758 19.4139 23.7003C19.5043 23.1788 19.523 22.589 19.5095 22.1487L15.6782 17.1154C15.5081 16.8921 15.4126 16.6008 15.4464 16.3005C15.4823 15.9819 15.6668 15.6704 16.0033 15.5022C16.4736 15.2672 17.1535 15.1383 17.9848 15.36C18.8514 15.5911 19.4687 16.2829 19.8891 16.865C20.1081 17.1683 20.2988 17.4785 20.4575 17.7391L20.4835 17.7818C20.638 18.0356 20.7484 18.217 20.8414 18.3411C20.8398 18.3397 20.8405 18.3399 20.8414 18.3411C20.8513 18.3495 20.9142 18.4027 21.0955 18.459C21.2899 18.5194 21.5452 18.56 21.8334 18.5786C22.2986 18.6086 22.7635 18.5767 23.0577 18.5317C23.0596 18.5085 23.0609 18.4827 23.0615 18.4541C23.0667 18.2112 23.0178 17.8989 22.9551 17.6357L19.3223 14.003C18.7836 13.4642 19.0203 12.5435 19.7545 12.3335C21.6592 11.7887 26.4344 10.4009 33.8703 8.18208C41.5785 5.88205 49.7182 2.01808 53.3377 0.10922ZM52.6403 2.04329C48.5431 4.11065 41.2478 7.4417 34.2706 9.52363C27.5682 11.5235 23.0239 12.8495 20.7916 13.4923L23.9876 16.6883C24.1291 16.8298 24.2417 17.0129 24.2962 17.2272C24.3812 17.5608 24.4705 18.0424 24.4612 18.4838C24.4566 18.7007 24.4276 18.9646 24.3223 19.2081C24.2096 19.4689 23.9829 19.7545 23.5888 19.853C23.1726 19.9571 22.4371 20.0205 21.7433 19.9757C21.3916 19.953 21.0173 19.9007 20.6801 19.796C20.3598 19.6965 19.9757 19.52 19.7214 19.1811C19.5853 18.9995 19.4395 18.7596 19.3019 18.5332C19.2884 18.5111 19.275 18.489 19.2617 18.4672C19.103 18.2066 18.9376 17.9387 18.7541 17.6847C18.3695 17.1521 17.9959 16.8119 17.624 16.7127C17.4125 16.6563 17.2317 16.6403 17.0809 16.6468L20.6638 21.3538C20.8059 21.5404 20.8959 21.7715 20.9059 22.022C20.9262 22.5315 20.9107 23.2622 20.7933 23.9394C20.7347 24.2776 20.6464 24.628 20.5101 24.9393C20.3779 25.2414 20.1701 25.5766 19.8316 25.792C19.7647 25.8346 19.6833 25.8894 19.589 25.953C19.1299 26.2627 18.364 26.7791 17.4664 27.0909C16.3425 27.4813 14.9401 27.5854 13.4809 26.71C11.6194 25.593 9.35786 23.294 8.17287 21.9771L1.59283 26.0056L21.9363 37.6027C21.6742 36.9169 21.3839 36.1891 21.1035 35.541C20.7343 34.6881 20.4172 34.0582 20.222 33.8044C19.6589 33.0724 19.5334 32.1024 19.6268 31.2382C19.7211 30.3654 20.0502 29.4752 20.5523 28.8224C20.822 28.4718 21.259 28.1119 21.6965 27.7764C21.9199 27.6051 22.1929 27.4041 22.4691 27.2007C22.7113 27.0224 22.9559 26.8422 23.1718 26.6786C23.6759 26.2967 24.1483 25.9148 24.5251 25.5379C24.911 25.1521 25.1429 24.8237 25.2354 24.5593C25.3651 24.1887 25.4455 23.8464 25.5122 23.5201C25.5288 23.439 25.5453 23.3547 25.562 23.2691C25.6085 23.0309 25.657 22.7826 25.7156 22.5651C25.7994 22.2537 25.9231 21.9211 26.156 21.6212C26.3957 21.3124 26.7154 21.0834 27.1224 20.9206C28.1128 20.5245 28.7691 19.5152 28.8312 18.7072C28.8728 18.1663 28.9602 17.2723 29.3254 16.4689C29.7061 15.6312 30.4164 14.8445 31.668 14.6813C32.744 14.5409 33.5894 14.708 34.2477 14.902C34.4364 14.9576 34.6427 15.0266 34.8141 15.0839C34.9088 15.1155 34.9927 15.1436 35.0573 15.1639C35.2855 15.2357 35.4037 15.2573 35.4741 15.2573C35.5361 15.2573 35.6858 15.2335 35.9224 15.141C36.148 15.0528 36.4141 14.9175 36.6963 14.7367C37.2634 14.3734 37.8529 13.8542 38.2875 13.2385C38.9356 12.3204 39.8807 11.98 40.7512 12.0352C41.5268 12.0844 42.2934 12.4529 42.7419 13.0489C42.8714 13.0572 43.0823 13.0403 43.377 12.9814C43.9614 12.8645 44.7258 12.6139 45.5089 12.2927C46.2886 11.9728 47.0551 11.5961 47.6423 11.2419C47.937 11.0641 48.1719 10.9008 48.337 10.7618C48.4888 10.6341 48.5299 10.5696 48.5318 10.5707C48.5323 10.571 48.5304 10.5753 48.5271 10.5837C48.6968 10.1426 49.5023 8.4599 50.4411 6.52965C51.1483 5.0756 51.9457 3.45171 52.6403 2.04329ZM42.6615 13.0374C42.662 13.0372 42.667 13.0381 42.6754 13.0412C42.6653 13.0393 42.6611 13.0377 42.6615 13.0374Z" fill="#EE0000"/>
</svg>
